<mxfile host="app.diagrams.net" modified="2022-07-30T03:29:27.131Z" agent="5.0 (Macintosh; Intel Mac OS X 10_15_6) AppleWebKit/537.36 (KHTML, like Gecko) Chrome/103.0.0.0 Safari/537.36" etag="9khSZDpMMuMYCmRD0xVW" version="20.2.2" type="github">
  <diagram id="dQl33G91v_7WCRb5gb6H" name="第 1 页">
    <mxGraphModel dx="2646" dy="1506" grid="1" gridSize="10" guides="1" tooltips="1" connect="1" arrows="1" fold="1" page="1" pageScale="1" pageWidth="1920" pageHeight="1200" math="0" shadow="0">
      <root>
        <mxCell id="0" />
        <mxCell id="1" parent="0" />
        <mxCell id="yuBNwfh4JPZWKL3ttyxz-2" value="URL与资源" style="rounded=0;whiteSpace=wrap;html=1;fillColor=#fff2cc;strokeColor=#d6b656;" vertex="1" parent="1">
          <mxGeometry x="70" y="540" width="120" height="60" as="geometry" />
        </mxCell>
        <mxCell id="yuBNwfh4JPZWKL3ttyxz-5" value="&lt;ul&gt;&lt;li&gt;URL语法，以及各种URL组件的含义及其所做的工作&lt;/li&gt;&lt;li&gt;很多Web客户端都支持URL快捷方式，包括相对URL和自动扩展URL&lt;/li&gt;&lt;li&gt;URL编码和字符规则&lt;/li&gt;&lt;li&gt;支持各种因特网信息系统的常见URL方案&lt;/li&gt;&lt;li&gt;URL的未来，包括URN—这种框架可以在对象从一处搬移到另一处时，保持稳定的访问名称。&lt;/li&gt;&lt;/ul&gt;" style="text;strokeColor=none;fillColor=none;html=1;whiteSpace=wrap;verticalAlign=middle;overflow=hidden;" vertex="1" parent="1">
          <mxGeometry x="390" y="110" width="410" height="140" as="geometry" />
        </mxCell>
        <mxCell id="yuBNwfh4JPZWKL3ttyxz-6" value="&lt;font style=&quot;font-size: 18px;&quot;&gt;本章内容&lt;/font&gt;" style="rounded=0;whiteSpace=wrap;html=1;fillColor=#fff2cc;strokeColor=#d6b656;" vertex="1" parent="1">
          <mxGeometry x="390" y="30" width="120" height="60" as="geometry" />
        </mxCell>
        <mxCell id="yuBNwfh4JPZWKL3ttyxz-7" value="&lt;ul&gt;&lt;li&gt;URL的第一部分（http）是URL方案（scheme）。方案可以告知Web客户端怎样访问资源。在这个例子中，URL说明要使用HTTP协议。&lt;/li&gt;&lt;li&gt;URL的第二部分(www.joes-hardware.com)指的是服务器的位置。这部分告知Web客户端资源位于何处。&lt;/li&gt;&lt;li&gt;URL的第三部分(/seasonal/index-fall.html)是资源路径。路径说明了请求的是服务器上哪个特定的本地资源。&lt;/li&gt;&lt;/ul&gt;" style="text;strokeColor=none;fillColor=none;html=1;whiteSpace=wrap;verticalAlign=middle;overflow=hidden;" vertex="1" parent="1">
          <mxGeometry x="390" y="440" width="410" height="140" as="geometry" />
        </mxCell>
        <mxCell id="yuBNwfh4JPZWKL3ttyxz-8" value="&lt;font style=&quot;font-size: 18px;&quot;&gt;URL三个部分&lt;/font&gt;" style="rounded=0;whiteSpace=wrap;html=1;fillColor=#fff2cc;strokeColor=#d6b656;" vertex="1" parent="1">
          <mxGeometry x="390" y="350" width="120" height="60" as="geometry" />
        </mxCell>
        <mxCell id="yuBNwfh4JPZWKL3ttyxz-9" value="&lt;font style=&quot;font-size: 14px;&quot;&gt;url统一资源定位符&lt;/font&gt;" style="rounded=0;whiteSpace=wrap;html=1;fontSize=18;fillColor=#fff2cc;strokeColor=#d6b656;" vertex="1" parent="1">
          <mxGeometry x="390" y="610" width="120" height="60" as="geometry" />
        </mxCell>
        <mxCell id="yuBNwfh4JPZWKL3ttyxz-10" value="&lt;h1&gt;&lt;span style=&quot;background-color: initial; font-size: 14px; font-weight: normal;&quot;&gt;URL（统一资源定位符）提供了一种统一的资源命名方式。大多数URL都是同样的：&quot;方案://服务器位置/路径&quot;结构。因此，对网络上的每个资源以及获取这些资源的每种方式来说，命名资源的方法都只有一种，这样不管是谁都可以用名字找到这个资源了。但是，事情并不是一开始就是这样的。&lt;/span&gt;&lt;br&gt;&lt;/h1&gt;" style="text;html=1;strokeColor=none;fillColor=none;spacing=5;spacingTop=-20;whiteSpace=wrap;overflow=hidden;rounded=0;fontSize=14;" vertex="1" parent="1">
          <mxGeometry x="390" y="700" width="560" height="160" as="geometry" />
        </mxCell>
        <mxCell id="yuBNwfh4JPZWKL3ttyxz-15" value="" style="shape=table;html=1;whiteSpace=wrap;startSize=0;container=1;collapsible=0;childLayout=tableLayout;fontSize=14;" vertex="1" parent="1">
          <mxGeometry x="1110" y="220" width="880" height="402" as="geometry" />
        </mxCell>
        <mxCell id="yuBNwfh4JPZWKL3ttyxz-16" value="" style="shape=tableRow;horizontal=0;startSize=0;swimlaneHead=0;swimlaneBody=0;top=0;left=0;bottom=0;right=0;collapsible=0;dropTarget=0;fillColor=none;points=[[0,0.5],[1,0.5]];portConstraint=eastwest;fontSize=14;" vertex="1" parent="yuBNwfh4JPZWKL3ttyxz-15">
          <mxGeometry width="880" height="39" as="geometry" />
        </mxCell>
        <mxCell id="yuBNwfh4JPZWKL3ttyxz-17" value="&lt;font style=&quot;font-size: 12px;&quot;&gt;组件&lt;/font&gt;" style="shape=partialRectangle;html=1;whiteSpace=wrap;connectable=0;fillColor=#b1ddf0;top=0;left=0;bottom=0;right=0;overflow=hidden;fontSize=14;strokeColor=#10739e;" vertex="1" parent="yuBNwfh4JPZWKL3ttyxz-16">
          <mxGeometry width="166" height="39" as="geometry">
            <mxRectangle width="166" height="39" as="alternateBounds" />
          </mxGeometry>
        </mxCell>
        <mxCell id="yuBNwfh4JPZWKL3ttyxz-18" value="&lt;font style=&quot;font-size: 12px;&quot;&gt;描述&lt;/font&gt;" style="shape=partialRectangle;html=1;whiteSpace=wrap;connectable=0;fillColor=#b1ddf0;top=0;left=0;bottom=0;right=0;overflow=hidden;fontSize=14;strokeColor=#10739e;" vertex="1" parent="yuBNwfh4JPZWKL3ttyxz-16">
          <mxGeometry x="166" width="614" height="39" as="geometry">
            <mxRectangle width="614" height="39" as="alternateBounds" />
          </mxGeometry>
        </mxCell>
        <mxCell id="yuBNwfh4JPZWKL3ttyxz-19" value="&lt;font style=&quot;font-size: 12px;&quot;&gt;默认值&lt;/font&gt;" style="shape=partialRectangle;html=1;whiteSpace=wrap;connectable=0;fillColor=#b1ddf0;top=0;left=0;bottom=0;right=0;overflow=hidden;fontSize=14;strokeColor=#10739e;" vertex="1" parent="yuBNwfh4JPZWKL3ttyxz-16">
          <mxGeometry x="780" width="100" height="39" as="geometry">
            <mxRectangle width="100" height="39" as="alternateBounds" />
          </mxGeometry>
        </mxCell>
        <mxCell id="yuBNwfh4JPZWKL3ttyxz-20" value="" style="shape=tableRow;horizontal=0;startSize=0;swimlaneHead=0;swimlaneBody=0;top=0;left=0;bottom=0;right=0;collapsible=0;dropTarget=0;fillColor=none;points=[[0,0.5],[1,0.5]];portConstraint=eastwest;fontSize=14;" vertex="1" parent="yuBNwfh4JPZWKL3ttyxz-15">
          <mxGeometry y="39" width="880" height="51" as="geometry" />
        </mxCell>
        <mxCell id="yuBNwfh4JPZWKL3ttyxz-21" value="方案" style="shape=partialRectangle;html=1;whiteSpace=wrap;connectable=0;fillColor=#b0e3e6;top=0;left=0;bottom=0;right=0;overflow=hidden;fontSize=14;align=center;strokeColor=#0e8088;" vertex="1" parent="yuBNwfh4JPZWKL3ttyxz-20">
          <mxGeometry width="166" height="51" as="geometry">
            <mxRectangle width="166" height="51" as="alternateBounds" />
          </mxGeometry>
        </mxCell>
        <mxCell id="yuBNwfh4JPZWKL3ttyxz-22" value="&lt;p&gt;访问服务器以获取资源时要使用哪种协议&lt;/p&gt;" style="shape=partialRectangle;html=1;whiteSpace=wrap;connectable=0;fillColor=#cce5ff;top=0;left=0;bottom=0;right=0;overflow=hidden;fontSize=14;align=left;strokeColor=#36393d;" vertex="1" parent="yuBNwfh4JPZWKL3ttyxz-20">
          <mxGeometry x="166" width="614" height="51" as="geometry">
            <mxRectangle width="614" height="51" as="alternateBounds" />
          </mxGeometry>
        </mxCell>
        <mxCell id="yuBNwfh4JPZWKL3ttyxz-23" value="无" style="shape=partialRectangle;html=1;whiteSpace=wrap;connectable=0;fillColor=#cce5ff;top=0;left=0;bottom=0;right=0;overflow=hidden;fontSize=14;strokeColor=#36393d;" vertex="1" parent="yuBNwfh4JPZWKL3ttyxz-20">
          <mxGeometry x="780" width="100" height="51" as="geometry">
            <mxRectangle width="100" height="51" as="alternateBounds" />
          </mxGeometry>
        </mxCell>
        <mxCell id="yuBNwfh4JPZWKL3ttyxz-28" style="shape=tableRow;horizontal=0;startSize=0;swimlaneHead=0;swimlaneBody=0;top=0;left=0;bottom=0;right=0;collapsible=0;dropTarget=0;fillColor=none;points=[[0,0.5],[1,0.5]];portConstraint=eastwest;fontSize=14;" vertex="1" parent="yuBNwfh4JPZWKL3ttyxz-15">
          <mxGeometry y="90" width="880" height="41" as="geometry" />
        </mxCell>
        <mxCell id="yuBNwfh4JPZWKL3ttyxz-29" value="用户" style="shape=partialRectangle;html=1;whiteSpace=wrap;connectable=0;fillColor=#b0e3e6;top=0;left=0;bottom=0;right=0;overflow=hidden;fontSize=14;strokeColor=#0e8088;" vertex="1" parent="yuBNwfh4JPZWKL3ttyxz-28">
          <mxGeometry width="166" height="41" as="geometry">
            <mxRectangle width="166" height="41" as="alternateBounds" />
          </mxGeometry>
        </mxCell>
        <mxCell id="yuBNwfh4JPZWKL3ttyxz-30" value="某种方案访问资源时需要的用户名" style="shape=partialRectangle;html=1;whiteSpace=wrap;connectable=0;fillColor=#cce5ff;top=0;left=0;bottom=0;right=0;overflow=hidden;fontSize=14;align=left;strokeColor=#36393d;" vertex="1" parent="yuBNwfh4JPZWKL3ttyxz-28">
          <mxGeometry x="166" width="614" height="41" as="geometry">
            <mxRectangle width="614" height="41" as="alternateBounds" />
          </mxGeometry>
        </mxCell>
        <mxCell id="yuBNwfh4JPZWKL3ttyxz-31" value="匿名" style="shape=partialRectangle;html=1;whiteSpace=wrap;connectable=0;fillColor=#cce5ff;top=0;left=0;bottom=0;right=0;overflow=hidden;pointerEvents=1;fontSize=14;strokeColor=#36393d;" vertex="1" parent="yuBNwfh4JPZWKL3ttyxz-28">
          <mxGeometry x="780" width="100" height="41" as="geometry">
            <mxRectangle width="100" height="41" as="alternateBounds" />
          </mxGeometry>
        </mxCell>
        <mxCell id="yuBNwfh4JPZWKL3ttyxz-32" style="shape=tableRow;horizontal=0;startSize=0;swimlaneHead=0;swimlaneBody=0;top=0;left=0;bottom=0;right=0;collapsible=0;dropTarget=0;fillColor=none;points=[[0,0.5],[1,0.5]];portConstraint=eastwest;fontSize=14;" vertex="1" parent="yuBNwfh4JPZWKL3ttyxz-15">
          <mxGeometry y="131" width="880" height="38" as="geometry" />
        </mxCell>
        <mxCell id="yuBNwfh4JPZWKL3ttyxz-33" value="密码" style="shape=partialRectangle;html=1;whiteSpace=wrap;connectable=0;fillColor=#b0e3e6;top=0;left=0;bottom=0;right=0;overflow=hidden;fontSize=14;strokeColor=#0e8088;" vertex="1" parent="yuBNwfh4JPZWKL3ttyxz-32">
          <mxGeometry width="166" height="38" as="geometry">
            <mxRectangle width="166" height="38" as="alternateBounds" />
          </mxGeometry>
        </mxCell>
        <mxCell id="yuBNwfh4JPZWKL3ttyxz-34" value="用户名后面可能要包含的密码，中间由冒号(:)分隔" style="shape=partialRectangle;html=1;whiteSpace=wrap;connectable=0;fillColor=#cce5ff;top=0;left=0;bottom=0;right=0;overflow=hidden;fontSize=14;align=left;strokeColor=#36393d;" vertex="1" parent="yuBNwfh4JPZWKL3ttyxz-32">
          <mxGeometry x="166" width="614" height="38" as="geometry">
            <mxRectangle width="614" height="38" as="alternateBounds" />
          </mxGeometry>
        </mxCell>
        <mxCell id="yuBNwfh4JPZWKL3ttyxz-35" value="&amp;lt;E-mail地址&amp;gt;" style="shape=partialRectangle;html=1;whiteSpace=wrap;connectable=0;fillColor=#cce5ff;top=0;left=0;bottom=0;right=0;overflow=hidden;pointerEvents=1;fontSize=14;strokeColor=#36393d;" vertex="1" parent="yuBNwfh4JPZWKL3ttyxz-32">
          <mxGeometry x="780" width="100" height="38" as="geometry">
            <mxRectangle width="100" height="38" as="alternateBounds" />
          </mxGeometry>
        </mxCell>
        <mxCell id="yuBNwfh4JPZWKL3ttyxz-36" style="shape=tableRow;horizontal=0;startSize=0;swimlaneHead=0;swimlaneBody=0;top=0;left=0;bottom=0;right=0;collapsible=0;dropTarget=0;fillColor=none;points=[[0,0.5],[1,0.5]];portConstraint=eastwest;fontSize=14;" vertex="1" parent="yuBNwfh4JPZWKL3ttyxz-15">
          <mxGeometry y="169" width="880" height="39" as="geometry" />
        </mxCell>
        <mxCell id="yuBNwfh4JPZWKL3ttyxz-37" value="主机" style="shape=partialRectangle;html=1;whiteSpace=wrap;connectable=0;fillColor=#b0e3e6;top=0;left=0;bottom=0;right=0;overflow=hidden;fontSize=14;strokeColor=#0e8088;" vertex="1" parent="yuBNwfh4JPZWKL3ttyxz-36">
          <mxGeometry width="166" height="39" as="geometry">
            <mxRectangle width="166" height="39" as="alternateBounds" />
          </mxGeometry>
        </mxCell>
        <mxCell id="yuBNwfh4JPZWKL3ttyxz-38" value="资源宿主服务器的主机名或点分IP地址" style="shape=partialRectangle;html=1;whiteSpace=wrap;connectable=0;fillColor=#cce5ff;top=0;left=0;bottom=0;right=0;overflow=hidden;fontSize=14;align=left;strokeColor=#36393d;" vertex="1" parent="yuBNwfh4JPZWKL3ttyxz-36">
          <mxGeometry x="166" width="614" height="39" as="geometry">
            <mxRectangle width="614" height="39" as="alternateBounds" />
          </mxGeometry>
        </mxCell>
        <mxCell id="yuBNwfh4JPZWKL3ttyxz-39" value="无" style="shape=partialRectangle;html=1;whiteSpace=wrap;connectable=0;fillColor=#cce5ff;top=0;left=0;bottom=0;right=0;overflow=hidden;pointerEvents=1;fontSize=14;strokeColor=#36393d;" vertex="1" parent="yuBNwfh4JPZWKL3ttyxz-36">
          <mxGeometry x="780" width="100" height="39" as="geometry">
            <mxRectangle width="100" height="39" as="alternateBounds" />
          </mxGeometry>
        </mxCell>
        <mxCell id="yuBNwfh4JPZWKL3ttyxz-40" style="shape=tableRow;horizontal=0;startSize=0;swimlaneHead=0;swimlaneBody=0;top=0;left=0;bottom=0;right=0;collapsible=0;dropTarget=0;fillColor=none;points=[[0,0.5],[1,0.5]];portConstraint=eastwest;fontSize=14;" vertex="1" parent="yuBNwfh4JPZWKL3ttyxz-15">
          <mxGeometry y="208" width="880" height="38" as="geometry" />
        </mxCell>
        <mxCell id="yuBNwfh4JPZWKL3ttyxz-41" value="端口" style="shape=partialRectangle;html=1;whiteSpace=wrap;connectable=0;fillColor=#b0e3e6;top=0;left=0;bottom=0;right=0;overflow=hidden;fontSize=14;strokeColor=#0e8088;" vertex="1" parent="yuBNwfh4JPZWKL3ttyxz-40">
          <mxGeometry width="166" height="38" as="geometry">
            <mxRectangle width="166" height="38" as="alternateBounds" />
          </mxGeometry>
        </mxCell>
        <mxCell id="yuBNwfh4JPZWKL3ttyxz-42" value="资源宿主服务器正在监听的端口号。很多方案都有默认端口号（HTTP的默认端口号为80）" style="shape=partialRectangle;html=1;whiteSpace=wrap;connectable=0;fillColor=#cce5ff;top=0;left=0;bottom=0;right=0;overflow=hidden;fontSize=14;align=left;strokeColor=#36393d;" vertex="1" parent="yuBNwfh4JPZWKL3ttyxz-40">
          <mxGeometry x="166" width="614" height="38" as="geometry">
            <mxRectangle width="614" height="38" as="alternateBounds" />
          </mxGeometry>
        </mxCell>
        <mxCell id="yuBNwfh4JPZWKL3ttyxz-43" value="每个方案特有" style="shape=partialRectangle;html=1;whiteSpace=wrap;connectable=0;fillColor=#cce5ff;top=0;left=0;bottom=0;right=0;overflow=hidden;pointerEvents=1;fontSize=14;strokeColor=#36393d;" vertex="1" parent="yuBNwfh4JPZWKL3ttyxz-40">
          <mxGeometry x="780" width="100" height="38" as="geometry">
            <mxRectangle width="100" height="38" as="alternateBounds" />
          </mxGeometry>
        </mxCell>
        <mxCell id="yuBNwfh4JPZWKL3ttyxz-24" value="" style="shape=tableRow;horizontal=0;startSize=0;swimlaneHead=0;swimlaneBody=0;top=0;left=0;bottom=0;right=0;collapsible=0;dropTarget=0;fillColor=none;points=[[0,0.5],[1,0.5]];portConstraint=eastwest;fontSize=14;" vertex="1" parent="yuBNwfh4JPZWKL3ttyxz-15">
          <mxGeometry y="246" width="880" height="39" as="geometry" />
        </mxCell>
        <mxCell id="yuBNwfh4JPZWKL3ttyxz-25" value="路径" style="shape=partialRectangle;html=1;whiteSpace=wrap;connectable=0;fillColor=#b0e3e6;top=0;left=0;bottom=0;right=0;overflow=hidden;fontSize=14;strokeColor=#0e8088;" vertex="1" parent="yuBNwfh4JPZWKL3ttyxz-24">
          <mxGeometry width="166" height="39" as="geometry">
            <mxRectangle width="166" height="39" as="alternateBounds" />
          </mxGeometry>
        </mxCell>
        <mxCell id="yuBNwfh4JPZWKL3ttyxz-26" value="服务器上资源的本地名，由一个斜杠(/)将其与前面的URL组件分隔开来。路径组件的语法是与服务器和方案有关的。" style="shape=partialRectangle;html=1;whiteSpace=wrap;connectable=0;fillColor=#cce5ff;top=0;left=0;bottom=0;right=0;overflow=hidden;fontSize=14;align=left;strokeColor=#36393d;" vertex="1" parent="yuBNwfh4JPZWKL3ttyxz-24">
          <mxGeometry x="166" width="614" height="39" as="geometry">
            <mxRectangle width="614" height="39" as="alternateBounds" />
          </mxGeometry>
        </mxCell>
        <mxCell id="yuBNwfh4JPZWKL3ttyxz-27" value="无" style="shape=partialRectangle;html=1;whiteSpace=wrap;connectable=0;fillColor=#cce5ff;top=0;left=0;bottom=0;right=0;overflow=hidden;pointerEvents=1;fontSize=14;strokeColor=#36393d;" vertex="1" parent="yuBNwfh4JPZWKL3ttyxz-24">
          <mxGeometry x="780" width="100" height="39" as="geometry">
            <mxRectangle width="100" height="39" as="alternateBounds" />
          </mxGeometry>
        </mxCell>
        <mxCell id="yuBNwfh4JPZWKL3ttyxz-56" style="shape=tableRow;horizontal=0;startSize=0;swimlaneHead=0;swimlaneBody=0;top=0;left=0;bottom=0;right=0;collapsible=0;dropTarget=0;fillColor=none;points=[[0,0.5],[1,0.5]];portConstraint=eastwest;fontSize=14;" vertex="1" parent="yuBNwfh4JPZWKL3ttyxz-15">
          <mxGeometry y="285" width="880" height="39" as="geometry" />
        </mxCell>
        <mxCell id="yuBNwfh4JPZWKL3ttyxz-57" value="参数" style="shape=partialRectangle;html=1;whiteSpace=wrap;connectable=0;fillColor=#b0e3e6;top=0;left=0;bottom=0;right=0;overflow=hidden;fontSize=14;strokeColor=#0e8088;" vertex="1" parent="yuBNwfh4JPZWKL3ttyxz-56">
          <mxGeometry width="166" height="39" as="geometry">
            <mxRectangle width="166" height="39" as="alternateBounds" />
          </mxGeometry>
        </mxCell>
        <mxCell id="yuBNwfh4JPZWKL3ttyxz-58" value="某些方案会用这个组件来指定输入参数。参数为名/值对。URL中可以包含多个参数字段，它们互相之间以及与路径的其余部分之间用分号(;)分隔" style="shape=partialRectangle;html=1;whiteSpace=wrap;connectable=0;fillColor=#cce5ff;top=0;left=0;bottom=0;right=0;overflow=hidden;fontSize=14;strokeColor=#36393d;align=left;" vertex="1" parent="yuBNwfh4JPZWKL3ttyxz-56">
          <mxGeometry x="166" width="614" height="39" as="geometry">
            <mxRectangle width="614" height="39" as="alternateBounds" />
          </mxGeometry>
        </mxCell>
        <mxCell id="yuBNwfh4JPZWKL3ttyxz-59" value="无" style="shape=partialRectangle;html=1;whiteSpace=wrap;connectable=0;fillColor=#cce5ff;top=0;left=0;bottom=0;right=0;overflow=hidden;pointerEvents=1;fontSize=14;strokeColor=#36393d;" vertex="1" parent="yuBNwfh4JPZWKL3ttyxz-56">
          <mxGeometry x="780" width="100" height="39" as="geometry">
            <mxRectangle width="100" height="39" as="alternateBounds" />
          </mxGeometry>
        </mxCell>
        <mxCell id="yuBNwfh4JPZWKL3ttyxz-52" style="shape=tableRow;horizontal=0;startSize=0;swimlaneHead=0;swimlaneBody=0;top=0;left=0;bottom=0;right=0;collapsible=0;dropTarget=0;fillColor=none;points=[[0,0.5],[1,0.5]];portConstraint=eastwest;fontSize=14;" vertex="1" parent="yuBNwfh4JPZWKL3ttyxz-15">
          <mxGeometry y="324" width="880" height="39" as="geometry" />
        </mxCell>
        <mxCell id="yuBNwfh4JPZWKL3ttyxz-53" value="查询" style="shape=partialRectangle;html=1;whiteSpace=wrap;connectable=0;fillColor=#b0e3e6;top=0;left=0;bottom=0;right=0;overflow=hidden;fontSize=14;strokeColor=#0e8088;" vertex="1" parent="yuBNwfh4JPZWKL3ttyxz-52">
          <mxGeometry width="166" height="39" as="geometry">
            <mxRectangle width="166" height="39" as="alternateBounds" />
          </mxGeometry>
        </mxCell>
        <mxCell id="yuBNwfh4JPZWKL3ttyxz-54" value="某些方案会用这个组件传递参数以激活应用程序（比如数据库、公告板、搜索引擎以及其他因特网网关）。查询组件的内容没有通用格式。用字符“？”将其与URL的其余部分分隔开来。" style="shape=partialRectangle;html=1;whiteSpace=wrap;connectable=0;fillColor=#cce5ff;top=0;left=0;bottom=0;right=0;overflow=hidden;fontSize=14;strokeColor=#36393d;align=left;" vertex="1" parent="yuBNwfh4JPZWKL3ttyxz-52">
          <mxGeometry x="166" width="614" height="39" as="geometry">
            <mxRectangle width="614" height="39" as="alternateBounds" />
          </mxGeometry>
        </mxCell>
        <mxCell id="yuBNwfh4JPZWKL3ttyxz-55" value="无" style="shape=partialRectangle;html=1;whiteSpace=wrap;connectable=0;fillColor=#cce5ff;top=0;left=0;bottom=0;right=0;overflow=hidden;pointerEvents=1;fontSize=14;strokeColor=#36393d;" vertex="1" parent="yuBNwfh4JPZWKL3ttyxz-52">
          <mxGeometry x="780" width="100" height="39" as="geometry">
            <mxRectangle width="100" height="39" as="alternateBounds" />
          </mxGeometry>
        </mxCell>
        <mxCell id="yuBNwfh4JPZWKL3ttyxz-48" style="shape=tableRow;horizontal=0;startSize=0;swimlaneHead=0;swimlaneBody=0;top=0;left=0;bottom=0;right=0;collapsible=0;dropTarget=0;fillColor=none;points=[[0,0.5],[1,0.5]];portConstraint=eastwest;fontSize=14;" vertex="1" parent="yuBNwfh4JPZWKL3ttyxz-15">
          <mxGeometry y="363" width="880" height="39" as="geometry" />
        </mxCell>
        <mxCell id="yuBNwfh4JPZWKL3ttyxz-49" value="片段" style="shape=partialRectangle;html=1;whiteSpace=wrap;connectable=0;fillColor=#b0e3e6;top=0;left=0;bottom=0;right=0;overflow=hidden;fontSize=14;strokeColor=#0e8088;" vertex="1" parent="yuBNwfh4JPZWKL3ttyxz-48">
          <mxGeometry width="166" height="39" as="geometry">
            <mxRectangle width="166" height="39" as="alternateBounds" />
          </mxGeometry>
        </mxCell>
        <mxCell id="yuBNwfh4JPZWKL3ttyxz-50" value="一小片或一部分资源的名字。引用对象时，不会将frag字段传送给服务器；这个字段是在客户端内部使用的。通过字符“#”将其与URL的其余部分分隔开来" style="shape=partialRectangle;html=1;whiteSpace=wrap;connectable=0;fillColor=#cce5ff;top=0;left=0;bottom=0;right=0;overflow=hidden;fontSize=14;strokeColor=#36393d;align=left;" vertex="1" parent="yuBNwfh4JPZWKL3ttyxz-48">
          <mxGeometry x="166" width="614" height="39" as="geometry">
            <mxRectangle width="614" height="39" as="alternateBounds" />
          </mxGeometry>
        </mxCell>
        <mxCell id="yuBNwfh4JPZWKL3ttyxz-51" value="无" style="shape=partialRectangle;html=1;whiteSpace=wrap;connectable=0;fillColor=#cce5ff;top=0;left=0;bottom=0;right=0;overflow=hidden;pointerEvents=1;fontSize=14;strokeColor=#36393d;" vertex="1" parent="yuBNwfh4JPZWKL3ttyxz-48">
          <mxGeometry x="780" width="100" height="39" as="geometry">
            <mxRectangle width="100" height="39" as="alternateBounds" />
          </mxGeometry>
        </mxCell>
        <mxCell id="yuBNwfh4JPZWKL3ttyxz-60" value="&lt;h1&gt;URL的语法&lt;/h1&gt;&lt;div&gt;URL提供了一种定位因特网上任意资源的手段，但这些资源是可以通过各种不同的方案（比如HTTP、FTP、SMTP）来访问的，因为URL语法会随方案的不同而有所不同。&lt;/div&gt;&lt;div&gt;大部分URL都遵循通用的URL语法，而且不同URL方案的风格和语法都有不少重叠。&lt;/div&gt;&lt;div&gt;大多数URL方案的URL语法都建立在这个由9部分构成的通用格式上：&lt;/div&gt;&lt;div&gt;&amp;lt;scheme&amp;gt;://&amp;lt;user&amp;gt;:&amp;lt;password&amp;gt;@&amp;lt;host&amp;gt;:&amp;lt;port&amp;gt;/&amp;lt;path&amp;gt;;&amp;lt;params&amp;gt;?&amp;lt;query&amp;gt;#&amp;lt;frag&amp;gt;&lt;/div&gt;" style="text;html=1;strokeColor=#36393d;fillColor=#cce5ff;spacing=5;spacingTop=-20;whiteSpace=wrap;overflow=hidden;rounded=0;fontSize=12;" vertex="1" parent="1">
          <mxGeometry x="1110" y="70" width="780" height="140" as="geometry" />
        </mxCell>
        <mxCell id="yuBNwfh4JPZWKL3ttyxz-61" value="&lt;h1&gt;方案-使用什么协议&lt;/h1&gt;&lt;div&gt;方案实际上是规定如何访问指定资源的主要标识符，它会告诉负责解析URL的应用程序应该使用什么协议。在我们这个简单的HTTP URL中所使用的方案就是http。&lt;/div&gt;&lt;div&gt;方案组件必须以一个字母符号开始，由第一个“：”符号将其与URL的其余部分分隔开来。方案名是大小写无关的。&lt;/div&gt;" style="text;html=1;strokeColor=#36393d;fillColor=#cce5ff;spacing=5;spacingTop=-20;whiteSpace=wrap;overflow=hidden;rounded=0;fontSize=12;" vertex="1" parent="1">
          <mxGeometry x="1110" y="660" width="780" height="110" as="geometry" />
        </mxCell>
        <mxCell id="yuBNwfh4JPZWKL3ttyxz-62" value="&lt;h1&gt;主机与端口&lt;/h1&gt;&lt;div&gt;要想在因特网上找到资源，应用程序要知道是哪台机器装载了资源，以及在那台机器的什么地方可以找到能对目标资源进行访问的服务器。URL的主机和端口组件提供了这两组信息。&lt;/div&gt;" style="text;html=1;strokeColor=#36393d;fillColor=#cce5ff;spacing=5;spacingTop=-20;whiteSpace=wrap;overflow=hidden;rounded=0;fontSize=12;" vertex="1" parent="1">
          <mxGeometry x="1110" y="780" width="780" height="110" as="geometry" />
        </mxCell>
        <mxCell id="yuBNwfh4JPZWKL3ttyxz-63" value="&lt;h1&gt;用户名和密码&lt;/h1&gt;&lt;div&gt;更有趣的组件是用户和密码组件。很多服务器都要求输入用户名和密码才会允许用户访问数据。FTP服务器就是这样一个常见的实例。&lt;/div&gt;&lt;div&gt;如果某应用程序使用的URL方案要求输入用户名和密码，比如FTP，但用户没有提供，它通常会插入一个默认的用户名和密码。比如，如果向浏览器提供一个FTP URL，但没有指定用户名和密码，它就会插入anonymous（匿名用户）作为你的用户名，并发送一个默认密码（IE会发送IEUser。）。&lt;/div&gt;" style="text;html=1;strokeColor=#36393d;fillColor=#cce5ff;spacing=5;spacingTop=-20;whiteSpace=wrap;overflow=hidden;rounded=0;fontSize=12;" vertex="1" parent="1">
          <mxGeometry x="1110" y="900" width="780" height="110" as="geometry" />
        </mxCell>
        <mxCell id="yuBNwfh4JPZWKL3ttyxz-64" value="&lt;h1&gt;路径&lt;/h1&gt;&lt;div&gt;URL的路径组件说明了资源位于服务器的什么地方。路径通常很像一个分级的文件系统路径。很像UNIX文件系统的文件系统路径。路径是服务器定位资源时所需的信息。可以用字符&quot;/&quot;将HTTP URL的路径组件划分成一些路径段(path segment)（还是与UNIX文件系统中的文件路径类似）。每个路径段都有自己的参数组件。&lt;/div&gt;" style="text;html=1;strokeColor=#36393d;fillColor=#cce5ff;spacing=5;spacingTop=-20;whiteSpace=wrap;overflow=hidden;rounded=0;fontSize=12;" vertex="1" parent="1">
          <mxGeometry x="1110" y="1030" width="780" height="110" as="geometry" />
        </mxCell>
        <mxCell id="yuBNwfh4JPZWKL3ttyxz-65" value="&lt;h1&gt;参数&lt;/h1&gt;&lt;div&gt;对很多方案来说，只有简单的主机名和到达对象的路径是不够的。除了服务器正在监听的端口，以及是否能够通过用户名和密码访问资源外，很多协议都还需要更多的信息才能工作。&lt;/div&gt;&lt;div&gt;负责解析URL的应用程序需要这些协议参数来访问资源。否则，另一端的服务器可能就不会为请求提供服务，或者更糟糕的是，提供错误的服务。比如像FTP这样的协议，有两种传输模式，二进制和文本形式。你肯定不希望以文本形式来传送二进制图片，这样的话，二进制图片可能会变得一团糟。&lt;/div&gt;" style="text;html=1;strokeColor=#36393d;fillColor=#cce5ff;spacing=5;spacingTop=-20;whiteSpace=wrap;overflow=hidden;rounded=0;fontSize=12;" vertex="1" parent="1">
          <mxGeometry x="1110" y="1160" width="780" height="130" as="geometry" />
        </mxCell>
        <mxCell id="yuBNwfh4JPZWKL3ttyxz-66" value="&lt;h1&gt;查询字符串&lt;/h1&gt;&lt;div&gt;很多资源，比如数据库服务，都可以通过提问题或进行查询来缩小所请求资源类型范围的。基本上可以把网关当作访问其他应用程序的访问点。除了有些不合规则的字符需要特别处理之外，对查询组件的格式没什么要求。按照常规，很多网关都希望查询字符串以一系列&quot;名/值&quot;对的形式出现，名值对之间用字符&quot;&amp;amp;&quot;分隔。&lt;/div&gt;" style="text;html=1;strokeColor=#36393d;fillColor=#cce5ff;spacing=5;spacingTop=-20;whiteSpace=wrap;overflow=hidden;rounded=0;fontSize=12;" vertex="1" parent="1">
          <mxGeometry x="1110" y="1310" width="780" height="130" as="geometry" />
        </mxCell>
        <mxCell id="yuBNwfh4JPZWKL3ttyxz-67" value="&lt;h1&gt;片段&lt;/h1&gt;&lt;div&gt;有些资源类型，比如HTML，除了资源级之外，还可以做进一步的划分。比如，对一个带有章节的大型文本文档来说，资源的URL会指向整个文本文档，但理想的情况是，能够指定资源中的那些章节。&lt;/div&gt;&lt;div&gt;为了引用部分资源或资源的一个片段，URL支持使用片段(frag)组件来表示一个资源内部的片段。比如，URL可以指向HTML文档中一个特定的图片或小节。&lt;/div&gt;&lt;div&gt;HTTP服务器通常只处理整个对象，而不是对象的片段，客户端不能将片段传送给服务器。浏览器从服务器获得了整个资源之后，会根据片段来显示你感兴趣的那部分资源。&lt;/div&gt;" style="text;html=1;strokeColor=#36393d;fillColor=#cce5ff;spacing=5;spacingTop=-20;whiteSpace=wrap;overflow=hidden;rounded=0;fontSize=12;" vertex="1" parent="1">
          <mxGeometry x="1110" y="1460" width="780" height="170" as="geometry" />
        </mxCell>
        <mxCell id="yuBNwfh4JPZWKL3ttyxz-69" value="&lt;font style=&quot;font-size: 14px;&quot;&gt;URL快捷方式&lt;/font&gt;" style="rounded=0;whiteSpace=wrap;html=1;fontSize=18;fillColor=#fff2cc;strokeColor=#d6b656;" vertex="1" parent="1">
          <mxGeometry x="390" y="1920" width="120" height="60" as="geometry" />
        </mxCell>
        <mxCell id="yuBNwfh4JPZWKL3ttyxz-71" value="&lt;div style=&quot;&quot;&gt;&lt;span style=&quot;background-color: initial;&quot;&gt;web客户端可以理解并使用几种URL快捷方式。相对URL是在某资源内部指定一个资源的便捷缩略方式。很多浏览器还支持URL的“自动扩展”，也就是用户输入URL的一个关键（可记忆的）部分，然后由浏览器将其与部分填充起来。&lt;/span&gt;&lt;/div&gt;" style="rounded=0;whiteSpace=wrap;html=1;fontSize=12;align=left;fillColor=#eeeeee;strokeColor=#36393d;" vertex="1" parent="1">
          <mxGeometry x="590" y="1800" width="440" height="80" as="geometry" />
        </mxCell>
        <mxCell id="yuBNwfh4JPZWKL3ttyxz-73" value="&lt;h1&gt;相对URL&lt;/h1&gt;&lt;div&gt;URL有两种方式:绝对的和相对的。到目前为止，我们只见过绝对URL。绝对URL中包含有访问资源所需的全部消息。&lt;/div&gt;&lt;div&gt;另一方面，相对URL是不完整的。要从相对URL中获取访问资源所需的全部信息，就必须相对于另一个，被称为其基础(base)的URL进行解析。&lt;/div&gt;&lt;div&gt;相对URL是URL的一种便捷缩略记法。如果你手工写过HTML的话，可能就会发现相对URL是多么便捷了。&lt;/div&gt;&lt;div&gt;相对URL为保持一组资源(比如一些HTML页面)的便捷性提供了一种便捷方式。如果使用的是相对URL，就可以在搬移一组文档的同时，仍然保持链接的有效性，因为相对URL都是相对于新基础进行解释的。这样就可以实现在其他服务器上提供镜像内容之类的功能了。&lt;/div&gt;" style="text;html=1;strokeColor=none;fillColor=none;spacing=5;spacingTop=-20;whiteSpace=wrap;overflow=hidden;rounded=0;fontSize=12;" vertex="1" parent="1">
          <mxGeometry x="590" y="1930" width="440" height="210" as="geometry" />
        </mxCell>
        <mxCell id="yuBNwfh4JPZWKL3ttyxz-74" value="&lt;h1&gt;基础URL&lt;/h1&gt;&lt;div&gt;转换处理的第一步就是找到基础URL。基础URL是作为相对URL的参考点使用的。可以来自一下几个不同的地方。&lt;/div&gt;&lt;div&gt;&lt;br&gt;&lt;/div&gt;&lt;div&gt;&lt;ul&gt;&lt;li&gt;在资源中显式提供&lt;/li&gt;&lt;/ul&gt;&lt;/div&gt;&lt;blockquote style=&quot;margin: 0 0 0 40px; border: none; padding: 0px;&quot;&gt;&lt;div&gt;有些资源会显式地指定基础URL。比如，HTML文档中可能会包含一个定义了基础RUL的HTML标记&amp;lt;base&amp;gt;,通过它来转换那个HTML文档中所有相对URL。&lt;/div&gt;&lt;/blockquote&gt;&lt;ul&gt;&lt;li&gt;封装资源的基础URL&lt;/li&gt;&lt;/ul&gt;&lt;blockquote style=&quot;margin: 0 0 0 40px; border: none; padding: 0px;&quot;&gt;如果在一个没有显示指定基础URL的资源中发现了一个相对URL，如例2-1所示，可以将它所属资源的URL作为基础。&lt;/blockquote&gt;&lt;ul&gt;&lt;li&gt;没有基础URL&lt;/li&gt;&lt;/ul&gt;&lt;blockquote style=&quot;margin: 0 0 0 40px; border: none; padding: 0px;&quot;&gt;在某些情况下，没有基础URL。这通常意味着你有一个相对URL；但有时可能只是一个不完整或损坏了的URL。&lt;/blockquote&gt;" style="text;html=1;strokeColor=none;fillColor=none;spacing=5;spacingTop=-20;whiteSpace=wrap;overflow=hidden;rounded=0;fontSize=12;" vertex="1" parent="1">
          <mxGeometry x="1120" y="1930" width="440" height="340" as="geometry" />
        </mxCell>
        <mxCell id="yuBNwfh4JPZWKL3ttyxz-75" value="&lt;h1&gt;解析相对引用&lt;/h1&gt;&lt;div&gt;&lt;br&gt;&lt;/div&gt;&lt;img height=&quot;452&quot; width=&quot;520&quot; src=&quot;data:image/png;base64,iVBORw0KGgoAAAANSUhEUgAAAggAAAHECAYAAABcPtIxAAAAAXNSR0IArs4c6QAAIABJREFUeF7s3QeUbFWVPvBrTmNOo/hXzI45iyIGEBWzgGJCDKiYxYABREHRcRwwYsCcIwoGzIJjzmHMqJjFNOas8F+/43xvNkV1d73uev2qqk+t1auqq+4995x9wv72t/fZ5zQnn3zyySeddNLwj3/8o/15nfa0p21/J598cvt/UV/a509bvXw+zWlOs6jN7e3aihIwtv7+978PZzjDGVot6lyb5TGXOaHupz/96QdrxV/+8pfhTGc603C6052uzRnvfvebvzOe8YxtHv31r39tv7mvv2ZHAvoma9+4WmU85rpcY8zqT+/j+rSWGf2RcZ6xk7Lye8aXZxk7XqPPHf1/NZKscyyfo9/mTc/V+kc23qPHViMf9wQHpG+UeZqTTjrp5D/96U/Dhz/84eG3v/3tpsmdzlrtw2b9vgzIugD++c9/Hs52trOtWdCz3vZev60rgTrmKNFZflWlcPazn70piD/+8Y/DNttsM1zgAhfYBHh+/vOfD1/96leHc5/73MMlL3nJ4RznOMfwt7/9rS32a124Zlk+81g3YM64A1aroo+RGAMxoC9KW99bH11nrVxOsfrtLGc5y3DWs5619b/nuc931TADNv/whz+08eI6ukidAFDfe44x5dlreWmL5yq7AqR5HZvaQkdHLtMwbpUXwK+fmqwwCCeeeOKw7777Dte//vWHy13ucm3gZJCspVNm+d4IWDsJ2WJmMBLMvA6aWZZ3r9v/sQaxAH7zm980pfr9739/JsUTEJ0FNeBZvc91rnMNZz7zmTcxIeaPBd0LkMAieGWezWQDN2Cl9Mfvf//74Yc//GFTyoCe9Y6i/ulPfzr85Cc/af2qr3/3u981xR7lQy9Q1vraGBgHEKylYZJce8ELXrAp+1//+tdtrPjOO4UNPPie/rnwhS/cnvmLX/yijZ3znOc8A9Dp92233bZdu1qmLW32TGMz1rL2rLbMrTV0tIX89IF+zMt3a21LAIfxsOuuuzY80BiEn/3sZ8Pee+89HHjggcNVr3rVTQpyrQ/cWkKc5LkEWumtSqtNcn+/pktgNRKoNGwstrVaR6upx+bcU9m2uOSWs1jqvNqc5/Rr10cClD4FDwhE8epj1jsWORa862JVBuxR3pVZqDWmWOpYMa6jhCm0uJ9CZYe9AE5ynbKV4zm+9z+AsVY3gHLUTbnV+q7tWx/pr+0pMV4BvOOPP76B8sh8rYat9UgZb33rW4cdd9xxeMADHvBPgPDLX/5yuNe97jUcdNBBw5WudKVNtMUiA4R0Uxbs5m/p8QdrG7397hUlMO/jLco/Lsi6KOW3Ch6mQX2uKNR+waolUP3+o7750f89pPq8V3poBcNLxbSNe0bASNbktYKD1LM+K2XO85qv70bjEVbqk5V+J5f9999/OP/5z/9/AAGVAyAcfPDBw1WucpUNwSCsJKj+e5dAl0CXQJdAl8BGkUAA3QEHHDCc97znHR74wAf+k0HoAGGjDIHezi6BLoEugS6BLoFTS6ADhD4qugS6BLoEugS6BLoETiWBDhD6oOgS6BLoEugS6BLoEpgMINjmaHvLve997+FJT3rScOUrX7nHIPTB0yXQJbBVJFCDGhOENc+BZFtFiP2hXQKrkMBYBiF5EO573/s2gHDFK16xJzdZhXD7LV0CXQJrk0C2nGU/dpI09R1Ga5Nrv7tLYBIJLAkQfvSjHw33uc99hkMOOaTtYugTchJx9mu6BLoEpimB7E8HELKnvq9F05RwL6tLYGkJLAkQfvzjHw/3u9/9GkAIg6CYTu314dQl0CWwnhI44YQTWgpnSXwsWJLt9HVoPXugP2ujSmDJIEVZmfbZZ5/hKU95SkuUFHDQJ+ZGHSq93V0CW0cCzoS5/OUvP5zznOc8Re78rVOb/tQugY0jgbEA4R//+MfJ3/3ud1tSBAAhLobOIGycgdFb2iUwKxKQ9t0ZAUm9m9TO3ViZlR7q9VhUCSzJINjFIEhRJkUMQvx+fVIu6lDo7eoSmE0JJFDR2lOPnZ3N2vZadQksjgR6HoTF6cveki6BLoEugS6BLoGpSaADhKmJshfUJdAl0CXQJdAlsDgS6ABhcfqyt6RLoEugS6BLoEtgahLoAGFqouwFdQl0CXQJdAl0CSyOBDpAWJy+7C3pEugS6BLoEugSmJoEOkCYmih7QV0CXQJdAl0CXQKLI4EOEBanL3tLugS6BLoEugS6BKYmgQ4QpibKXlCXQJdAl0CXQJfA4kigA4TF6cveki6BLoEugS6BLoGpSaADhKmJshfUJdAl0CXQJdAlsDgS6ABhcfqyt6RLoEugS6BLoEtgahLoAGFqouwFdQl0CXQJdAl0CSyOBDpAWJy+7C3pEugS6BLoEugSmJoEOkCYmih7QV0CXQJdAl0CXQKLI4EOEBanL3tLugS6BLoEugS6BKYmgQ4QpibKXlCXQJdAl0CXQJfA4kigA4TF6csN3xKDeanXaU5zmvaTa3zOwN/wQisyIZcqm/zfZdQl0CWwMSXQAcLG7PeFbPVJJ520qV0BBL477WlP2xTfKEBYSCGsolH/+Mc/2l2nO93pNsnIhw4QViHMfkuXwAJJoAOEBerMjd4Uii5AoFrCAQiVNch1G11mAU1kQ05VRhVYdTl1CXQJbDwJdICw8fp8YVsMIFBqXpgDf4DA6U9/+k2KrwODU3d/lVWAFTlGlgs7YHrDugS6BJaVQAcIfYAslAQyoCk6gOF3v/vd8O1vf3v4+9//3kBCXtUdsVACWEVj/va3vw1nOctZhktc4hLDec5znk1xGnE5rKLIfkuXQJfAAkigA4QF6MSN1oQo+kqLx/L9wx/+MHzjG98Yvv71rw+f+9znhu9+97vDX//618YknPe85z2FVZx7KmioLorQ7zV4b1TWgMZvf/vbwXPPda5zDWc605na88561rOeKhhSOX779a9/Pfz5z3/e5PMP40Eha1PiJibp1wRd1jaknEnuzzU1/uDSl770cL3rXW+4/OUv30BDbUuuH43p2Jxn9Wu7BLoE5kMCHSDMRz/1WhYJRIl6p9j+8pe/tF+/8pWvDG94wxuGz372s80i3n777YcrXOEKDRhQ3Be96EU3Bd5VVwOmIe4JtLrPyo1PftQtQYEHnLj2F7/4xfA///M/w4UudKH23N///vfNEs+rApk//elPw89//vN2DddHwEeemQk5Kb0fsBRQEbeKZ29OGeoB6PzkJz8ZfvaznzVwBcQAC7e//e2Ha17zmpvkQTYYGe9has5whjP0Mdol0CWwYBLoAGHBOnQjNKcG0lG4P/7xj4eXvOQlw4c+9KHhMpe5zLDHHnsMV7ziFRswOPOZz9wUG8WJSveZYqtKvgbnuQaYyMv/iWGgDKMcU+Yom6HcWONR/r7DHFCiKS9lVou8BllOqtxzf1XYqdPmxlsEKKkvwPOd73xnOOKII9r7dtttN+y9997DxS9+8SaPvCKHgIWNMP56G7sENooEOkDYKD29QO3MoMUcfPGLXxxe/vKXN8t3t912G3beeefh3Oc+9ykCEyt9HoYg7gXvUXKjLodxDIDvqsshsQyVeUj9AkRiZbs3rEfKzv1xC6TsSZV7fb6y65bFzSljHKhQNrl+4hOfGN785jc3Od31rncddthhh+HsZz/7pliFza3zAg3F3pQugYWWQAcIC929i9m4sAEf/ehHh//4j/8Y/u3f/m245z3v2diDRN9XF0CNyKdA3V9ZgQCEKPCqxKvC9Tm/RRkrJ6yBd5b8Gc94xib4qrz9HzcGNiFWeJgC92EYKmCYpPcygVM35W4u+5AYjSqnlOtd3bAI73jHO4b3v//9DSTsuuuuLTYh7EsPaJykt/o1XQLzJYEOEOarv3pt/1fRfvzjHx/+8z//s1HeD3/4w5v/PxY7JfvHP/5x+NWvftUUGFrfd+IDLnjBC7brDHx+dt+LU6iUv+speYrxk5/85HDhC1+4Bev5n7UsINE1F7jABdr7D37wg+a/B1RitfPfU9rcHJ711a9+tbkZBP6xysUtXPayl21KVn1ce+KJJ7ZdF5e61KVOkc8hgCZlxxWhbVwB3//+95sczna2s23arRE3yejujTAgARJ+14a4CLIt1DPUlxwCoMROPO95z2sxHg960IOGnXbaaZPLJixCH6BdAl0CiyOBDhAWpy8XsiU13oASotB+85vfDAcccEBTYAcffHBT1F5R/K455phjhg9/+MNN8VPeAAOA8NCHPrQpZgp89913b8qVa+La17728JGPfGQTyLjOda4zXP/61x8e+MAHDpe85CWbxUzJU5ysacr4Xve6VyvziU98YlPuj3jEI4ZPfepTLQDR7gnA4053ulN7/qMe9ah2rfdXvvKVDSA85jGPGc55znO2sij0F7zgBe0Zj3/841s8hboDEN/61reGW9/61u067fjmN7/ZYiuuda1rDR/84AeHl770pcNBBx3Uggu1+/znP/9w97vfvQVvvva1r23yUj7woQy7LW5yk5sMl7vc5Ya3ve1tDQTd6EY3Gm5605s2FqPupsguiTAFnkHmP/rRj9p7QNFqmIuFHLC9UV0CCySBDhAWqDMXsSms50T4U/yU3lvf+tbhVa96VVPMoutD57N2Xc/C/8IXvtCs93Oc4xzNGv/Yxz42PO1pTxue8YxnNB86qvwBD3hAC3C82MUuNtzvfvcbXv3qVzcLnyIFHrAST3jCE9rvfO6f+cxnmiK92tWu1qL7XYvJ4OY43/nONzz4wQ8e/vVf/3X49Kc/PbziFa8Y9txzzwY8MBxf+9rXWj0p5S996UvDla50pabg7bxQD/e/6EUvGrhN/P+6171uuOpVr9oseN89+tGPboDHFsn/+q//aqzGYYcd1r4DEJ70pCc1QPHIRz6ybVE85JBDGjBRfwofK0Fm6gRUAFXPetazWptf9rKXDYcffnira42FiOwT2Bk3CfCDQbBLBCgCKvxNGvOwiOO0t6lLYBEl0AHCIvbqgrQp2xnDHFBUlOv973//ZtHf5z73aQAgOxKyw4Ayvu997zvc4x73aEGLfn/Pe97TFCGlih2gcClWgINitS3RjggKnhsCkHj961/frH1WPgv8Ihe5SLsPE3DCCSc0Jf/CF76wKV5g5LrXvW5jHJ797Ge3MljxwAqFf+9737vlZrANkzvgwAMPbMCHIscYfPnLXx6OPvroxg4AHtwjt7rVrZo7ggsDuMF6CMqk1MniNre5TZPHu971ruG2t73tsO+++zbQBFg89rGPbW175jOf2eqiDeqFwXjLW97SwIP/gRmuGuDEcxNjkXiKKP4EWmZbKdk8//nPH57+9Kc3oIPp6K8ugS6BxZJABwiL1Z8L15r427EHPlNqguVYvOhtCosPPT5w133+859vChmNDgz4juJFj7N4t91222Y9U4zcAV6JLwAU7PtHnyuHwmfF/8u//Et7FlYBkBAQ6TeuAHUCGoAVIIHyBB4Agatf/epNiaLvZXSk+G9wgxu0aylWlj/XAiaDgneNLYVcEDe72c1azgRuB2VwKzzucY8bjj/++Ob//+///u/mLhETwOWC3QBKPHP//fdvAAGwoPjVHZsAKAAHQAugBZSoP3naGgqEAENxpVD82lyDOv0GuGg/RoSrhNw6g7Bw0683aINLoAOEDT4AZrn52SmQLYSUOQWPHudzr9sS6zZD7gWxBqx9SjPBi66h7Ck7LgBWPNCQqH/sAQV+4xvfuCm9Y489dnjyk5/clJ8/ivv//b//1+IMKFXfsdBZ9BSre6585SsP++23X7Pu73KXuzQFz30hhkC8A4UqtkE7MCCvec1rhuc+97nDu9/97qb8AZFtttlm+OlPfzrsuOOOjboHbjAfYhoAAQwAFwigAGRgH9zrd+CG+wPAEcAIgHAr/PKXv2wyAx4ACvIRH3HUUUc1tkQeCaAmgZ3iFrhMgBnv2aWQ3RbGDfDB3eNe4GJzd0/M8tjrdesS6BL457Zsf9YdLCmj4DQnnXTSyRY2QVgWmqtc5SqbJn+3EvqwWU8JxA/umVIo//u///uw1157NeWZ7YVJEkRB+Wx3goHMYmaFByD4jf+dEuYi8DuAoByKH9vwgQ98YLj5zW8+3PKWt2z0vSA+Sp1VjbqnCLkUsA+C/eQI4CJQHivfXKFQgQIggRJn1dsaaE6h+80rMRHKf+9739uAClaEa0T8A4Bht4BYBzEHAIB2U/jPec5zhu9973uNnUj9MRZcBxgVMQieqf1iBTwHyBFzAYj4HeDgWiBHTACwI7mUWAt1Uj/uFCwLOWNiau6H9D+2A8h5yEMe0lwcNYHSeo6R/qwugS6BLSOBDhC2jFx7qVOSQOILKKh3vvOdjQqnoAX1eQWwJtqeuyGKy+6DBN6hxVHuYhEENlK8rmVNCxQUdEehU9asbsqW1U3xov9Z12h5uxUEELLogQZ1+eEPf9h2CnA7KNPvLPrb3e52rS5yNHimtqgPNsE14hHUkQIHXsREcCcceuihTZFTuJgJbALwoZ6UeCh+7IhMhwCE3z0fUAE2sr0RyPBMcQriFzAc2gL4eAFVymcdZDslMKMd3DQYCWAj+R4iZ/e63u/cHWRTM1BOqft7MV0CXQJbUQIdIGxF4fdHryyBBMtRUOh4ljUrf1xQnGspVNeK/PeXxEOeZIsfPz6/PcXIpcAdQclS0qxyzAD63bkNQMRTn/rUFqdwt7vdrbEHrgcyuAgwE3YxYBbsckDP+81uB/59ypi/H6OBhYiSVQ8K2/V2VNhhQKG7F4Nwi1vcosU2cBW4B4hhxXtxa6i7LZ4Uu+BCshCUidFISuckbEoeiJz7kHTTvo+Lxmdy8+46AERwpS2T6gBk1AyUSajkfu2UuVLMA2amv7oEugQWRwIdICxOXy5cS+ouBp9Z3SLn3/72t5/iMKQ0nFL0SmCjYMK83B/lSKHGPZHTFSle8QkYAtZ0Dh+ihFnGgIU/LATA4BoK0v/ZXklx+s13lGZNQVwzMIYVUZ/UJQyH93yX3AKUt2crI5Z7FL+8CF6CHusZE3UwJIdBGIOAppoB0m810NOzyS8Bi+QR9iCsjfv5JgEpuzHIpL+6BLoEFkcCHSAsTl8uXEsyOGPpovNtK2Rps9hHX9npQLmFYo+1S3FTZFwTlF2lzOvphFwFFKNYgSjQbIV0X0BIlGTqlm2AdZtgrPYAneRzAAzGKVvfeUZNeawOXAsCM9UpIKHGXbim1icAJG0kp3HnQuS7gI4aZ5DsjtklkmyKYRnSNwIzfQcojOuThRuUvUFdAhtIAh0gbKDOnsem1kyKDgwSgyDynoU++spphGICZB+UyIfl7SVwj1tAXgRBgyxu1jcLmWIUZ+AlaND2RoF3LHlKz7WjSjT++gpiclJjLPbQ8q7xGdDwWYyAYMlrXOMajXHQFpkJBWFSuLYlBuBokxgGrgjBg5R+khmpU8qOLOrOjrAC6hoQgTHR5lrXcW3znfqSpcyMcR+MBiLaIWFnhMDMnEExj+Os17lLoEvg1BLI+saFyLjquxj6KJkpCeQQIgNVSmABhJIAUZhe2VqX3Q6sf9v5+PcpW+8UnbwC4hdcZ5B7p/wEEto9AHgIAJRbwG4BwXfiC0TnU8xJQVwVsGfFveD7WP85lCnXRonHjSD9sXgKsQbyEAAylLB8CC9+8Yvb1kwBkolTACYAHdfJtwDk2HWhXEAiSju5HMKI5Hv1CEAY3YVU4xDqcdO+x7iQpYUBQ1DLSFsEXPpLvoiZGjy9Ml0CXQJrkkCMCwDBGiWYu29zXJNI+83TkkAUYECA+ABpi+0wsEugZveLogMEDGIR/SLrZS8UcIemt52PMhN1T7mziildQEJgoeBFqYulKrY9UpCelMZ3vvOdN/nX40JggVPcAh2VJZjPffHVx88f2j7WPrAijkIuAwzC+973vrargAtBLgQBk8qx/dAWQsGNdldQ9n4/7rjj2i4HSttzgQG/qY8titokj4MATXUSeBnXRj2QKadUBrzUFMtxiaizrZHk4NmVkfBZ+221BCJsh+wnOk5r5PdyugRmQwJhZc3zngdhNvqk16JIIIrMV5S/7XwUoS2B8clHMaHPpSW2RZB1bp9/4gbkAXjYwx7WmAEAQ7nAAvAhnTLFCySw3LEC3ApABsXHarddMa4D93I9ABMUORAhF0JyLoSyz04BYCH3AgjyFjhPQd4FuyYodOBEm4AY/0uqZOeE+tpFAATIXWCrJ3BEYQug5AZJPAMmBGh4ylOe0hgRrgm7H7gUyIh8AigSyxClX1mGgJlsvbRrRN3svsh9QBerAkNjyyeA03Ok9KnbJbBYEoixIB8SVyijpTMIi9XHc9sagzO0dwaqxD/77LNPAwEyAVLeUZAUsf39qHpWNl9+dhqIW5D4xxkO2ARWsWBHWxcpYyc5ckEAH1ILs8TlKAAqpCcWNwAU2EpICdvaKBGRemAkWNruURe7DuKPBwyqcgYQuBFkIHSENGBiOySwA8QIwrzhDW/Y4hFst+RKseVSORgUsRSSGgEKWAPK32/K8kyAQ/21Heo3qV2XMxUSwJmgw7hpwnQERIS1ITeHUdnuCdDEbcHdI6YDS6MfEusxt4OtV7xLoEvgVBLIussAwiCY7x0g9IEyMxIIVR+qyy4DyYxkE5RdED1fT3uUJZBly/p22BHFRbFiHgx2A51yptDFAhj00LH0yZSvwEWgAXsASDhbQcpm92arIWXKupaimHVN+SqPpS9pkTqw3Pnskt0x1jXwIHcARSv+AWi54x3v2BS59gA23B7oe0CCkucm8Az3AidAETYlcReeAbx4l4URswEo7LLLLi2BE+ZBrgV/ygEY4lLwO6AjpoGcsATZDuq5ObAqjI12YA8ABmBKqmmujACKmRk4vSJdAl0CU5GAtY9b1Jq39957d4AwFan2QqYigRqBn22HrGuKkKtA/AB3QFgEAYYUMN+9LIgUKkDAUncYEqVNqVGUqHqJibgPWMSSDkmHTEmy6sUe8PVT2FiEulVQeZQkJWwHhAOguCy4K7ATUiJjGXJPWATPktTIn2BE4IRLQUAgkGEiOl8hpzA6zwEw0XaKG0tQgx/rNku/v+lNb2rgAoiSLjk7Mpyp4DvgIu4OE16MhmfZjeBebIg6uk4mRcBAnIQdJMm9ABRxYbhnt9122xScOZUO74V0CXQJzIwE4lKUUt5awZjpDMLMdE+vSPzhVRJoesmSKHSKz7HOKHpKWAyBI48BABQ914HYAha9Q5AEB9qpYGeCMxcoWApdGmJgwXZDIIJFTVF6x0ag+TNZvAMF/tD52ckAqGAQ3vjGN7Zni00Iha9uwArlbXeEbZS+Y6EDFyage9Vd9kWK3Q4KZcQ6r2CgygV4AIzEJXBTOAxKumT18j1gJPCRwvddtfZts8QgABPiKbRdPV0jeRTmBSPicCvfy/AIBAE//JFJjpR4iz5iuwS6BBZHAtY6hoeD66wTjIIOEBanfxeyJVwKguMoe0F94gr4xig3g9l5BtIb2w5IqbHA7TagSBNsiD5PlkBUudgCCtEkcD0wITaBJQ0kJLPiSgLloqCUPc8rAZRxS/Dxq4dyfcdt4BqK2p/nAggULsDhmpoJcdzzyQPzQR5YgTvc4Q6tLSa352E7gAZtHOcKyPZIz6rJk4AtsRd2W3AjiEfAcijLThHgiFzqts6V5NN/7xLoEpgfCWQnGcODW5cx1gHC/PTfhqxpghdZ/JgE1q1dAAYv14LIfoo30ft1fz+B1S2IyRRI0SUDYXYdxKWRrY2TCDuujmrtJ1YgYCHPyf9RsCm//r6Sbz+yUAYwILYhORv8X90Ro+xBnjcqn2RpTJniHYADspYUiQtHzojsfEjGyL6LYZIR0q/pEpgfCWSt5IIVk4WZ7ABhfvpvQ9Y0lnGUo50NRx55ZGMH7ACwxVEUfyLuo+ApvJpiOd8nn0IUZRSe/wMSJt3jX90QUaABDd7ze6XkAxBqyuSwBqlbrPtRJVxlEWu+XhPmIm0a144AkjqYgATAQMAjF4wARlsuHYONqRnNmjipfDbkgO2N7hKYUwlkvcLKCuS2Y6kDhDntzI1S7XrmApcCJYgOd9Ki6H3MAkYhxyzHcs75AuREKWMYso0nCrlek62AK1nxK8k9AYajlnbqHrBQtyNWBiLAYlw9AiACZMJ++D67EWq2xXGKPAAm7ArXiqOoBSPKNilIU4IqWylzpHPAVSjInmZ5pVHQf+8SmD8JZH3kemUs9CDF+evDDVfjaqVXdwCFKNCOv0xwov+5GsQQ8OcDBVFkAh1juYs5SEKm5AOoSY6qC6AqU9eg8XOuQQBHOiRAJkxEVeauSVxDLHj3q5cXMBHlu1IAoPuT38Az68mLygjQSdtGB4z7E9D4ne98p91v2yS52dVgV4WYhsQn1JiIsB4r1XHDDdLe4C6BBZBAWFpGg+RuHSAsQKduxCZkIFOClLbgRIF7kK+gv9EdAHYr5Bjl5CuoAYWjMgySDiCJQhSQ6E+SpGQTzLMoa89WD7kDvOxWsIvCFk07C+rhR7lvLf1XAcyk5QAwgiYFVgpkJA85E+RmAJ6WC9BczfMmrVe/rkugS2DrS8AcZzhgEARAdxfD1u+TXoNVSCDWrPfQ6ktZzUCEV1iFKOflfOlhLtyX6xPIxwKvACPX+h3DkHwOhxxySMs7YJulzzlNchXNneotYRHqroS1ulamWsFeWJdAl8BWkUAHCFtF7P2h05ZADbYLrR6KfdyzahDhJPEGowAhGRxTdlwINW9BZQWAEjESTqSUQ0AK4/j0py2LzS0v0coVIPVdCZsrxX59l8DiSaADhMXr0w3ZorpLoG4tXM4Srgp8NXR5vX/URRAFG2ABIDztaU9rGRgBBEmIJs2vsCU7NCBqXP07SNiSku9ldwnMvgQ6QJj9Puo1nEAC3ApeNWBuKb8+6z+AYNItelVZ1gDCAJC6I6KCg1jnXA3OW8Ai2GEBIMw23WU8AAAgAElEQVTCIUdJlJR4iICr7LqYQPT9ki6BLoEFlUAHCAvasRuxWVHGlTWoroEtJZMKCJZya9ihACD4k/YYUJgVF0NnCrbUyOjldgnMtwQ6QJjv/uu1nxMJcDEAB4IT73e/+7UYhFlgEOZEfL2aXQJdAltBAh0gbAWh90duPAl0gLDx+ry3uEtg3iXQAcK892Cv/1xIoAOEueimXskugS6BIoEOEPpw6BJYBwl0gLAOQu6P6BLoEpiqBDpAmKI4xwXELRcANkkA3bgAuNw3Lkp/dHud5o3bjrfUtjxR7c42SDKhaWT4m6KIt2hRS8lzdAtklX8SNI3uchjtN9c5LtkR1U5FO+CAAzadBzHaR7WRo/253P/5LRkflVPrV9uRNgjorCc6jisjOSNGhT/aZr/XIM1Jxve0OnSlcTorgZjj+mC0v5daR3Jv+ne5rbnp91wzTj41DXctO2m1l5JZHTuybzpBdVbkO63x1Mv5pwQ6QJjiSEjGvETRJ5nO6CQ1mSji5LVPvv8s1n5LhHsmtvcs5DnaV9XdU/Pj5/qU7/9M+HS472q5EYH6/+xnPxte8IIXDJ/+9Kc3nVdQt/BNUVwzV9RSi+joQpykTDkdMuchRL71jIJsqdQHUpY6V11a48tc5jKtX9KnUcLpm/yfvlWHKN+6QEeIGWsZgznPISChnhCZMZFxl+Oxq1Kpp18qK9emvhWEKDvbTNXN2LWt0yvbJyOHLd3pZKoOGf+jYz/PX2+Flj7LwVrpT/WLok4G0Jr0K+Ax/ZijyXPPOHkqO1lCrRU5n6OuQ/UMj5SR489lBk1/jpNTdgu57jrXuU4LupVqvL8WTwIdIEyxT6NIk143e/KzCFiILZhRDNlznhMHTUp/fk/a29F8/e6xZc7EzaLvefLpWxSSfCeLQRbL7PfPwpDvPTuLl/t//OMfD4961KOG973vfcPFL37x4WxnO1uLtrfQLHr63ZodMbKsCr7mDCBPZyyQnc/11EhnQfhOP1X5ZmHVd/qVTNNP/s+in2c6JMmxyxk/6UN9rM8rKAig+PrXv96e63fPdu6D+wJ+Mp6Mxd///vftgCuvi13sYq2vXae/1dXJmE50/NWvftW+TxkOcjrvec/byg/YVSftBjCBoPx2vvOdr53vkB0bKWeK064VFWDkszMwtIscLnShC7V3rFhAzjjWZ9r1qeVVRqAq9hyyVWWSg8NGWQTXkGlOAc24y5gafZ7vM28DXGNQuDdjKEDFtT5nni8FQIylXOP9nOc853DssccOV7ziFbekCHvZW0kCHSBMUfAmTBZjysRifcQRRwy3v/3th+te97qbTumrijbKQEew3C3c97jHPdrBOWEHMrFNeouv0/b8/pnPfKYdBnSDG9ygHRgUBRKgYgHy+9FHHz1c8IIXHG50oxu1RSaWr+tHzxCwwAMI3/72t9u5Adtss80mILLeVtcUu2aioioDVAFCFvAsxpUhyOLrGorIwlut1twTxWyBrycjpmLVussZDhbtyjRlPEQpR2HH4vS7w6Mo6rAE+j1ANZZl2qPs3/zmN60KxlNOu4ySUi5wEMCT+1mLAUUZE9617bjjjhv233//4QEPeMBwk5vcpJ2kCXiMMhgTdchmXBRF5xb10C7z0aFT2vPrX//6FAzMeo7l9G3Yg1GGIAxMgOC4Zke+2pJxETZhFEy43zqiP3PKaI7/zjit8z7AN6CDsfHHP/5x09qQ+kRm5OogtAMPPLCBZCeodoCwGYN1ji7tAGGKnWUSmjChZJ0auPfeew/bbrvtcPDBBze0TWFbNNHMLLi3vOUtzUq72tWuNrz85S8fTjjhhGGfffYZWF5f/vKXh+2222648Y1vvMl6f85zntMUkWQ7j370o9tEPvTQQ5uVFmZCucpUxoknnjg85SlPGb7xjW8Mj3vc49pExhKwGFmCFoO6gP30pz8dHvGIRww/+MEPhje84Q2nOKWQqNZzYZ1i10xUVICVBZtcKUYLLB+rvmXNW0zJ2vdZZC3a+hq4It9YY3lorD5KC5AjQ/eQPWXhWTk5MVacsvTBVa961TaevvrVr7b+vMhFLnKKPrBYGzMUArdFGKiwVeqgrqGZjR3PoDyMVWPMOAAEA24DegJmWOMUgraRRa4LaxFaX7mOhb3b3e7W4i1uc5vbnAKcRJFtqTEUkBAAVpmCcRb5RINiihelbxRpbDEgLnGJS7SxcPzxxw9XvvKVNwHMUaWsP7/0pS+1daOC9ozBWk3jzHy37gBIlUGqrqPUI8d8uz7MT8DCaPPJNMbPnnvu2eYEtvFKV7rSFCXVi5oVCXSAMMWesKh/5CMfaYqCYC2sr33ta9vCfutb37oBBL9b5FnpX/va14aHPOQhDRxYKF75ylcOF77whdu52yb5m9/85mHXXXdt1yb17ate9arGCDz+8Y8fHvvYxw477LDD8OAHP7gt3FH0FPuznvWsxhpYWHzvXT1MaMrMMzEEF73oRU9hWQEID3/4wwdngCvHYrSlF/YpdsGqi4qiBuCAqo9+9KPDe9/73mH77bcfbnvb2zZF+rKXvaz1A2C24447NpnG1eCMBX172GGHNdlSAGTJMsf4fPGLX2wg8UEPelADiBZ7Zetn48A917zmNZuyQO071OljH/vY8LrXva4t8gcddNBwjWtcY9hjjz02uS0ocGNN0iX95ZRI97oeuxQFQLHf6la3auDkc5/7XFMeO+20UxsHD3vYw4ab3exmzY/svjAdwAOZABcsRM+gELBbAE3o5TAVAQvqfKc73amNv912221TfyR2YUu6qWKZj1Oaqd961GMpBqDGDpG9PtYvQNvznve84ZGPfGRjXaqSDmg1Ju9///sP3E7GkXHlNyAzzE+ea6yaw1e5ylXaGmG8ZQ6nTzFNxqc1AnNJyeuzS1/60q1/lWtNqS9lGHPGhGPLBdsad44CBm76a/Ek0AHCFPvUxELNWwhMJOyAPxa5yRoKmwXKgscYvPCFL2wLKmvxrW99a2MMbnnLWzZLgoXBsjQRTVb/Uyyf//znh8td7nLDq1/96ra4W1SAEVQutoGSojh85h+8+c1v3qxECgwFjCK++93vPlz72tdu9+SlfgEIGIjXv/71DbAYJFtyYZ9iF6y6KG2krC3aX/jCF4ZddtmlATp9CqgJxuLPt4D6o2w/+MEPtn5m/QFtZITZ0Vf64xOf+MRw5zvfuSljribyB/Y+/vGPN8XvWs/0+S53uUtTEMqw+O63335tHLDqMELKByiUR8lRFOj/17zmNcMrXvGK9jxAhLIBIj70oQ8NV7jCFdq7sh/zmMe0egEHD3zgA1v7gEOKn0uAooqfm7+e0lCWccPC/NSnPtWsV8DoW9/6VvPp3+IWt2jjzxiNCwGwAnAPP/zw4Xa3u92mcRPwOo4OX3WnLXPjSnEGW4rFGFelMBvGivgI4FE/YFmcyQE8mrPPf/7zG0Dzu77D2rz73e9u/QKwvetd72oAkMwBd2uGMWn9cA/A6lrv6P/PfvazrR8ueclLtj4DCm5605u2PvG9fjU2GCbvec97GsOYcW3NAIwDEuLOityMUUwRg8O9nUHYEqN465fZAcIU+6D6eC3qlMJLX/rSNvEs6CakiW+ht8hTRBQxJf72t7+9BVSZ6O4FFLAHrAOWo0ltwbBQsCaUSymY4MCCxcPi8+IXv7i5Mb75zW+2z6zC+973vg2QUDIWJWzFE5/4xOHyl798sxQy6dUJsAiD8MY3vrHVyWsjAAR+an2lX1heLDGAiSx9r+8s0EAVubGeKEogz2LsGrKlWC3S+hxbpN+lWabsxZAABZQFq1GfcQFZ5C24xhBlQTG4h7WoT9zD3WBcAIpYI0DTbpMjjzyygQ+AgfVMiXsmgGFcUULGHAVBqdhqSYECQBZ6YwEQVCcWJTcBsCJmBeigzB760Ic2JQMwYVa0DUNgjAZkKpM1qS3aJvamv/65VYzREKBnTOkffXfUUUcNn/zkJxtI07esc3PenKW43/nOdw4777xzY3uud73rNVkbM9yE+gFYAPj0o7419qwTlLaxx3gIYGV0uNY4ESNy2ctetsVGGWdAhDHlOZ4JMO6+++4NMCRmqcZEeZ61x/j/wAc+0NaS/lo8CXSAMMU+DR3onaJntbEyuRcsDoCARYACQPtZNExoE5Il6HeT2SLAYnUsMBdCaN+UnzgF31Mg2AnuAIvCS17ykmbReleOBcGzYoUAFpQGSvyGN7zhprKJYRxA2EgMAmuI+4Cy12fveMc7mkKkSK91rWs1ZQk8sNBZ8pQx6w+1T2He4Q53aDL/yle+0u7BEKCCuQcocWXpfwuz/tLHnol1wjKh+QFGcSuUhFwJgApLHxtxqUtdqil/9bj+9a/fynvTm97U3CHqrK+U7XtgR/CqceeYaXUF+IwxCiZsF+v/6le/egMP6gHk2KGAcvY9kAtkcmlRCkAncCTuBQNlXCUIsgOE8YtJmEPzy2cgH7g0BwEDAOwZz3hGYxDIWp/of2AeYAAOsYvmOgAqDkl/A3DGiLGXXSvKBy4xCO63NniudYayV67flQFAACeAhbHCGPC8uMDUzbiv26hjKHSAMEXFMcNFdYAwxc5J9DdwAFmzwiBrtLL/+XuxAfvuu297KgXEv2vBYJmyKFC6Fn9WgIWcJRGlABBYyCl5YMBi4lkWa7Q1i/cJT3hCc0FA9cCGP4wCheAzH7QFxaFBFoi6jXIjAwT9YSG2KFowKWaKnXwt2FiaWFZ88dgE7h4L+zHHHNOsPNYaRQyAmVj6hXJXHpYAe2As6GdWOgUBIHgOWp6PGRPA9aTv9Y9yABCnP2IQPJsFSknbhqpvKQNuEK4MVju2iKIHRrAfLENgkOWIjXCvtnAjcBMAO0Bl3A3oZQoAM2LMGIN8zGShrdqiTMdWZ0dEtsV1BuHUC0p89+Y5g8E4AOCANX0AZBoLrHYvawB2hmzJGzjQJyx6wBNIBWTNV/cDDTXfhL41JgSJAnuAn3607mCIsBcYCEBWHBIQqY7qJBbGOFQHYx5L5be6TqhjBwhTVBwzXFQHCFPsHBM2QVCoQwssnzZLjJVgdwKrkv/fYs0as6BiEgSqmaBoQJPTIg/tx0XAErAIWyywDcqKZffkJz+5WYfu873rTHqgw6LEWqBUWBusT1YCayF775dzMWwUBsEwAL4AAwF+FCowJV6DPFn3+hIAA/JYgMAB4AWcUd6+1yeJ3cAUWWDFGAgAU5axAMBhCoAFAME42WuvvRqLoL8oDgu8yalPuSYACoDBuFA/i797MBGoaAu/sedaihvowB6JQdC/GADKwgtY1U7PAXTQzQJYBcyqA9qZ9Wk8alcs2owrMQ+UTd2lkCDADhBOvaCEQdCfAF3mu3nJ3aM/0fyAGPDGghc/BCwKSjZmwtaECRT8bI4rwxzVN/rfDgPjiYEARAAG+tW6gg0CKq09QCuAy0gxDryMX+PR86wpxoRXQGDYIu3oAGGKimOGi+oAYYqdg+ZjZVEAfLACdyhsExLFTEmYpALEsl2IoqH0KRET3iRkJaCxWaX+x0IoA80s6JHVJ4DIs0SNW1AoAOCDJYpOTCY017ASPAdFSUmxYCxSrEKLfwKQ1Gk0BsHi4/vQyFMU10wVZSJYHIEAcuFH5+MF4gTnUbYCB/O7BRKAsKiyuGwxRNOSu0UXMAAQAAbgDZVLQZM/JUopUOQAASWvDEpXPSgGTAYr0lgA9IAO4AC7pM8odgqBYhGTgC1Qf8/AOIgryNhzL0XCOsSSqI92cYkIPlRnoJVS0D7PACLU2bgBgLQVpa0MzzU2s/c9CsQ4UXdjVxCc+ASvBCjOVIevY2Wyu8KcI0dAlBVvLmMDfQdsGl/kDjxigoB5v4kLMKexCWRpt4u1xngwTinyzE/ME5Cnb/S/Z2KdjEOgz9gRr/SiF72orVPGtvHlPuMG44RxwFiIMRCQm23b2LFk6FwKIGz0vl7HYbUuj+oAYYpiNokpFQpCdDElbiKb/JS7RZ2SFoFsUbW33eJtwYXa0cQUCKXDXWDBdy3Fb6EwKQWbWcBZGhZ7bAIfdLbfUVT8xyhEDIQy3GeR4k+0QFAoFgxWMUXmFXBDIbAu3Ye+zN5o943SjFMU3VYvykSwOOorriDtRgfb2igmgG/fAup3i28ixgEqljSFCZwp521ve1tb5Pn+9Sd3kUXZtRZjMgbc9D2LUj8AfRZ0fcaiowwS3IqlQOmzItUlizRACWxwF3EbGQ/GC0tUUKHFXUArCtq4o0gAVcGqAhgpAW0EUigmQMUYdF+NvAdCuR8AGO4uL6CCVZoxoS7GEOADbGBaBF0ad6zY5GGIFbrVO3wdKxCAYMwABuaWsUbWAIL5y21j14cXpe6zNcE4yZZTbIN7zc8ED2abY7bbGnv+BBqb79YYDJGdUBgn8sdW+rMOqAPjA1sEcNjlYG0w3hOXkNinJHRSJ/cbi4mPEOQo/ibbscM8LHpw8zoOo63yqA4Qpih2C7mJYxKaYBZFk52CZgVkmxyhm9AmKN8v9wFFAlyY8KKVTVhR4yxCwWmsfgstiz4Wv7IBAWACy0ARmJAWHws4ZoGCCCuRhD3+95y4GYhAHTEcFJgFSx0F0QEQFCDWI+lypyiymSlKe9HxqFmLK7+wxZurgaLjopEDACuQviVr/QoIYgMoegrSQq7fKFUy4xN2nz4CACyqFm5KXP+w5rgSAAwWIaue4ueC4A6iIIAWwJA1GJeQ57MCWZ6+o6Q9gyLgTmLJAwXGj772HAGu+hJAcI8YGODV87gTAAljACigMJSpTcCDurkPNY1dEEEPMITJAIoAHqADUMU2GD8ACwUSpTEuT8HMDIQtUJFk0wzoChjF/gB35I9xpKz1t+spWvI0j5PUym4Uawygpj/1C/BpHFkLuDWxQ8CAtcDYMJcZF1wV+jduUGsPAKs8L/EIfgc8xM0YNwACFjTrjbpYo4BMjIMt08oDKrAdQC7QqYwwCR0gbIEBtY5FdoAwRWEnSrmm2k0EcCZM3X/tcyasamQy1ajw+Hbdn2uyx7um2M29rq/52mO5xU2Q6/K/ctXBYkLRoT/rgoaCRE8LoBpNyDJF0W31osiM4rPQWRwtfuh9dC7LCGCzoAMB2AVyI0sK0SKPQaA8A7Qo81hsQAArzcIZi83C7DkWXYut9yh3FK8FmxWp/yhsz2ZR2l1RD99xr75TFhCjTpSHPuO2iBuA5Wlxx05RHhQRxgvA5G5wL5bCb5SHIFigleIxJtxvRwaA6pnaIyhTO13DmgSEatpenUphYF2AjTq+t3qHr2MFMnfruxgAShvo1H/cjHYx6FtzmBy5azAOCXLUVz5T4F76wMuYBNgYBvqXiwxbgf0CeMUzuCZnbTAoPE9/GrcAhF0R6uIdA2mMu8ezsoZZJ7hF7K5Sfl2njCeBtMCJ57g258Kso6j7o6YsgQ4QpijQekiTYnOwSY30rko+QCIUXj1LIUFHYRtyQEqsC+UEdPguedyzkyJR5QEkldoNwFCGz+6hACiIROCn/hSkhcaCkcVriiKbmaLIEnWawE2fc65C+odixOIklXIAHnoeIwMAWNgpVIuk/5MDn4wBrFDx6Y8AOv3ld/fF3QOgpD8BFH2MFcoYym/ek2Y7JwK63v05WTH9nLpn7HgPQHG9crRdHbwCUDOG811YKHX2fEFzdu1oX+JfyBJ1nuC7WsbMdPw6VCTAoIJ9MtJH6Hxg0R9AFuCZ8RjAlTM50teZ//rLmIkbouYtwFTpS2PGOAhAAwxdnzTiPufcipou3n01PbT7gUcuC6xH5oV2YalsucWuqVOYj3UQb3/EFpRABwhTFK5Jkf3IdXElZL+FPqwL/GjwX6z3oPYs+IlQzuEr9WCo+IGjsGKBVIUehZDm5jlZeCwSMjMKdmSxul65/J3o7RrJPkWRzUxRsdKyiJO/P4tpDc4K3RrglQU95xYEyFXAlnvqWQfkHqCWmAL/KycMQfXnElR2yOTZo0AvfZaxl77NmRI5MyGAMot/2pyFvYKXKKIKKDI2c59yWLrSSNttEVDLzQBc5jyJPHdmOn0dK5L5VsdPVb5hAyO7VC1sYO079yW4OH2dsRHQmO8zPnN4U06QHHXzpF61vARS15M4rRNik7Bm1gkvAAUItHZg4LwyNjeaO2kdh9S6PGpZgGCrlMmdBan7k5bvk9D1kdMo2s8kzCIQmj+LcF1Ag879Vg/DqfdkoR619OriUGtc+y9WTRYm16HH0YzePVNQpV0XaOpYINVFsi4jdMKHVAVWb5m0vu7PX/op/RFZRa55r4tqVaRheSqbU638yhSlrnl2BYxVmbh/dP7lnij2Svmm3AomqmKvDFPqlkW9KqkKUKuLoIKVWLsoZvv5Yz1yO/g/CiblTtonS3V9dY+l32tfVSt8rc+acPiteFn6L32a/yPfBH3WMVjncdo5DqBmfAYQ1jEUWYSJqONoqf6sa0zGdRrofuwB9wNXGAAjfsZOKe4k60Qde2vVGVUe49isCkZmpa9XHAxzdMGSAMHktlUq++8z0Oaobete1UzCUQU1ywM3i4t3bgbZH+2MYMWKqjcG0OejTMe6C3eFB1ZrLItaLOHV1jWL8mrvr/dVALPUeJjW8zIOKxsSRRTZ6M+wHWvdnRIwC1iKm+ArpzSAS/7v2h8+r1VpUFJVVgE4FTDn91m3YCcZF8uNv7iORsErWcRNlGOhlxp3AYvpmyjlcc/1PIwUtkjgqmfocwG53JC1HtMYz6OgtTKsMW7qPJ/ltXYa68h6lzEWINiOBSDYE816DN263pWbt+cRZlD8Umh31tpUJ7G626IpCIn/UXCZyOQssrM++SqNW+MyZk3mW7o+se71bVwW+q6yCbES19qnnhE3jPgDuydkghQBLxBO+dVVUtmJ1chBvdHciZRPnE+UXCzknIhYFdZqnjfr92TMBwxod3U/RulXNnMpxV/B2zjl7ruwYmJOGBMCJe3AkI0TEEnsVHWnrUWGAZ91PY2xkt/CsE4DfK6lrot476kAwsknn3wygGDvfQCCzpl1JD4LnWOympy2J5GhhcyEjZU+C3UcrUOlJy3ktlYKLNPfMrDZ5hSLb5bbkQUwTILoa5Hza7WOZ7HPVqpTGIQsoFGqguLsqBCUSF45ZGmtIEF9KCh/tk3aTilngzwOicUwLxJbsVL9V/pd+wBYOyq0gd87lmaAQgKAF3ntqgZJlLf2W3dy3LiAWd/FcBkn2woe/V5ZxdHr4+KwXdbOGuuceIQEJyZYdhrsgXoL4rRVlusiB1lVgJDndSN2pVmzut+XdDHwMUn3astMFMQ0FpLVVXM+7rLoWiSxL/YnU1A1EGwWW5G+jd+YFSiRD7+xqOpE5k9jwm/J9scypShs2eMaY81aYDbaKxS8wDTWva1r9scDruQDtHIbJWh2LfM6dHTofQqJ/G27lP7ZyzNrXMZaXQzGqqh/z0Zryx/h3AC5JzLfKlBYS/tmfezoa7K17lDW8rDIfWDLbtwBAU/pi3FKfzR+ZSk3Q10vbPF1nb7Ojp8a07RWg0K/ZdeNXRK21EoDblzFbVLjs6bFWsx6n69n/cYCBNGp0nVKwCESOftZF3miTUPoYRDsD4eoBW2xdCbx32cyrUbG9d4sBiuVU5mDWAWpZ/Y4m5w1rmKSdsQCSZk18HJUxpPUtfocl+sj9fSiEJ0VYIHEhMgwuNFelAUFKgkXYGBnASbI4iqXgkyJtmuGjl+rws5WTrIHPjJmfK7Kaa3uhfSj52C6JHOyZ1+wHJeGAFvrFdaIssiOopXmwjyPj2yJleQLcyNxlwRn+llitrgcyL7GaNR5SlZZ46Pga2xDvTZpl30Xd0LmeNwAdQdP5u+ojCcFD9guh1NhLBxyhjWSqdNYdjbJaN+udSzP81jYEnUf62JgRSa3v0G21mCvLVHxWSwzk8qpeiaorHQs8LyiNL2ztFCBJhwr10Rg4bGEfOcPLfuTn/ykKb1QaCY8yz4+Vs9kNVDmkDXFKNmNPe2UQF2gKQ2T17s+lpa31i31DxXsmfEvuy6T0aDJ1rxYammbQEdUNstO3SVlsXiHzk45yhANrY5YqixCFVC4RtuUKcV0fWasoTw/9yVBjEUFBZoDimZxvKy1TtXKi5WuH9DL8llIuZtMmCj/5FCoi3bo5bgjAgLrwlsBaKWy62KccZb3pRRSVVKjcRFxC2SMKCvXZ3zVceI345jFLEmTrZbSYZt/kgABQKNbRdcq8611fwX0sZQBMQGh+lkqbyBQtktZK7PupB+qkq+yrPMo10T+9bqMmfRZmAvXjqP589xx4CxjzW+jW3fr+pB7Pds6JKEUQCjrpx1WDNgkckpfd1f4dEfoWIBggeFXEnhCYUUhTPfRi1eaCUtWUo+iPVk0iUHIYM+kcwKfzGcWMBPaQmfwG/QGP9CAyRHoBUxIzYu6lb7W7gIZDiVCkW1NYKEJssMOOwwveclL2qE6LCkpdfmcAQ+WBqsLuPCidD0HqABUKHP/U+xcDDK9qZtnxPKD3oEPlik60++eY5Jql/rKtKZdsggCAA6hYsl7rjpHyQMpMvipmwhooMJnsrDwyyRo8WP9yhKnzUkCA3DE75y6Ra4WEjJwwJD0xmnv4o22f+ZFyMIdsOA7CoNsKUpjEEiqftuq8KOAfVcDGmMdRiHEOqxAIAq95nGoyiX31Of5LgxD3dufNSYWbI0hCBAZVVJRNJ5pbhh75gL2U9uzdXARrMq01XsMNhS/7YWYFMDIfAeMRoOK666WyCJ9UmWTMTQKxqLsqzIPMM+8qgCzjoFxsk8fj+aBqHWrroPUx/hUB1k+rZ8yhupr64/fGBuL0NeztFaNBQisMHm/nfbG9+O1EYO9Nrej4gsEEJz+5wyDChAyAcUnyDGRg3soacqRlW0xl5gIhYZBwCygDQ899NA2CSwEQALFB8gJCnv3u9/d8vfzBVKsTmFzUAtXB1Agyti1FGK4BYQAACAASURBVLxMaOqnrs4boGyBCBaY3OxABqVsq6M0rGhLypglCqgIXNQmAayoanWl1JUn0ZI/n9WPj9vzuFu8jCe/oYSNMb8BI+oJIGELyAUoURcWkTrKVCgNNBpVPTAzttHV6OVYVRsJIFSl4bMFF5B0zG8FB6MAP0AgFnoUue+TSTLWXVXUsTYraKiKpoKU+IhH2YfcG+UQpZPn5PqaK6IqjgCUylwFfKu/EwuxVrbnAqSLlP0zOwgSY8J95E9/A/fJfBgwmPfqyqtWecBGVejp47rrYZQdisIOOE8AZH3OOCYqZQfoxeqPK6gyC3ER1bGWrbphE7Rb7gVbLmuG0c1dt/v1S0vgVADhpJNOOlkHWKBZwSzE2kldmEtLwMA3iB1iI8jTka1RXJmMLHfbB+Vh5x9nOVPc3/jGNxoAoIwpXwc2UY5yqQMS6FMAwHnurPzdd9+9faZo9ZXykupZpjN1UB+WlWN8TVjMgrPipU9WL8FrDiLCILC67Wum7FnsMuDZxuTgIkBAgJCgPwDBs4EOPkCUprKMGcpd8Jt2sWxskZVhjfsD4BC8adEGBgAfVi6wo15AAeDhWZ7vfsDJYq8dtluSHTmSK1ARJaRtUSgbDSBEaZCLseAMBuyPxbMexhX6OONwlAmo1HGleStlWy3IgIrKjMXNk5iE/F8VR509NZ9BwF61Xis9nfrl/lihaY/7M66cJMl9JvUz1mkczT2P61ja7F0fO8zL+R988rX/wjCkjypLFMUdZT3KJOSe/O693l/7x2+JY/FeXZN1XFRZq3vGUWUhwlJU8FH7uo5D12IgGUbWM3JgzNS2zWP/zmKdxzIILFe0L0Vgwc6C0emb5bswVhzrzZ+BW7PIJXiMIqZg+dXRhDmWmYVMWe6///7t4B7xBBY7dD6FagGUeIYFzWKg/DEHwAHaTb+JPeAaoqRNGt9Jl+xeoAFtj62wcAIemA6TT0Cl44eBjpTJ3aEu3A/J6+9/z7bXHdthjGg3xcxqA2pQfWIAMBkAD5TvenS3mBbjSJu0AzDAUmExdtttt8ZuYCq4KbRdYJLy1VdCFmUAGcBJlENVHhsNIGREGlv61Ul/YaAs2LG6YqUlORKwxeoC6HyXBdo9gAbAmh1Mo+4F1+ovYwxLFOvfwi+YTJ9jIjBf2CPjOwCg0t2uNw4AmTyjMgd1u2ZicjzPtfo5lqg55nP2/4u/wCQ4jRP9vAjsJ5lHGWsnd4rTG81bbFoUr/EQGWa9HnXpjPr9AyjyjICCqqCjzHONMWLs+D9AvTIC2dUwDpzpu7zULenjXatt+lP52Yobpsu7P/3p3folVo6Bk4OuegzCdGHGkgwCStuCDSB0BmEyoQcgUOKUHmuOYgvyJ0eAAIPgVD9HCVuIWe0UIuqdgra9lDKHkFnx7reQUqbbbbddWxQEQSoLpe94YZPOxIkiZ9k7ileMAsWfyWzRp+BZIKwsDIYF2oIKuFhQc0wsy4SriT+fQqC8AQRMhp0CAAILRruVox4Sp/CDHnPMMS0GADBwwpsgKqwKgGARAH7IwW/qIU7B8/hRuR7EXjg22LMtIO7zHODHPZTT6Lj0u7KxHwLXFj0GIaxA3ikNcsbkcPEkeIzbiUwsxvqJ64vytgCTpWu5mCgcqZFdIwYJiyMWJuMX+NMfxp7xIi7EeNQ/XFgAirGpPPcBmmJRuIqMCeM7x5hjl7BD3Ec5ShzLBPxhmribxBNguwAOAJk7CrNmvBgbXHWeL2o/Fi9FZp4Akk6+9PxFOYU0CtJaADxbKzB6XJMBS5Up8pkszGdg0LxneQNxQHyNLyJT89mx8gC6LdpAeMr1TOuZ+cVt6ZnGiPXCONLXgJnxxKonc7l0xLBR9tYFZSVWwBgB4DzHOuga/1P23KjGl3VG/1lD9WuAQUCA8WzMM7bEJABK3YidTFdNetVYBoGywSBwMSQGoSOzlUUagGDAmxjPetaz2kQyqeLbtSA6dpdVbpJSyhS9CWqhRZ0b6GIQDj/88LYw+l5cACUZf98973nPNoEpcK4Ck9RvrqEQLKwyIqqTxcTCDCSg9MUZYB+ACa4Lz8IkQOOYD3WyKAMpgoBMYq4myn6PPfZolrxFANLHIFg8LDoWdfUVJ4DRAF78xpqgoDAqwBAZmNCUlGQ6FgVuEgDC74ADGVEA7rfYUBzkwB2z3377NSal0pKhJsmBX1ZsBtmoyyK/soCTBSvKQkzONUGXhVs/AnnGo2OgjT9KlpLH9Bx77LHNDWTMGSvKsGCTd6xG44r7C8gEXi3i1oe4mLA93FmAgHsoDyeEAhQAnesxS3ZUYLKMH2sN5bXrrru2so1P78ADwMmdJOhSvc0TVqM6qi8Q6VpzrSoG8407zJjAatUdNPM8FtIP5po+ZDxYa0aPVXZdxgVA5zpgSV8LMAbGgUTKlWz0H/lhGsnU3CE34Mv3/jwTo2h+ARm+M970v3nsemuUY+E/85nPtPFnHQPSrQnGhnf9Ju7JmDNWMKXch9hTu464FfWn8WXN8YdVNd+TqTEgyHoHrHAlWRPIogOE6Y7wJV0MiUHoAGFygY8DCEkJ6zfo2QJOOYaKF+nPFWABpehNfAumBdIiauFkDZu0JjaggRFgDUD8Fn9K0ASjTE08FrjfLAgWVBPPYk1BeAZgYBH1snhTHiayc+FZeupiYafIgQZABHNA6VtAKA2/Kdu1FiMxCl4iqpVv0ZCOFVMAWABAlI7yKSILhmNjvbhIKAouB1YD0GJHhxgFL8/RRr9ZKDAZFpHsuXdNzdJH8amnRWuRAYIxlT8yoDj1q4U8C7u+wQxwPbDwyQntz+IHzCzQGAegULyL8WQciR2hfFn3yiJT/RQQ6H59YZFmrXOXcVvoQ+NTf2Kx1Ck0s98oGsGq+payARLMEYFm4mAAW589x70AKTbKc1iZFBywSTE4XpgVC2hHKRoT5pl2GOuUXgLYJp/Js3dl3HjmPwVsXppH5sSoUsxuKt8LWsUyYGWsJeYl40/fkCPZkRkmE4AD7jBH+gKzGGVM7hgB65Z+wwrpHwrcOzAJdDJCyBvw8HxzntFhPnqOXU2AnvVLO9Qf6+A75TIKgAiGErDhPA+sEcAXBqG6o6xD2sKY8axFiTeZlRHYAcIUe2I5gOAxJoCFE6q3iFmcKU90v0US5YeapUwtuBRzAvz8RqGafBSmiWjxN8ksuiaG8v2ubEyCkzjRhahZQI/ipcBNNIutSUlZsNJyJnwCJTEIrsmRroCAhYcVEKozrJL/1ZM7Q/0xDhYLiwirwoQXh8ByAF4EIXJ/uBaI8DulwarBErAyWY1YA39AhgWAQgCaKCRWhVcWjXy2KCmfkgJqFh0gpC+0OwDBONEfiUQ/7rjjGuDjxjLOULhiUtwLHBpvgCrGhZIAJDBU/vyuT4wF91AwYhws8J4DNLA0sQr6DGtE2Sgb+LT42xprLAAd+p+l52Cn1E8fA7/cmte4xjUaSKaQzA1BtImxMXeAXmyX+nLTAR2UURikbLkEEMwNY4ASnPdXjQ9A5wtCZWiYa6MAIcaI781rgIuSpkitNWRmDlHW5qx+FYysf5SNwTOWjAsyxxyx6BmNAKh5az1gdMSdCqhZk6xTwGNAPYCJKbAOAOzAp+vMf3OZ8gcEsK3WMSDTuLAmmbvGonYkbXfdVWOMWd/23HPPZqDkmnnv61mqfwcIU+yNpQBCgoL8XoGCyRZlT/la1ONrg7YT/GPSQcoW0hr06Fp037hAH5MnwWKeawE1mYAE1B9LPlvNElCUQDZ1rJHn1VL1zGy/rHEA8f+7V7mJrk+6X0qGtVCtG/dov7ZhJdTXguQe18UyVG+LVa71OQlwRqPbtQHgYDWzgBcZIGQs5Z1VjiWi1BP7oh8pAQwRlsn4EVtEURhjvrfQA2UWWAs6hYDBYkGKhxEvkAAysSfiHLzEjFDCAAKwyzL1GwWQfqdAKHV9z5oHDPQfV4IxyNXlnXuJ1arPgRnP5zunKCiPxO/oTwyJ3yg4dTZ+MXNcFxmf6u3FvbYIACFBiNrHyuY+xAqJAVoKICSYE+AiG/58wAuwALwAAeUyIAAzVD0wznUg3kC/GBfmmrGjH3yn/8x9n40Bsgc6sAnKAgIYKoCEsQEYYCcBO2sHlsjvYii4OxkvAR/aZi2g8I0V6wZGMsHUiYeJe5Eh4jfjx9jtDMIUFdr/nstBZ0hOxYg7jcOadGJ3MWy+oFdiEAxuC6dBj0XgNrCYm1AoXv58PvhEA7tWmWg/iyeq0MQECpL8Bu1vsWeds+6BCZaid8jaZLaAugdit0ibkCwryiIR3upWI8ij6EPf+50it/iblCg/i7NFIW1C+2YHAkXlMyXEp42pMJFr2u5QhbF4knddPeo+eeMxQZZRAO5NWQFA5KaeAu4oKpbLIidKqgCBvDAFFDjlqI/JCmCy4ANLLEXK0uJsDJINZke/AAWUDhDG4mfRo4Vdi5423hJXgjlgaeonrgfWpz4SoOhlkfe/Pjd2sQiUuvvUUT/Ja2EsG0teFAxWwBZdzJc+xRI5U4MPXZ2ABe4yCsR4Bk4oPtcmuFebjTd0OCAkjmoRghQrK0AhA13aTqmPiw8DtI0JLy4krA5GyLqDmWS5YwywOWQMKHJB6Df9bix4pf/Md2PDePCH7QMgMUdAgXIFtOtfY0zZyuIeNRb9bvwYj/qF68g8db++pW/UF2MAsIopwCgIQOSCdU92W1SwJFYJ82SMWzt7rNzm663l7ugMwhTlOQ4gsIpDD2arl4UaIqfEoHv+dkF/JjwFbrFDxfIfUuomF4tKMA/LkLIUzY8JQO2hYlGOrOZEdJuYKGNUsInFR0ihomUtHhZOCh8qNEG9Ur8wCLFM1J/yZ3FY1N0HUVrIKQ4TVjkQP+sEnawNngWkQKCCjyxm6h52IW6RsAFhKuokV7Z6hH2J5VC7rQYoupbF7Nn8tIvMIMTvHlkAipSpsUHxkwXZCEZD/et/biULMSsdSLCgU97ZdgpkUg76k5XOT02ZA29cNxQKC1CMgDKBQMrD/RQ25eA+VLHrgAUAwzhk8SufomGpUiCUuTlCEbAUjXVKwphk1fpdLIHxY7xRWJ6jba5HoQOolBxWQtvMJwoHTY7ZiBzIKeNo3izNAARzAzgCpMgZkGMEVBahti1BhdYGc8l8ZUxYVwAy/3MFKcvYCAA3Jz0LCADi9IvxQ7bWHeMA8NJ3xoY4EYpdfwABmAH15HbSN1whAJ/fAQzriTphNRIADfh4vvZwQQC7xrQ1MYGoYbLUz1iyJhkv4iay22GKS/qGL6oDhCkOgUlcDBYwCgzitdhJeoRm5WM3YS2CFniULCbAImxSWkz5WqF8i7/rTE4LBHZBgA6/K8sAtWdisqAt0hYGypnFKMOierLwgRL3Zgth6PrqCgm4OfrooxvIsBigHSkXQMeEB0pMVPQlfzFQwHq0SLNO7SpgtQBDo3vSs3hPY8FOvVm3ArhY0uS4yK8KEihKfYrOjdWtnyhxfUXWPpO1BddYtPgnGM14UwZlbmwZc2IOKGKMFOUfRgZIBBIAMJabF1CQGJX4ir0nliZbcXMkegCi/xN0mr5abjwENFJEXolDoQwpPhazOQAgosHzCtM06paah/ERUK0PfSZ7zA0XgxiDmmWQ4k4sRkBRbXNkG3lU4BRZhH3wLOsUIOE+RgvFH7ck4JazZFxjfIlXsKa5xncYAErf2uE7/cbgMU4FHJujxmGMDfUybj1LO7i4aj+n/gKduZAwI9jXRTl3Y5bGYwcIU+yNpQBC9v+abAY+CwoqFhFsATOwUaIUqe+gaj5C4IDCxRywuEx8IAI6dw1LADXIQjRBkmjJoswPzycMSFiAUXYmIGvQ81COuTfH5GYrJpHEzeGz+01gk9G767AC2AT7poGBtMfWNAsAqxGjgF62YLjGDgsKxQTXlrgE/D/NZDYWDrKjIBYZIAQQZYHPti/sAMuZC8jiXXd4VCZmNHuh/+P2qe6fJOjJdrgoq7r3vp6cGAWeeuU697vOewBE2KGqrCo4qG3MVK2sUu4L7Wz86X/MGvBdUy1X9mAagHSKS8eKRZG5+oddMyelQRe4a55j7XL6anawhFkL67Y5bY5hEPmG3as7CZRXY4qyVuT5WU8SSOv/2o6AmsQV5F25GYtpQ02apQzrjz62BnGXJu/H5rRxRaH3C9qY6zEIUxoI4wACS8yimMXJQAcCRIJT0hQ4i9uE4AfGEvDvQeJ2HHBDJGBRR6HqWA2YAv47/je+PKwD3yFaFr2P8sMgoF1RhzkEyj2sfgwCSxu1S4l4JcdCXViyUGANUH6oQZYmS5ESMkFFSKMX1RWlDAChCDEK6p7oeVHUoqejIBK8mcVgLd1QFYl2AQgYhEV2MQTIRWFGcXMvUZTYIvvfKUrA1MKd4FP3xqrM/en3/FZpbb+NBsOl/9wfgJdzHqJQlJVYiACM1Nt7FF4texwoqCyAz1WZeCYqGhAV1wNsY+Sqokz9U6/Rtqxl7K3Hveptd0BOcfVMbInEVuaXID3MYrJWpg/D0FVwNEl9A96rey99GSWc8RagmXsCDPJ76jI6zrK2pI4Bohmntc8DLgAjhgemTOwDtsialxwJ89avk/TF1rymA4QpSn8pBiEAIf49ipSyNbH48gx6k18wD1CAMkTJoWxZ7QAFGtiEEKmLDaD4PE+cAQBAEXBb2DKEkoOuWfUAAv8hH12CCk1Ef2hi/kSTy/PFB9RXFhXUsG2DMtuhqu1RFlTpWeho1LNo5SOPPLJZNOoNIGiDtmM/AAvAR+T1aBrWLORr6YqNCBBimVXXkO8APSAJSEAHY5dQuejgLPJRlPXeCiBi3cUNEPYri33eQ0Wn7wJAKhtR7xnHLnhujTtZCSDEqlUnLhHj23ziDkE3G5f83JWlGGUq5s3S1Oakkk4fkj0Gz44DYBwosg7kCOTVggPlVwYhrIHnJQFXZXzCENXxk3GjD6L4KzuV8sMWVGYhSt41ddcCo0SuDmsMowYjad1J/bLDay3rSL/3lBLoAGGKI2IcQMAIZILEcuLPFfAlFoFVDRAI8qKs/YnoRvvz49nlYBHg52Wd8/e7XiQ3Zc33z20gqEuEt98oe+wBIJGUzxQ15cyfnImaCe3ZtjDxA2Mnqi8w1h+fIRaB39DEdL1IZQs04CBK3uQV04BBEHEePzdlJSDJHnsBSTkUSr2VPy33QhQLiplrZtEZhCygo1a6RdUYwFCJ8mZZiwMge4DOmADq4vrCLlRmIUo830UZjFLW2WlSx1OUS1Ua2ZVSGYsKGpQ/yiAsZ/GmHnzUgiwFqQGj5pKAuwBQdQCqlUVpZtvwODZkisvAFitqNLg3AMA6ICjXvLLeAOeYSX1ek0RF/pNUsCpm14+6o9JnAQIVMMZlOI4RqGMpDJR7R91GAXeME31oDRGcag0U7CiXR1IrBygv0smdk/TRelzTAcIUpbwUg5BJkUlnYmMKRHWjBWOZ+94El8qYted3ijnWFcvcwm6RZxVyFYQ9cI1FgnUv/oCLgdL2Uj43gPsCUoLc1YmSp0gAFlvRuChiYVUfIIAAkAArYhG8c4twMyQ+gWuE39/k5V4R4CSQUjS6mAfXsgCwCliOJLmZhkUXhSkpC9kBWrGap9jNM1dUxld9j4LFIAB1+ta2MUodQNXn1cpLo3LfuNiAKP967ajSqSAi1+W79HG1PlNm/W0lAQM0GDXjS/8CBcBo4ltqWVgFO25sk6NAajzFSs+Zxd9H2ZXIEiDEIlCi3C3YQX1PRjm0a3MAQm37aH8tJ5d6rc8JHMzhS9VFMtr3dXwFdDI2jFc7FLg07fSKazMAaVw5k/RdWIsAmgDiaaxFkzx/Hq7pAGGKvbQUQKiWmMcZ2BQsy4d/OAM1CxgQgE6kfE0Mk4zidZ0JxiqggJMfwDVeJiGgYEJhH3LQFvaA+8BvEHnoX/WNX9hi4h6LbBI2xWKJslAuBI/es0hn3zIln0j27DnPM9QRyNEm9dFGi5eFO5Hr0/AbVn84ZcjdYfvdoudBWGn4kn/GVzLcGXs+e61Waaz03C31uzHrD4gV4BtQvRQLZYyaO4CpVyzhaYy5LdXGzS03dL37rDX6XJvNMZ+3psKLvJM8bTU7DQIIszaNMk6bK69cXxmZgNgKOlZb7iLd1wHCFHtzHECA4OtArNG4rmdhYwK4CCj+gAkD1b5gljd6lJI3uXLMaoCG6y34ygAC0Iqel0Ah9CMXQhZICwYwQEFwN1hk3RfEXlF8AESeBdD4TlnKoeyBCoyBuvtN8CMLxt5n9edKkU0vJ87VoLQatLTWBbuCMLs50K0CmBZ5F8NSQ7da7FGo+S4Ldu3n6v+f4nTYYkWFBQgj50EZ86MPHQ2krG6RLVbBdS64BhKGRYsS9Vv1768nWNgcVmhSkek//T56QNWk9+e6uMDibqpr0XrKaHPrvd7Xd4AwRYkvxSBUgJAJTNFT+ixyVLhti9wDNRiM7xitL/JfXgOTXaCOXQ8sY1HMXAm2PgIBfLC2RCZYxyQCMAQoimhXNiUPFPgesEC9+o1V71lZUL0DEqx8lJ6JaW89UCEwSFY0qZ/5ucUSCI7SNopZlLFMadqm3trn2hrFHrFPE7Fn0mMQ7GKw/WkjuBhGh3B8smEIokCWov/XCs6mOIVWLCrzJ+6RGk8wrh0J2hwdZ9McdytWegtdUGVRmaCAwmpsZG5soaqMLbYq2tSvgrpJ6lJBRsBOAMJaFHnWZLJKBtfVsBuTtGGer+kAYYq9txxAqPuXWdi2olHQBrtsdSxugUUUOABgJ4LERGIV+FgFYwkOpPykXKa47QyQA0EEt3vlHBCcFz8lGtZRzn63FQr9z5LPEa+sfYGLgIVy7Z/PsdMBLxIseS6rXNAfRZ9oakGKnm/rpGBKgIJSthUT2LD7wjPtpkAP2o5Uk7ikntNYrLMomvjawr3geejJjfbSP1nsagR5WKIojtDy6Yd5kJM2JNlO2pb6L6cwMj6wZcb21lCY05Zv1hvtrluFo/ziBtTWmkxq2vVYqrxx8zqgZtI6ZN3Mrpq4YafRf9YiAbuyhloT1W3eXG6TynG113WAsFrJjblvKYDg0kwMk4YijR+YlS2Xgb3btiRa3ClpkbuULWaA8ne9zGkyGgokBBAwByx5AAOjYGeDQCUKWYQ3it9uAmmbnZpo8HN5cC9YRAAE12IobBUTaCgIkUvDvSh6QZT+gBK7FDxD5kWuEVkdMQTe5VlQhn3Z6gbQQObqLeoYiLAFLTkXRunHtVqxURbe1cOzLIrT2iExxWGyqqJqPEhdxCpVulzBAQe5dx5AQQWQUfDaWBmRzK2l2l4t14w5shT8RvkkeC7KYZxccmCQ5yYxUNx0q+rMKd5U+7MCpepaqgGn693vmde1/zan+dUFsDn3rXSt+lhrGVC2h4sFm4ahstJz5+33DhCm2GNLAYQ6WT3OIkMBU9SofYo4+eoTXOgeyZRs2cMmuBYwkBRJymJb1gQcYiKkM4aAWe6SKSkPULAQCh6k2LENsby4JsQR+N+OCcwBhoByl53NPXZMyJsgVTOGwSSyTZHrwLPtjPCZGwTDYdsR94LrBCQCApI5AQqADWACOAAya6EGl+ouVmEmONbFNkzJo7hEFuGlfVEG1VoMQKh0cpTdvLd7S7XD/DPvgEeuNrJLhsdxCtR4Btqzp9/1ggDdu94Kd977dBbqr88YZtYrxpA1z5qW9WNLrE+z0O7V1KEDhNVIbYl7lgIIo7sYLC4sejS8IEJ7fKVKNTAtRHIZ2L7o0By/U7Y5LhdbQHGzyIEM+Q6OOOKIpnjR+FgB+RAwCMoDHJyy53eKH5vAqve9fAfABvbCVjAuBGlbXacc2yTFG7DGHdkKFHBbYDXUyVGvtizKnQDMcI8ACsrPGRMiqaWERueh8sQqbAmrnuxjZTu7wi4G2ys3QibFuBRqhP6iLHL6NGc4JEnPtNqWWI2UN47FCrjPb4njmOKy0YtaZwnoU9usrXvGFFcugDCNjK7r3JQt/rgOEKYo4qUAgkXOYlQTxvjO/5QpPz8WgMVtsfdHGdvLz+dPwTptjXIVfEfRojhRnyh+e5+dn44NAC6c1cC64Q6gIJ38lp0HXAOYhtClAggFGdptYMJwB9g2qQ5JisQFQeEGdDhdjy9XrIScC7YvAgjaCLxoh6yJ2AXgRTpn7QAM1hp9vFR3JfiJdSguAkiQZ2FRghSrUqxUcpRcvtNvifOY4tDeakXpz+zg0a6A7bVWiDzJyjyIYlgKeGReV7rc57W6xdbahn7/6iSgP61tYrasjy9+8YvbLrKVxsHqnjbfd3WAMMX+GwcQkknRY7KYoze5EgxIuwCkShXwx7fvlDYK1+FGAILkR3YRSJXLsscYWDApcfnXUfdOLgQWDHh0vvTNrC5+Vi87H6RhpeSleY7SlNfAiYuSLgkoxGpIUwtMcGlgFbgPtt9++xboyLfvJa+BawAHLg/lcFPYzqh+7lEO9wiAwOUhb0P8idOyAGvX5RwJPmXHX4vP0LZFAwijQMGYS6S+3+wgAQwBskV4xc0wDiCttn0pK26F0ZiG5cqt4Gy1z+/3bV0J6EMGlwPxsKgAgvW2bnXcujWcnad3gDDFvlguBiEsgkHI4k8QHyqfO4EiY5UDDrY72q7IUheUKHiRle/3D37wg02ZczGg/1lVYgy82wlh4IsbABhyLGsYAWyDHRQUCIZBXIIdCq6PpZZ8BdUvGyATBQRk1IXS9+piwuW8eCAB2HGAFGaCi2RLWl2pr3oBMwEIi5IHIUqtKsqwJtoMENaUyfOW22AlpTxNUJmATc8MC5Ao+eXqUdkLMu8MwhQXz3UsKgCBQcVVysWQpHKLNG+mIdIOEKYhxf8tI0qKJW37jKA+CrdSk1nUKe8EmEXZxg3hHlR8ciVgCUZ9oal2ovf9X3cGxPKqgV6UiGuS7VAdQkfX7XC5JzkR6kKoTsnCl7wGL8fW0AAAIABJREFUcZcAIsnUqP5hMQQK1rgD5SfgK4t0rXv9PGn3xJLOMbhAmN0hi55JcSNYtFuijVH248bdUmOu1qPOq0nHaL9uNiQQgMA4woQGIKhdBwj/10cZ79zSto7f8Y53HE5z8sknn2yRRc/6gqLrgptsYAcgcAfIaAggUJqzvH0mirVm2KtgowKHyaSw9FXkI+MjeWBDMgAjn2R8Wy3TYNwKinRglIBJAGHRgxTX2if9/i6BjSaByiBIGsclKUixs0KnHAkxSu2Mc76NXWEdIKxhtlCALOxHPepRLejPtr4tFZS3hmqe4laWfT1G1qDALHjJY5DAnWkkJol8AABbx7LrwLMyGFO51YAqZYjv4EaRO8JR2B0gTGuk9HK6BBZDAh0gTN6P1mhJ9hzmx1XcAcLksjvVldmrLvBQxD9reZYpKxOluhEocLsqZGMU4GgbIwYJiJgWzVtdJdU9UgHBKFiYpEsSpBj3BQZHXASmor+6BLoEugQigQ4QJhsLWYcdGihgXjK8DhAmk93Yq+Ljr0FQlO6s5vg2ACjWOnEETO63334tU+ILX/jCTUdET2sHQmIwIiMAqvqD833ovkmD03JqnbLC2vTz4dcwmPutXQILKoEOECbr2LDGjF1xGrbjN4BA0UmY02MQJhNkrqrKL+iLgptUyW3e06ZzdRK/JBYBQDAQbGWUFfE617nOxPnJa2BkrV2esVQgYpVPvTasxSQBYbkmgZ6Vnahui6Wkli1Ofl/quTVmItfXfq73jtt1MJ0e66V0CXQJrEUCHSBMJr0ABIy4uC6H9TWAwI8uwEse/6Sg7Ft6JhPqPF9FqcqS6OAliUQABDkVxu29ByINIFvrAi6MG9ey3LNTgjxcJy4gx0tXGUWxc8/4E5tQ2YNxQEt5dlL4LcGOghPFG3h2XCJxoXCbiKewpakm21HX7LrI+I6bSDnyO8h6KR1r2jGa5pjMZKe0n/pCF7rQpmOzPTvM0ayDxHkes73uXQKbK4EOECaTWNbeMAjO7dnEIEjPKzOfQLvVBIxNVoV+1SxJYCWAgMbPIVNyIVD6DnKSBEnqUomWpIyWVZEyTgpg90jVLPgREqWs/SZGwxZOL1kX5X2Q+tk5EAbnOc5xjvYbRUv5R4nLHWF8yg+B5TKAMV6e6wRHbhPP0B7PlnpatLIDpwAA9wMWysOUyDxpOyTQIXcDZS/RkLwRdqLINilTpXoksNK7/zEudvxom9TUtk3FTZIT9CpYmqX+7nXpEtiIEugAYbJeD2NqjeRikCV3E4NgwcUgyO7XD7GYTKDzftVKAIGlLCW08yGctUDJOnVScifjBCgAEAQ3nnDCCe17wY62yUj3LEETABDFinGwdcZ9Bh/Q4EAqMRB+o2wpc+PPmQ9AAuXvMCZK27UUv8OnnvnMZzYFTdnnfPfvfe977RAq51e4D+BILAUwAJygz9xnrJsQslICPwCNYE2ZIjEpskmG2dB+GS4BI3VyAqa8Cyg4CayADPXfZZddWoKo5IuY9/HR698lsAgS6ABhsl5cFiCwuhzjK81vBwiTCXTer1oJIHA7SK/scCaplClvWRxzbLQdDyx0iliaZsjTqWmyQVKUO++8c0scRUmzuCl350rYRgOhAgSU+9vf/vZm7TvTgYKmsAEEAMN9wCslDKwACp7nf+dQOOxKGSx+gZYyO8qsqI5AgrMmABTgQOpqZ154tlSrAIpMlBS9sySAC8rdyZA5ywIokh1SHbAnGDYZKdWNS8LvRx11VJszDosSw7HavA7zPp56/bsEZlECHSBM1itLAgR+WQCBi8FRw/Uks8mK7lfNowRWAgisbWdGSP7kT7povnpKUu4HCtjx02h/ljSwgKa3PUb6aKdCUs5yFUht6j4xD1wD3BUUtJgGjIPnXPva124WvfMFAAW0PwXOF2ZcSi2N3jeQsRUUvhgGz3ISJkXN9cF9wRVAeXMfcGFIZa0NtkOqn7gGZ0dwewA2AMX73//+5sbYa6+92vHZTt9UV8fEqiNWAbugLG1zbCygAqQAOAAT90JnEOZxNvQ6L6oEOkCYrGeXZRBQrOji3XbbrS3q/SjMyYQ6b1clUjV+c4rWLgbxAJQfiztBitwGfsMqUcQOYqIMnevgOwBCUKMUpte61rWaouUG4JpgSVPoGAVZufbYY49mhbO67bH1LJQ9YCDBEVeBeAIMBSWP0qfgxTk8+9nPbiAAOPHnJDYnRqob5sBYxSo4RpvSxyAAuTvttFNjCt7znvc0BgFY8L9TKYEb5zcAxyYGUOFwKi4R7If/HXYl5ShQoU5O1vSbMygE83IzAA9kiNlIgO+sbnOdt7Ha69slMA0JdIAwmRSXZRCe8IQnNNqUJRYraLJi+1XzIoHsPshOAkDAbgAWegAChetF6bKOndrITcCHz6IWi8DKFoMgABFd76AmYEHcASscS8C9ACBQnlwGKHxKlMVOgfu7whWu0ICGmAEWOQbB/ah+bADXQbZfUtBACgADoFD6Trd0jXre6173aoyCOihPHcUOcI+oGyAgJbYgRCBADIL2U+ZkgFXgolAmV5t4BIGRDsuyswEgAS60C/MiFsE7IEEuYiqSZKoDhHmZEb2eG0ECHSBM1svLMgi2OcpEd4Mb3GDTwjlZsf2qeZFAtgGqL4XPQqfMAQTWN6ueJe+FacguA6wAy507gQvAcc5cBgceeGDLa07RH3DAAY1dQO2/8pWvbIo8fn7uAkwDNxZ2Yd99921WO5cDFwMfv9Mt3U9Je/YxxxzTlDCg4khrqawpeC/XYBpQ/ax77VBvjACLnuI2jsVQYAvEDHAzqC8g4DnqAvgALFiKtF0Mw/7779+CMT3D0bDABVk474FbBIixhRPjJp5CHbgYLn7xi7d2AR6znFFzXsZrr2eXwDQk0AHCZFJcEiBYJJ/61Ke2I4ZZfTmJr+dCmEyw83RVDkiy28BuABa+4Do7AB7/+Mc31wDFiUpnyVOcgvYEGKL9WeiHHXZYU7jcUlgEilLcgPwBaHguAfQ+lkGQobgEClz8gLEmz7e4BBY+gPKWt7ylxTQAAD6/8Y1vbM/CaFG28jR4cUX4n8sCaHjyk5/c7jFePUe8gmcBFwACF8A+++zTdlgAC4CMIEXsAYtfzIT/ARgBku7R1h133LG5KtQx5zsk7kH9uR20QRnkAjwBM3HNqE+fO/M0K3pdF1kCHSBM1rtLAgQLNauJn5gfOMlluhU0mWDn5aokwvBOoVNw6HN5BVjt2bpoxwLLm0Jn4bP4bTXEFnAViFPhNuCWAhCuec1rNqvdHwVrV4JtiCxqIAOgADxR9oCJWAQuA8ACqHCPHQrAifgESp7L4U53ulNjIR796Ec3y919lDHL3neAjaO21THA5/DDDx+e85znNAaDkhfjQKljAIAWzAkgQKFjDrAL2gTA2KoILGBBgAzt5LogG8/3bLELGA/1xEJoI1kKYvRMLpgevzMvM6LXcyNIoAOEyXp5LEA46aSTTrZoWqTtYogfVZGznDJ4sib3q6oEagwCvzwlzLKmXKP8sAeYAbEozmbgw6fwKEUnJrKujQtKmoIEBOwwSNAjit82R6AADQ9AUMSULZYgdL3nYS/Q9dgLCpurIImZPNM2Rs8DVFwPqLDMuTqwHVwdFLvvkgqZghcT4Hvl2l1BefvO/XIwqIMyMAvAwsUudrFWBvDChQIImQcACPeBOATsBHCgXsoVt8DNIvCROwKAUD6Woscg9HnXJTA7EugAYbK+WDZIEV173etet1lZyQTXAcLygo1Ac55AQFW+n6xb1veqHJSEktfngGHSD6s3i10MATBAYYr+R8Wzwil8CtJ1fmNpSzecLIWAxm9/+9v2Z4sipf6rX/2q/bmX2yJxEMpRpmtHx1nk6R5lo/opcHR+cipwj4hbUL96DoIytdGWxhxrra3YAeAg9XcdRZ7TH7O7wy4Lbg8BkdoW4JBUz7WvE2+gB5Wrfn3urO947k/rElhJAh0grCShf/6+JECw+EkWw2pyBnTy3Xc/6vKCracS5nMV9GTdsr5XxdLXt9wEIvrlJMj5Aah+rgfKfHMAYj2YKS2KZR/r3v9hMVZTdpVUrPmUuRIoG/e80TqPlpGyO5u2vmO0P61LYJoS6ABhMmku6WJgQVIK9pJLexuranMW8cmqsFhXVVCQllWrclZbm4EgR4FtjLYMagvKXPIfTNIkfvSlrOlRWUQmuX5zZTRuHKYNk5a11FgeByzqtRUEzmp/9np1CXQJLC2BDhAmGx3LAgT56VGugr8EffUAxZWFmqC/cdbzyndvvSuiqFHv/O0SDmmLmIRDDjlkE22/1BhYTmEv16oKKDan9Us9r7p4VuqDpcqo3y8HYDpY3pwe69d2CcyOBDpAmKwvlnQx8M8CCICBLWX8qD3QamWh8rmHRifDnPg3y64ZFnEof+9f/OIXW6S+nSxyGcgSSBmu5jyBUau+KtWAKVLdXPksZeUnbqC6GZYqe7QMdRMjEdfKOIAxyk50kLDynOhXdAnMmgQ6QJisR5YFCCLXuRgkfBGgtbmL+GRVWKyrAAJKQ4peiYaABLIT1MdHnu2i/o91GmXGOs9RwqHzXefzUuCsWuDV2iXVbPOLj5/y8yyBer7zOccXU6y5Dosg54Cgw5vd7GYtSDG/q0sFE6l7lGrKTTvG9e4oXT8KEFJGqPzspqjnGeR57nU9OXmPnALSyDztzLUBRKNsiGulh86xzgEDFRSMftcBwmLN396ajSGBDhAm6+cVXQy2miV9bRbuyYremFdRMpQVal4uAdkC5RIAFGyDk1NCBL9UwOI8ohxjvbqOQnMmgaBA+/blBbA1ryrjccF9FSyoh0BDSl7AqdwGUhiL2reNEQhwOqEgVKmLRfC7n/IMyMkzKF19r8woRMpVO6OQo4jdT6EHnEwKKsMmBCQlMZctlrYc2qFADmSiTQmYDHCxRdM12mi3hOdqt+2GrpGhMe3TD+QhDbPyPZs8xFr4TlInMTcBKJO2YWOO+N7qLoH5k0AHCJP12YoAgRIR1c4K7q+VJUAxUvwsb8pGXgD74qOcKJt8HqXfKbRsiYuijRKOknIvZRzLP0yD332f3/wPbMTqrhH+YReU7dyCSrVXazmAA+MQAJPf6wFPYUl8FwVfLfyVpXbqK5SlftpBJp6hrsolY+3xHtdXZTgi39QhjAHgkrZUxoPcvRxjbYukTJF9185qeq3f0yUwHxLoAGGyfloWINgTT7lhEPouhskEGgtcBj0n+cngB1xFsdddDlH6UaoUYkBCAAAl6HuunjA4KSuKHiDRP5Ve952cBPpPmf5ndXuFWo/7Im4DMQeUqLiTgIMo29Q79crACZWvjChfz4g7YzKp/dMdghlQfrIgKlu9vUdhx40goZJ7ANjqekh9AmQi47AicY9EdmFHPEeqZkDEIUwBxN2FMGkP9uu6BOZHAh0gTNZXS8YgWDClzbUAy17XAcJkAmXZesn2Z4ugrIIBCEk9TOlQXFHU6QQJeewgkNBHgh1nAUhnzCUhxTA63EuSIKl8uQUk8JFp8OY3v3lLZOSlDtwbKHNMBneGMmTFdCzyBS5wgU2uB3S7eqmLUwi333779rv6qY/fZAJUpsyDxgHAgc6XtEg9/e575xw4vEgyIdsiN4d14g5x5oLxhhUgo5zcyEWzyy67bGInABtnL8i4KLsjN0mAw+gWxICquEgCJmocgmcBJ7Ieam8AQsBBZVUmGwX9qi6BLoFZlkAHCJP1zpIAgTUoUZIF+2EPe9gmX233xy4v2DAIYg8E9wEIaOv42HO366r/njJyaqCTBSlISp9SlMIXE7DXXnu1uAaMgP/FJjjf4Nhjjx1ufetbD3e/+92b/125fnv961/fFK5nJz7A0cl3uctdGmiQJtnzAAxHJYt5kD5YOcoXK3Hccce15wlWBQpY2Mrzp2xnKQCSzkuw6yHHIQOUObRo0vFC2dtO6aAl9SIvKZ2PPPLIBpScugiECPzUbuV6lxYZQABsBBiGFclza0Bldb/EJRHljz3RBuDM4VMBdZkgnUmYbEHpV3UJzIMEOkCYrJeWBQgWZVarbY5o3/jPJyt6Y15F8VBEXAwC4wIQIo0a6FmVFFaAvClZCli6YdeyaF3n8CMpkH3nHAEAjkJ3tLCoe4ocIKFgKfyvfOUrrd9c6x7sgYRXTkMUeJqDlYAFbAQAgCFweidrXvbEV7ziFe1MBUySerifm0I6Ywcg7b333u38BYcbvexlLxuOP/74wTHQRxxxxOBwJ24GryjpBD3mvSrfE088sZ2yaLw5tImlj4UACIAtIMUYdDKkP3ka/O8ZgAWQpM5R+FXONX5DfQLWKquAQQCAtNN5E4nNqIGhG3NE91Z3CSyeBDpAmKxPlwUIWZQdqNMTJU0uUACBUgMQKHUKf9wrAIAypFwlpGI9c018+9vfbozA17/+9aZgWcoUNMXl6GMMgOOVKTTlAwBiRdwLICjHcd2YCGACGyEID5CwI8KBSYceemhTsKxm7gSR/ZQ/N4R6O83T6YoOQWJBU8rbbLNNc0EYGz675w53uENTzg47UkfnNrDmE1CY3BA58yAKu8YLABlYBywH0EE2LHrtxG4AT67XdmAE+OHi4DpxIuTuu+/emC6vxE1kp4WxO/pSfg20zPHmgArwUwHCZD3fr+oS6BKYFwl0gDBZT3WAMJmcJr4qVumkACExC6h+CvLDH/5wYwtsRZR/4uCDD24gAIXuaGNHCYstcJoh1sH9lJl7HWPMbSFNMhcDkBAL2DXYAWWLj3C+huOOlU3R+k4MghMWuThY80AAVkIdvChlyhqIYLVjIoAUQIQF/973vrcBBLsAKHovLgh0fSz7sFABR4nH4M7g0gJguFUob0GegNNNbnKTlrTLC0ixLZOrRJtcJx7BNTmGOcqfLOLKGdeBgFO2UwJIdusATBiQDhAmHvL9wi6BuZNABwiTdVkHCJPJaeKrNgcgBBzwm8dydT+l+qY3vakxEFwN4gFQ4BgCyhk48D03gjKABv+j929xi1u0AEUK1dHFFLLy/WEDAAD0P6tbHAGQARBgAMQziCfgthDzIEDSbgHWu+scdYyF8Fkgn8+f/OQnG9vhGta8d0yIwEIgZ9tttx1ufOMbNyBiJ0YyFWb7ZtwsXB5cGspE8WNFBCCy5pUFGGijzI5cD3e+85035WEQP4AFcQ+ln4RUZAkAxNVROzGyz24NeRAADMAAAOsAYeIh3y/sEpg7CXSAMFmXdYAwmZwmvmpzAEKNQQAQXvOa1zSLnGXPcqbkpT2W+Aftj9KnxCU74iY47LDDGjjYc889W0Q/3z0mAINAMV7talcbXvrSlzZlJ5BPPMJtbnObBiQodoqc4qZUuSj4++1A4JbAFrDmX/e61zXFD2hgH4ALtL/4B2Wph6A+zwA0WPfK8L9yKXaA4m1ve1sDJ5gQrzAbrgGInv70p7e4AzsJuLT8LmDSVlvPFR8AcBx99NGtzItc5CKtnLAFcSuQDzYCgOBu8X124NROzMAPUOFiECAKOIzGIEzc+f3CLoEugbmQQAcIk3VTBwiTyWniqwiU0mE1o8hl5VsqBiG7CyhJgCCnJrKUbXfkx+d6oOQoX8qY0hOUaOsi6l+kP6s7W/W822r4oQ99qLkOKGdbEil57MNd73rXFtsgEFH2QXXk8/cZS8EdIIbBjgmWuu+AFxa6+9VD/VjcrvU9C95f3UJIYP53jdwCj33sY4cddtihxSsoI/EI2ZIpbkHd7IwQqAkocWeIOQAsdt555xZ7gOFIKuQEP9agQ6wJsLHddtu1+4CDJJ+qnVjzUfgeQMBgAGTiLzqDMPGQ7xd2CcydBDpAmKzLOkCYTE4TX5Usf3ziMik+97nPbUp03CtBcgCFF6VLoVHqFDYwUOlxvyWbIKVLGbKkAZAk/AEQAI4kBlJudkKwyt2fxEjJfKisnA0R0JKgVAMk10epJ7FT3R0QS95vScmchE6uA1q0RdxC/P6JQwiLQZH7q24CMlEXbc9nzxg9RyFsAjbCkdXyM9ii6zUOIOT6xEZ4pt0RmJUOECYe7v3CLoG5lEAHCJN1WwcIk8lp4qvi284ZDLY5LgUQ4o6IovW/z5QV5R1lSaFGKVfLuwb+ZY9/VeKjlQ4QSXpmvyelcfb5U9aUcdpRt7bWJESh9FPnAIyawli9gQ/AoNY1wCiDLydeRmm7L9R/rkm7XLNcGuckQKr5F5bKxRDmQXmeh7noAGHiod4v7BKYWwl0gDBZ13WAMJmcJr4qVjEfuFgBcQLLAYQoTgo5ys134hBQ/fIpJJCO4mRFi7gX6Z/UxpSn5EYYCxS917jAvErFBxDIf/CJT3yigYJsTQzroEz1EMuQmALvLPrKZKiP+AZuAWVwRXgF1HCHaJ/6caV4YUnET3i+9wCRbEmM0lZnQMl7WJKldiZEfql/slV2gDDx8O0XdglsCAl0gDBZN3eAMJmcJr4qAEGOAb57cQIAwlKZ+KoVLecBhSw48J3vfGeLI3jwgx/cgAYFLCZArgHBenYEoO2BCDsXZBwUjyCp0VI5KypAYDGz7il3OxIEONoxgKIHLgRFsqYFBwoK9Cy7JpTBv7/HHns0QCM48h3veEdLtmS3Bb9/sjdS6E5gtG1QEia/HXXUUU0egIKtkJ5nayTXgzZrO9cAVsEzxQZI5lRPbxznXggoSEfFfbLcNsfOIEw8rPuFXQILJYEOECbrzg4QJpPTxFcl1fJBBx3UgvnsRKDMxwGEqqAEA9oNQElKPuSMBAqckmUBs+LlJZBG+SMf+UiL7rfDQIChqHtbIAVG2gEAUIx7RWnmKGhK3ZZI4EIQozwJnklJ2+EgmRIXieBI4MAzWP6yMcq5IDAxuwakPXZehPMYACNleJfLAYAQ/JdDp9SP4veyDRIwEUshMyOg4F5t9kxbKMVxaL9X2rCcPHPUdFJZLwfOwuB0F8PEQ7xf2CUw9xLoAGGyLuwAYTI5TXxVUi3LGUCZUuRLAYSc1JhjiCUaYs0LUKSEUfOh6e0qkJuAMpWnQDS/nQhcDZQ4S98OAZY9JZuOTaxA3BTZXkhBAwWUuJwIlKntj7ZSsvDtPpCYyWmUlDMw4HfXCwCUM8B2SLsP5FNQZy4EjMZOO+3Utk3aTaBOn//851t9sB9Yg2Rt5F4ABgQF2oYJlNjaCJCQI9ChvdgYdYiiX07h1wOWovw7QJh4+PYLuwQ2hAQ6QJismztAmExOE1+V3AaseumD42IYVwB6PcGIrHqZD21vRMdjFAAHStfLjgaggMJ0XgFL33csX3EH3AGUuDwCXA1eSWVcFWSC/8QXUNyeY3ufmALKnNKnxP0BN6x3LgP3yZgozsDzWfvqzsq3zRKYya6B29/+9i1HApDE/YFB8BLnABBgLdTV6ZPKwozY0iiT4t3u9v/Zu7tX+96q/v/6Z3RSBwVJCUU32J0QKmIUEiWF8DvooILK/CARUlpRUppYIkVSaZSZn49miaXySbGEyLsKguogOys8CPob/Hx5TH/Pt+M9W2vvufb93u+5YLP2Wuua17zmdTPGa7zGuMb1/y0JnUxMyZM8L6Ci7Hyeqzg8aXcxbJ7We8G9Bx5UD+wAYdtw7gBhWz9tLnURgNAx0BS2xEYdxmS7ntwAlCYFijGgRN1DfgSpgSlyrgIKWsph2QelIcY8lLWw3QfeBTZStICAGAeKmgLHJki4BCiIPwBMsASAhy2b2kaRAwjYBQABC+FabgT3cl6EREkCK6VelgOC2wHD8V//9V9LMKJnaMeDergWuDL8ph7MA1cJJkJeCDEOWAy5G8RWdDT1DhA2T8m94N4Dew+semAHCNumxA4QtvXT5lKnAIQUpWuwCZSrVMUYAS4GAX3iEjAKXAl2RjhAidLmtpA8yGmLAAXfv7wIb3nLW5bvgAUJhb7ma77mETU/tznO3RPcGgCDuAkvbIbfJSbyG8DB6hesKOaA64RiL0ESoECR27Eh0yHAQqFzKTjTgaIvsRLQ4zo7E2SI9KxcCJ4XGMJCYAv0h2cAhJztoL65M2MHCJun5F5w74G9B3aAcKE5sAOEC3Xb8YtOAQjlGigjICXqREJWvhMTgYLv+q7vWqh2it4ZDIISKWS7A1j5rPDPfOYzi7VO6bLWZVAUHOndoUqsbi+DXd4DdXIz+E3aZPfEAKjbdVgLLhKxDZSxw524IKSDpvCBDfECUi8DKIALMOOwKb/JmgjwYAYAHApe3Q6V8pxcC5S/eAVtF/sAEHkm/6sDmMCMcFeIqyhfQgc8XXbodhfDZXtwv37vgfvZAzuDsG3cdoCwrZ82lzoFIMykPsACpShqnyJF9fP9C+hjsYs5EFtQhH57/H1G+1PmdgdInUyBYgTQ9A46ChwU8Oiz2AH3c9+yLqLwWe6UN5eG8hgBgEHiJ6yFtmij34AW2w+5D4ABoKCdF5iAGIsmmbpt5QRktBEr4Tk8V99pm4DJ2tSuBeU6NnoHCJun415w74G9Bw70wA4Qtk2LHSBs66fNpU4BCFn0KfA+lynQe4CgY5NnJH+pjF0/FWj1VRYIKHtiGRfX2QxLVDSTCmkPsEJ5F8+g7hiJdfBjGRNdF4CZVrprU+6+ByDUBQwde7X7ovfK7S6GzVNyL7j3wN4Dqx7YAcK2KbEDhG39tLnURQBCypJSlefANkOUvG2AFCiLvgh+SrXMggIL+fNR8r7rDAQ7EzoTwvdcFcqw6tuGCTCw5jEU3/iN3/jY4UmYCL9jA4odKNMj6547oq2b6sMgcFdIlITJkP9BHME8M6HtljN18+ZOvaaCu4vhmjp2r3bvgTveAztA2DZAO0DY1k+bS50CEEqqlGWNJXDMMupezgO+eYGHAhdtaaSw5SFQzp8dD74TCJjitY1QMCHF7k8WQpkX5RmgtMU0SIUsbkBwIPBg10DgBACxrVACI7ENtjYKHnQi5P/8z/8ssREAgt0S8iEAKeJKI5JqAAAgAElEQVQcABHBjH/+53++ABUxCX6PBSlpUc+6uUOvseAOEK6xc/eq9x64wz2wA4Rtg7MDhG39tLnUKQAhBdW7nQiORRaQ9y3f8i1LoiAsAiX/1FNPLYpZGcF9ghXtEqCA5RoQ3CdwEQiwBRFQEIOANZDFEADADNgRYJeDrYWf/vSnl2sEHwIiAhJf/vKXL4DEdfIgyM0AVNil8G3f9m1LjgKBiJIrAR0YD9sjf+RHfmSJaxCLoO3AgjYBNh2dXDDmsbMRNnfyFRXcAcIVdeRezd4D96wHdoCwbcB2gLCtnzaXOgUglJ9A5ZS/lMeyCVLkPjv4SB4BFr0tgdIoe6fYJVQS4S9AkYvArgNnNXBPyHjoN4rZH3cA6l8qZbsbsABYBbsRBDPaWaA+uQ4EJAIMMhe+8Y1vXMCALYhcEdweAIhr7VjwvWyJH/zgB5dAQ7shBDEKXLQFU/4EbXL/qYx3gLB5Ou0F9x7Ye+AaemAHCNs6dQcI2/ppc6l2JjigyIFEcgsUQ3AosK64AQMhx4DzDrxc833f932LO8D3shByO9hB8P73v//RgUbuwefv5RAl4OC9733v8z70oQ8tlrw/rgZnPMhdoH712noIcLzgBS9YAIldCxIjOfJY/YCJREqxGuqzIwJr8KlPfWoBBp6VO8NBT1wSdjqIRQBugA4v2xwFL3Zc81lnKWzu5CsqeIhB+PznP79sFY31OC+98xU1Za9m74G9B26wB3aAsK2zd4CwrZ82lyqugHUuCBBNz6o/ZDWXIInydECTmABxBXz3zlSgjMUIdCriS17ykuW0R6ccSmLEjSBIEUjgHpAYiXuCoscGCEwELCg5dbkWKyHOwRkKtjBS7O7HTYGNcD+gRFyCGAifgQxgQXZEWRYxHVJJYyLkLlDf13/91z/vu7/7u5d7iGMAFrwAEjEVXibbjEXY3KnXVPAQQOC28dwAmt93gHBNnb9Xu/fALfbADhC2df4OELb10+ZSOhQrQIHKKOg8AhZ6WxdnRSko5QUASl70gQ98YFGurG4Ag6XPmpVxUJZECl+8wGte85oFdAgSpMT/6q/+atlFADyICRAPIC7Ajga0vyyMzzzzzKL4sQyYCEmZxBt4uTcmwNHL7kWRewY7FNxT8KE6AAQMhTMSsAOyHapHxkXXeV4BlFJCU7LAEQAUQAKK7gpIOAQQuFSkdtbuHSBsnvZ7wb0H7lUP7ABh23DtAGFbP20upUNtMcQgULgi/FnohxiEygIIdgFQrBQ/V4DTEQX8iS+QWtn5Bmh7yYwc94xpoKBd4zNFj1Hg7/+Zn/mZpb4f+qEfWu7regcosfa5F5wMKSZB4KPYBacnvu9971uYCPcXbwDUiDXgYgBe/OY6IESgIzAgu6LdENgLQY8CGD0vlwfXijoKTPSsgAJ2wTNcRR6DzYNypOAhgPDZz352YRCmi0G5uxI3cdln3q/fe2DvgS+zmVhWO7TIZzFYkszta/3x2bEDhCteLbkYuADQ7RQmxX1IIZb2WBNY1YACxV8dPnMTUOYYBTEGlK8UxJgBlr0XFkEMgZedBoIFHeJkFwF2QVCj7/nXKXYsAqUvLsEEoAy5OIANbfWdnQ7aJH7BjgmMg8yO/jASghntVNCud73rXUssggBKdapHQKT2laRJ2wrKvMsMgq2dGIQ9BuGKF8Ze3d4Dd6gHdoCwbTB2gLCtnzaXKvMhi1owH4DAz3+MQbCNkZItvfDc2VBg38x+uE45PBVv6Yl9V2Il/7Pa3UPwIGbBvbzUW33da51J0QSRTTHXgN+bNOpSt8/VOxM0dU33KUDRvdav6pzfb2UZDl1bPWfVMRkEfcN1AkwBCMDN7mLYPO33gg+sB5r7cw2c94inlK2uU645peyWtu4Mwnm99GWmxQubzXjFYj//ueeee47AdLwvOli0u/dDgv38WzxZJShIihBA4GYQuCfo75gSS0lNxTvTC+u9jjj2/1RqPq9TEEeRzXq7rvKNyAQj63seKuO75oAETZgE+RL467EGs44yJ66/mxQediI3C1bEDgj9YO6h/eywKGOjctgTbfZbz+I7sRrt5Ajg6DNBlIInzd31y3O0g8T/mBbsAZfOO97xjkdMSvfZXQxP1jp+0p7W+up0WTuwsJ+2Ltu9xD3JlSgeSdC1lzWfbPIuBupP/uRPnvdjP/Zjy3WMECxnadp9tr5R+da0IGzrViyTQ98EYCdflLONWgyTmCdrnouTuxMTKuYJw0d+fPGLX1zkgUPrrGGsqXuSJ9pLDth9RVYpj0FlLHlWZ8HsLoazZ/oOEK5YEpTKGOISEU+xPBTlYrJ4LrEM4iTEOKTAt3ZjAAFwAAQCRp3LMC1+C33NbLi+uIaUN7BS/okJgtQFHBzr/2mRuL865HngynHvGJkYl63PuJfbe+C+9YC5T8EKbhacTHlTxmJyuCTlVZFN1W4n7kyB0MoAAYA2cCAWSpI2cUrWDFcnV6Wy1hMFjVHlsrTziXwUpwV0AACYVrFW4q/ENQEBjFQsK5eoIG1xAm9/+9sXw8T1wIz6BXMDFmKfrHd1YgTdl7tTnYK7BWozPKz9HSCcP0t3gHB+H51UovgBC2T+v5UuP+lmt1DYrgW7IwQk2tkAIBR4uLU5KeZ5OuNkM9TTxMy94jv3SVkDDq7xIhByY7RbZDIth/q+3wMUjVWAJJdPVs1DGb+tY7SXe3J6INBN2WMOBOnageX4d0reke4CnbF0FDdFLpEagMD9KMsqxYstBbCBAnUKdpZMDQugTlY8phEbIYbJ+mcksOiBEwnaJIoDBgRai72SxbWssNoAvAMs7sGFGwPxN3/zN4tsEEBNFqDCbelWxq4wsoO8srUbi6CMDLNyywim3oMUD8/3HSBcsRzI6swt0PtDUTBQu4VMENj5YKFPq31Ld659iZ3XkLL3PgFDk7T3GAHX5SbIldGZFOcBhO4x21IdvguA9N3uXtsysnuZ+9gDAQTKm5uNFS5NO/qdFU5pf+xjH1sUN3pfrhU7n6xR3/mdP9+ZMHKeyM0icBrDmHtVynYJ37ACGAHvdmFZv0AIBkGCNuwEtwGAoA5nuqjT/9gGmV/lZJHrRcZWblwuEOyGNnNxADfay3WhXT/4gz+4gBnAxM6rdlepzy6uHSAcn7U7QLjiFZ1VPBVUlPhDAAloRP5DNKJkS3yRHfO8tSubdDM3REIK0u8UyJRzfTqBQSxDLELgQtlA2VlKvSOrYwzWIGeyE6cCoK39sJfbe+Au9IC57u+///u/lxwp/Pf89iz3j3/840tcjngevzsHxg4pIMI1so5KnCaoV/ZV7IJ4BNY5+h8LYR0LcBPb8+IXv3jJ1QIEYB+9gASA4emnn17iCTAZMrVS8mIKvIAXjIQ/MuI3f/M3l7gFzIPdU9gDrka/cUEAMUCGe6sb0+H/ktZpuzYCQTtA2AHCja3DdRChG6fgbqwRqxulDFOqAZWpqLe2jYUBIKDpMAiCgyzO6tpSzzHK/9C1M0Azd8MMzJxWfyChMSje4Vib/K7+9bbLwErg4SEAu/PGJUC0ju9Yz5UdLJ3Xk1fze+Mx53rM1mXv0O6i9diKLbI9m9IVC2Bt+A6tz6WAhhf0CxxQ3AAApc4yF1Ao4yqrngVfoKEzWawvLgZKH+0vFkA8QvlhrDNluADEDHFFAAlOrlWWpY+51C5bqzEKDoF7xStesbgXGSjNW7EIWAeJ2nItqL+Yp5mDZd/FcP5M2hmE8/voXpYoaM+7BSuPwaTqLwIOXGNREQx8i3IfAAhTiF1nZ61dE2fda26/PKvcKXVe57PdZt0pHlZaUeFoYHQvq4yALfL7SQBLtzkWE4Ch7ylAlrzxEAOAsr/MGLjW2uj490B131PMAgPR+Ch6gAELwPKndKVOd+Is69sOB+1xfotYAkCChS52QCyDeAAn0XoGAOG3f/u3l7owEVwGQAFA4XeAgTuDvLLVGMsg3kl9WAlJ29wT4GDxC1bUPiAjWaYNQAx55165GwsUn2s9WbbvYjh7tu8A4balwTXdP4BA6EPuKD7CPgSdFTEp+i1Nicaz6AIHM+fCljquu0wMgPucym5cd9vuYv0JzgR1OzjQxgWSNZ/Qtfvr+nsAKLN29btx8N76vczdsXBerGs0vURsjb/fgAcMgZ0Gv/u7v7tY44ICKWbM4U/+5E8uMQcUOoVsffH7S7QmBkFdAgMFDTIk3MdzUP7SsVPIjAzxAq71J2YBAJJmnivD/xgISl7swJvf/OaFPZCf5Kd+6qeWbLCuk7StXVAADveDZ+IesbMhJjGgMPttBwjbZtEOELb1070slVD5pV/6pWVxWuhQPsUe/Z7Pf6tVUhAmi5JA8ZnSSPDcZkdNynQdQ3Cb7boP99ZflBKhbzz1JcFKuLMGUc1f/dVf/bwf/uEfXiza/XX9PZBrEmAzFhTnZbZMG2Pb/bgFBBnbzii+oORujTkGgRL3ji140YtetFjqchO87nWve95P/MRPPJYhVQp2vwMWGAhK2tkudhhwVWABMAhAhziEX/u1X1u2S7/2ta9dtiGKZZKzACOBtSqOyGe7DhwSZw5iFNSNzZgJ3xoJoAXTwP0AaBTjVDbXKeN2gLBt/u4AYVs/3btSWdEWza/8yq8sdJ8/UbtF6E/0vfUBEybqLzgxP/7WOq6z3KH4hOu830Oou7mi74r56DuA4c/+7M8WYS4qXQAYWnl/XW8PtIvHmMwdPVuB/KHWGVtBxkAegECB24IYMCgmx44CcoMbkUIXf2BbIdcAQIF1mACchc/oABy4F5xKy5p3rXgB8oaip7ztPrDzACvif8BAOXMKMyG/QVvEzT27E9QpzwJQQJZpV6Bp9oc2td25Ovp9Dax2gLBt/u4AYVs/3btSmIEsQFYAuo9/zhbFNZI+RehUrw4JYFzGqrnKjo0qnb7GGXR3lfd6aHUl8BMIni+GCLVLMDvp019Z9B5aH9yl51nHCF1FrEy5AND0tiliEPjys7RnwG//cx3YbVAgYN/HblD+wACFTelT6nYMYDvsLki2xH6ox7WYqVwnrhfkiLlaZ5Q1L5XnXvECRJI9h+SP8qWWV24HCJeb1TtAuFz/3dmro9UsRElDsAcAgiRHLZxpmZzyIFMRz0V4Sh3XVXZnEC7es41r88Jngpkv+o1vfOMCDlh5HRI2Lc+uTdlQFJNlSpgncGYQaUJ8Kp/pLmq7ahYuZUOhzF0mxUgUD8MC7oyTuZWVsqHMnsSXPmeJCy7+hm/4hsWStyth5vzIqOiI9sZhvX2bhZ57MvfUeidMMQDqKLW5Mvq/OTYZq9yeM+lZYGC9fbl5NIHUBDium+O+MwgXm/E7QLhYv935qxpYAl4MAjoRQBBotL/2HtjSA4Q4RYt9EsFun/tb3/rWZY95ikMZNDH6WNIs1iDr1NY3OyKk5o02ds+UiKBZddgu11kZ//u//7uwFnze+ZAJdgFq5rFodr5re/Nf/vKXL9R3imAmzAJO/vqv/3pJqsN/7Tqv1sTcFrelHx5KGQqdDAD0ZCgUl6SfKfu2AupHgYG2GsqWamyMrXnA95/VP40MY6486t9OA3XIk1JAdK6r+p+rQiyELY/mxlTsxtv4aY97dq20yNgOux5iBXODYTncV36G4mfMF4GQ2mS81yzp7mLYNqt3gLCtn+5dqR0g3Lshu1MNTvjGIAhYE4wmx72AtHnC6Ac/+MEFOFA6gttEkNuqJpLdwT2Ag+1x/NGU0bPPPrsoKRnuyotvG64tdbawCYYj7LMu/SawzbY2YERyHowYIJH1S6kAEtpFKfCDAyHa/dKXvnQBLOhpQboUVzT0Ke61OzVAF2iMZ7Yl0TkI+kTgoP4uD0iK+pd/+ZeXbY4lQpN9UL+6Vh/GAKR47VAQQPizP/uzC9skUNF8EFeQ5d5YaoPUzJgoOyLEIQAdMRKSNBk7WzoxRWIexEkITsRi2TZp/jWG3Bnmg1TP3/M937OAinbemLvaZNfDDhAuMGEGqN5Pc7xY/93Zq3aAcGeH5t40jKVGSLM0bXfDRMnFT0lE6RO8f/mXf7kocBHukmehr6XPpSgoCUpccCOLXzQ6xa0OgXIUFeXgOttx5cYHHiiuXAqEPiZArn+WKiCAHndgGBcahUXplEEPw5FfmyuCUvroRz+6ABTtF1mf++HeDMYVNFQ/CDiVLtlBTGJLpDuO/qdQ9RPw5WVrI/aFcsYKYR/VgXWguANkghSNtfrsZMDccGMAB8ZCWYyOOWFrogRIEhoBjuaAOm1rBBi1yxzALmAajB8AYRcNtslcAXCUNfdkcTQ/3QOANe7axZXiuQqy3F0MF5tAO4NwsX6781ftAOHOD9GdbyAQQPCjpVl8QAIQMGMQPASAQKlTNqx9NDBljBaWmvepp55aUvgCBSXJoYRYf4CFqHl73gl8WykxA6985SsXK9F2OayBKHiKyamClIxI/AAExcWC5XqgWOT9R0fbeYHdQJm7h8+syTL4PWmndFLErP2f//mfXxQqpkY/BfaMV7/payAMaDAmGCDj/q53vWtR1MpxEwBvFHTKGIgEAoE5Svk7v/M7l/KYHMGtMrB+4QtfWIChMTEH7FLwm10Q2AJ5FbBAlD23k5dcCQCFcoIruT+wDACA31i4GAngTz4FTBewAagAIetTZ3cXwzbxswOEbf1070rtAOHeDdmda7A5RPiyDN/0pjct1jeg0C6GFMs//uM/Lsf4SpDDZYApoLRRv5S2XTTcDoS+10c+8pGFLgYC7Hun/AXPslhZsKhvjMFrXvOaRXl81Vd91eKXFgvBkvS92Aaf1c/CleNDOl7UNsUkMNd30vTagQEkaA+AUJDik3IA1wwMZVkDcwACZS9nQHEhwJffACkATypjoA3lL/4AwAD2KFvgAjhQt7EXAwDkUcwyQBpz7BGwaOwwRMCAA5kADvMJa0DBS6cMMDpbASiwywLb4N5ApeOajZm2i4Nxv85x4JIAGORYMA+ASa4Qri1MhjnpGgB1goQdIGwTNztA2NZP967UDhDu3ZDdqQabP9wLAAIB/Bu/8RtLDg3KltAvqI3SIPx9jy1ACWMAKHUWIjDBMuUOYEUS+sABhc3CwxK8+tWvXpS5Ogn6f/qnf1r23b/qVa96lBCHtUj5oKpZhTLyYS4oKoqJAgEsKC1+bUFyAtZ8ZlGycj0DZVOQ20NmENpBYFLlKjJW+gII4AYSLwAg6Cd9YZwwBeI0jJfffTamFDFa3xgYf++YAgyT2BHXA2DmAbCgDnPHSYvGEXh797vfvYy/WBJMDyCH+XnLW96yMAKBO/VgrZQFOGVGlL9BMCIWAyuBKXAPcS6AgS2VdmQAI9oJbGAfuLMABWMPjBZn4X0/i+F8kbMDhPP76F6W2AHCvRy2O9PoFKudCJ/97GcXqp8/mmJmXQoWI5TFALAwCWBKQpZFFD6rEF3MBy0KHuUsRoDFz8KTa1/wm+BBCqq99AS8fP2USKd6UmxYCvQ15QSI2FWhbVgEVLiYAsqPUmApyvXP1y2pD8UCYAAWUv+W2OshMwitf8GF3AROWNTnxgJjA8BhbYwlcMY9xGUgPuEHfuAHlrHFHAFf5gJAgFH43Oc+twA7aZX1aYm0KGHAj/Vv94B34NB8oOABNAe9AQbGp1TSrqPksUdYBWPV8cxcScbP3ABEzCEsB4aCOwIQNf7AJjcGkOiMCX/mpbr0AzZKAG27ZQIJO0A4X9zsAOH8PrqXJXaAcC+H7c40mnDFGPz93//9EsE+U3ITwChhFhxBzPITYIgORuVS4kADIY4J8D9hDkSoix+c5W/rLatPtjy/ARTFKhDmnaNB0QMXFB1QwbLFEFBEjgQWbe9aFqv2sExZq5QHC5J16jtKiTVsbXSAz53p8CtuyHQrAFSOPmbFU7Tt4Kg/9L1TEgEIAOHHf/zHF5DHTQMktL1U4KiYEQCCqwYI1N8YBGNojCh5TEQBg+rEEOhvdD8mgGvB/+o1jn4Tk+BPea4n74CF+wCnwAhwAcS4l3EHNNxL4KWTJLkVtMnYi3XxzJgS9Rj3ci8UsLgDhPMn3Q4Qzu+je1liBwj3ctjuTKNZjRQxfy/F24v1JeUyQMAKpWwoGEKZAmH9C3ADAAh3ylnMAetPhDvhzA+NFhb0SEGIE6DMXSeCnVUJOPBVUwCsXwqLL9k9WbEi1dHQymindvFxl2SH+4HVCsgANACPa7RDO0vydGc6/IobkovBc1Li+oPyN5aAVs+PDQDUADnKFzjAKmBkuHoALMqXUvfZGIovEJPAmle3Y5qBOHOCG0k9GCZjRYlz6xi/3B3qwTD4w0iVKZH7AJiR4wKQEdCofdwQXCHiH4AR8QnmBIBhXLFJAhEFN5q3WA/BssAKFgPQxIjkFtMO/WMnxX6a49kTbwcIV7ww70p1O0C4KyNxP9th/vz7v//7QkOzygABSkUkOeVOsHYENGHNR/2yl71sCUQUKCYOgHBnwfFVo3hZdACCOAJ1EPoEOOVCuXtxN7D0MA621rF6KRsKoCQ9DvER3CZGgj/djobPf/7zy1ZHCgY1DWSgot3DPSlFysS+eCCmTIH3c3S2tTqL2TsFD7ABXKVLZ1Vzu1CwXgJC/U9BAwlABcBA0QMRxlHgIRah5FP6lgUveBQ4ACh9Z+tjQamUNtDQWQlyZIgXARykfje/jKlxMV9cCyxyOwB0GAjWPsYKmMQccUsAh8bUzhrzyI4M42znCkDQVknJmLAhJfjSDn/q2gHCDhC2raYHVmoHCLc3oPX9PNBmWuD9X7mzWjpTDt/0E7E2WWFoZi/+5jLwoW2zyGaKXeVYlXzdWADuBsqBJUno5/f/13/91+V3fuOy5c3UuPpGPd0jdwPlA0xQEMAKpUHRdcpomfhK4lMfexYghitiuhm29ql62rVxX2IXyi6pT4ApljVg5v8CALE5xtLL97YgAgdA1gxEFXAKcAle5O8HMoyde4gtwAoAk6h/1r9dK+IP3Eed8hWo3zWupcgbe2XMLTsrBCCKH6HszRljTeG7D9cD9gBQAWSMf7kb/A4UAkJAJtZIe32vTmDBuMceeN8ZhPNn/84gnN9H97LEDhBuZ9gmtUsQ9poWqzJT8fd5/b1rlZuR1zeV+U9bCFdZD21749MlsFnsLDYKeCafab7N9s3nuanROAS6Uu6zbae6GDrFtDEp0PGuHFS27t8ZpNg5GIJNMSjAGcDFZcOFMOfZlnGac9z/wJe5TmFT6JR9bpwJjOcZC43F+gyN5nv92g4M/Q20ABm+AwLWsSTtTtkyJq7dYxDOH+0dIJzfR/eyxA4QbnfYCLQoXoIxa2kqsBS/ls7DjNYgIAv7pp9IWwEDvl1+YJYmH7A0yFliaxCwBj432eZD4CmFE71dn+vvrdscPeM85rzMg9OnfZPPufVenjFmxfO3k8O2VNY9RoHVv4XJmvecoHVm1AxopLjrs/q5dMsd/FT71KEvC4R1fX0bGEnpVzfmoF0urZ/q2dI/O0DY0ktfOb9kT7W8rb/uTakdINzeUE2L1TY+/lmWT4fiTDCQgvU7gQdIEKAJS9H8CdSo/Jt4Mvfi341FQBPbckah8EPXlpRFgGG6Vfx2k21OQdW/7p2C9Jv+FenOteF1CkBou6CAPBH2ZZO86efbOvYpUuVrI8tenIYgT0GDgk358S/CIEwGZoKE5mouIfPYfUtOpV0+B3rtfPE/ha+PMQP6NvlVvACWIveRuv0v5oX7YLZlC3vQXN0ZhPNn084gnN9H97LEDhBub9im8hTAZ/++veb8qgRlBwzFMBgrfldgQLAVIUsgovH5TTsYKWvqpp7MfbXR+Qf8wPz9Iss9Q8Amqz0w4JqUcYr6ptqb4C9GQFs69hwTwn9tr75gPc+1FSCkZAVTcreg0gXPpRhv8vlOudek8TvBkl/eQUzAniBSfZUy38okTBdDcSPTpREQBg4AX+9lMeSCkNfA3BC8KJARINC3pVPGbsQO6GOxKECZ91gJjBZmSz6GyeRsjQ/ZGYRtM2kHCNv66d6V2gHC7Q1ZypNyQueKAJcLgLUzLZws3ADDjDWY1nDlOnXvpp6MMC4Hgm1jlEqBZ/l7U56Tdq59NxUvcaw/UmTeRe+Ln5CmuRTCW5WJ+vWFADgAQXS97Zh3fSdEQZ4BNeNhPLFaIvpT2qfmhAjYrvt9Mkb9v2bLcs907QxMbU7VTqAmNk75dl9gIIADux4AhACrZysZ0nlrZAcI5/XQl3/fAcK2frp3pXaAcDtDNq18Ag9AsK3PVi3R4flalZsKf7IJh5Rti3UK0YBI95w+2Py4uSuKgZgKfVrcUb7TZVAcxfRltzsgyzy2pOeZ30/FtKb6U7rKdO/u1z3mCEYvHwJT1a0NFERzv/5Rj+Q6jjGW+hdAOFW5e051OI+Cm0JioVPruOkZWT/MWJf6OqB6ERA3+3X9THNOBnInMzHbcqg/1m11bW4L/2s34COJl+OdJdYKSKhvdzFc7SzbAcLV9uedqW0HCLczFNNq1QIAQSY4yYTy97KEbAXzio4l5AhCW7hsDeQnnzQ+ahbVTymxoCgs1Cy6m9/WtdHIqFsZ62xJs1/dfm91cQ9kYRXr0DxRZ5S7a20HxBgQ2NobAJj0cdvoPAehre78wZVvFKLjs1arV5yDdtcXtqqJd5Bgyf0DEO6lTnvm7YOXoz9qub5kFdePuRAaD9fZCy+Fs4OeJhDaMlPUh57nopAKuDq2KqQt99jLHO6BGeMQULQDA4Mgt0YA4RSwszMI22bbDhC29dO9K7UDhNsZsmMAQT4ByrrfbTWTEMZ3EtHIhS9JjMNuZBdEYVP8grgof7EMtqQVzEVZSQCjnGQ2WeTOIpCbniKT7U5Qoa1t2AtWF2Hqewq3tLsS5EhuVFvQ6I7OlfOA4ketS7lsb7k4Csq55DbarE7Bb97tdPA89rRrH2DDPZEiBXyKq5DcCLOinBgB9XeIkDY7N0FAZEGR2uiYYbYyvyoAACAASURBVAoD2AFc/EnopH6pfvXj9L1nkXIx/NzP/dziIsAAnKJMYlqAF0mCKCd96HWKm+J2ZuT9v2uBivU1MOuArx0gXP/Y7gDh+vv4Vu6wA4Rb6fZHAKD+j0EAEDAIFJkgLUfX+qNoWMyCFFntlB1FyddP8UuByzKnzAVySTokxbAIbJno5MW37RCboG5shSRCsuDFRPhMaROoFDx6nOJ++umnF8VPQfNHy3DHpysznnMUMAlOwKPsnernGGepdlG7f/d3f7cEX7KkPatnAWYE7znNzzMAO+r17j6yK8rR736Evu/EBaD9BZ1pI2ZDVj3pfWVFRCEDNkCKhE0Uvex3fvcCMhwkJPOiLH4y6OVeyW0DDNimJWsgi1OfXUSxAwhve9vbliRAsjx2n9uZaU/OXSeD4KkFPkobjWWSrnlnEK5vLuwA4fr69lZr3gHC7XT/MQaB8qJsCTtZ51jCKHEBY9gAypElX6AVRW6fugxwgIE/mQC5GQAEWQmBCyyDMwYoPgwAxc+6xwB4B0pY8JQiVgFt3zYy2e1k1sNCYAsocDS8NMaCwLAWFKF0uAIsRf8LuOS6oKiVdZ4CN4c6ABKMAOAgk6Ky/P3OSgBcMCYAT2wCgKAfpFHmBgGEuByAIWXqA+/66ROf+MTiXnAGgHYDVfrVSY+UdqcTer5cCCkXIAxAAID0xUVcDAACkMJNgUXx2l0M17/OinNxp4IfzS3uLkB2BwjXNwY7QLi+vr3VmneAcDvdf1YMgi1dKHHWtjPvKX3Uv5iBfNxarQxanfUs6h6tTQlyS7DSbQfDNkh/y1KnwLENWeaU6I/+6I8uv2MXKFa0usN00Pusei9K9l3vetdifVPkFDglCzg4WY9V73v1Yw1e8pKXLAcgATpABytO/n1AB+1OYAMmhDdl7xkBDCwKFgNAoeyz3rEgaH8pb4EM17sXN4mETMCDoEDtpYg9DxcB5QzAOOYZCNJG7QECnPboeF/3n8l1uDDc3/P5vYC3rbNEeVvtnCGABfEc522TXEf7z5iS1ue8f22a1x0KXj10TW6Qubtkfb/52/q5U7zTPVP/dR3wOgMCZ0BhzzP7tfuv2xs4O5RZsbKzf7pPMS8+Y7+sA+N9FQDBfCs/xqnup61z6D6W2wHCfRy1DW3eAcKGTrqGIscAAhqcYvXCBLC8WeFOxmNdAwQodfQ6heiAIlYxP7y4A6cjqsOLYCTEJLuRkx6Q8FKukw6xD2h5hxWxuLkJJMYBHhxuBChQ8Kx4dbkfoOLe4gkIS/f53u/93kcR4w7xYUFjOyhkyh14AUy4AShoeRz4iO0Y0H4Mx5/+6Z8uKZu5WQAiipXSwQpwPzj6155830t+43wATAIwhF3gEsE8/P7v//4CPjAnAAUQQFkDS9oDkABhgIU2tQYoOn0DIIldkNM/a3TLFFCP9hofAAHTItbhWCbF7juVu/tMX/oELyngAitTnOWUKGkW90vWdMGb7lWUf/eYgaLKpVhziYgrKUh1KvwJIGp7fae869TRoVnrnRB+k63R7/PsjAkkShjm9wDHdAUFHltHkzWYfebIcPP1KgCCtNAAAtB3yrzYMnfue5kdINz3ETzS/h0g3M7AHgMIrHP+ccKQkqPM5JYXlMcKBhRY7Kxiygdg4F/ln0e5AwLiCggzlmzZ6UTUC85D7xO+n/zkJxcFC3RwL7DGKUVWOktb3AKrXiAj1kE8BKGsLGVOYVP6XAZcFwCFcgBAAYTcG9whAQSfYxDkCABmKG7xBYAIgKA93AGUeWyANrz+9a9fDtmh2EuEA5wAM88888zSBn5/fUU5iznQDvV4HiDC9kMMCzYFs1CinRSTd3UDCJ79MgBBX+diOJY/wBxozz73EaZoKuquoyD1r/7n4qE0PcsXv/jFxb9uPLhRnKEAKAFmxr1dH+YScOAewJzrgUb388wAqc/a4zrxLeagPtP3+kRcSq+AyFSSbVV1PQCoDmDSPDQHzK+CaTFJ3FLmbu6v2AJ1K+t0TuDNfPVSrzloDgGxE7BMgDdBkO+vAiBwg4ln0RYBwOZPIOp2pMfdu+sOEO7emFxJi3aAcCXdeHIlZ7kYCE6/o+kpeYKSkpAngYVGwFOWlC1hTFFiGrACFDdBTBHw11OorH3CldIXREj4s/5tqaQ0WN2EIIFOQYsdkNHRZyfyUc4f//jHF+uakAQS3vrWty6+eta/7IksezQ/gCN2Qt0UNKv/3e9+96L0sQasasrI9ZgC7cdQYB2U+8AHPrBQ/GIZPGNAyG/a6pmxHfpCLAWXBoDgXu5pB0OMgzgCyghDAnxgJcRHEPDcJXMrZevgMgDBJFAPxZsbRjDmMWuz5FKUmn73TCxrY66vxJHoK31OQXKZCP5UHggCFAFICt5YA4rmDHcRhSvOxFhgTTAtAjD1KRBF0ZoTgAZ3zKte9aoFrACO+tGY6FMsEgZG7ArwUTCsPtZ+/eV5WelAn5c2aRsWCYg1nuaX+1LsQCRwaV4CruaTcfSswAHXGvBovprvgJB+0X4uMXNdXevXOnfDVQEEwbQAAjYKQIhB2ONKvjICO0A4WQXcjwt2gHA743QMIFCkAgQJX9Y8QUwAo//tFqAcxRsQwhQ4CxmAoAgJZMrE91wCdhlQyKxOAvsjH/nIwjSwjlm4hC9By4XBby9FsutR5NrHsqdIKSXxAQQ49oFyQdmqg3XuXuIOKALxAu985zuXTgV0KA4Kiz+fstImCodSougIXBaubY+sTgqeEnIPz60fKBmAgpLgymB1eh6CmpUPPGgbBsEzqYf1jk2JWeFeUQ8lSlmybAGhtXV/WYDgWShhSozy89xR+euZlkvCM7rGWRx2iAB6AIJ2AjUUtXGnML1TmBSle+kPgNGYmjuUu7HQDwBCAZ7AhR0d+siY2eXCLeV3oNF4YmGAQaANs6MOyhqgNHbYK/PJ/Vj4gAyFDtwApJgrrIN5YR5wH2kvIGkeeBYsB6ZK/AqFC/gAl8bXGHIxmSPcD4JEMSSAqQDWj370o0tgLNaoXBr1afEA18EgWB9AjTERi+OZvHaAsAOE29EeN3jXHSDcYGePWx0DCKL7U6wUHKuJv50yJKy9KNwPf/jDi8IjtFjEgII6WcgsQdeyfMQq+I1ipzgJfQyDw4RYdQQqpSzegdWuDgCBoqDgCF6CnyKguAEJAIDS6EUZYBIACYJbfahp99Ruln6+5Ch1n1mTHa6jLm0p7mBagxgKz4spAVhQzJgSAIIypDiAG2mqCW1gSttZpcq6B+ucQlUHRUjgi2zXF1n+rr0sQPAM+k98A0VsH35xAOuZVpyAa7gIgAqgEOPBnQDEUPIldgLSKFX9rV7sBLeT8p7FrhVzwnwxD1jmQAbAyLoXUCq4kwsC2AK0sAtPPfXUonQBPGxML3NFH7L0zQGBmwCC/Bv6mOI0J8w1gbFAhXGztRWwNU+5nczBz3zmM0tfm2fec1/pb2yL+7sWYAFQMEd25mCZnI0hrgajwpLnHjKu9esMFrwOgICdOcQg7EGKDxwgJKSLzDXhOmo0dB9K9P1EjTNyt+x0KVvlZpBQAqh84vO3goe8T+Ho87Q8as889CQhmv8uP2DDNoN6jqHdHSDcLkDo7ihwND4LkAA3XhQ664kFaZxEZBPolACWwcvYUxoUH5+6F8VMSFMCFMI6SC4QAECU/bDAM7+JByD4KSbfE+LaQ7CjpSkHliJw4l7apM0FEBY815ydPawtrSXfN+crOz/7XXlAQBuwG9pGabK2tU/OBRY3JUaZKU9Be37t7XRA/TTbxaIugHDKgYIU0ems//p46yzxbNqLQkfPs9IBoUPrbwYnugZjw7IXb+AZAYQO4gK0WP/6RxCmnSVACEDh2TAl7plrRt0YBcq1uBauCLEZWAcgw7s5hj1wPTYHyACozCVt0U/G3HgDf/JZABIYjz/4gz9YwBYFisnxu3lpLpt7gAcQYiwwAMAB9gCoo+A9r/nDLQL4YcLcSwwIVsj17ov5srsGq2TcPa9nLUtmQZ0FVCanfY+NuIogRQGwBSnuuxj+72pIp5EN5hED4/nPPffccygiW5hMDhPW+0WSi2xdgFdVLgWcgkxIJBBmxHB54yvTtqWEWpZPdGVBQSHM9UEjgQF9N0FDwtH1pYKdfVlbAzQNSgsioDC/7zmPHeCzA4SrmlGn1bOeb9gBVhoGgQCaEd3VLAjR2BKE/iY9rr7mqfLmlleR5POMgwBsc4LyLf3yjA5v/k5Ld0adT1DRGggM1/6UciC6NjaHOzNhWoPrCPx1z6qjKHftLmiudel633Ui5taR0YdzF0MA4RQqWR2UpxwPrGLW+7FdDJ0p4RoAwemJrGRWtNgNgYGYAgyB5wWCgDDK1j18x90gUBQw4EZBwVOylLe5BGzINollophZ5AAnUEcpu158ATADoGKB/K+MmBIxLAAXgKJvMDVArLa71jPGApjD3FkYJM+D0cGGYZwwAurhSgK+BC4WkGg8xbwAHsCe+4o38axiYDAfns/8B3gwDFgEYCNZmdyOQTC/9A9lpf8xGVexzRGA0hfG7JR5sXUO3tdyEyDY6XGvAcIEBQkqkxwdlxUGRfPPWhQETYe7ZNUHDlCuqFp0Ih9agjKBbPJbGBY/a8fksnhMdLQfy6t7sBqgdm0gDAQQmYTuTfjx4akvunYChtiDnsd7J6J5P2+rlTYQaiLnLQI+zv11fT0QQGgMCTK+W/3P6uxFiBrveQZCQDAGqbFtzrkm5Z7iT3EHAAKxxj0LV1vmPK8N6m2rmXmWMGCZsfD6LWCivXM+luqY9R9DNwGL+gIr9Uu7L9bGxgTl7jHBd8BngpxThLi6yQH+cL5vPv/6eutMUAff/Ote97rF6hULcSwGwXPrO8qaT54bRx4GdDxZJEaicyb0nXqAgU5YFMfhWswCdgATwEdOzlDeynke1j2l7FqyCvMDCIg9wMr4zb24D9ybCwFIFTCKnaLkvZN1AAHgoS3iEuSz0GbWvuehlP3m/lgOskzAI/BgLNpFY+5wfVH62Ab3Vg5LBqioy7OTh22HVFb/KueZzL3WT/MqVsa9zCH94f8dIGydwRcvp++xkvQHsHcvGYRJJ04KXgAYKk6UNKrLouMDg4YtIAueIDXpIHoT0l8RuxYN1G3i+92isgAIAIqef5EQFLjDUrQIdCL/rMWPviqpDOEE3atHewX2WFj8cBYLWs9hPShVPkiLkj9SWYLGwgYwRCYLevI/K8E91q+dQbj4grjMlc3DAKXtWKw71iEfcgLP2EpgZE6yonw2V42pOTJBwgSM5ghhb16wAgnJ9sunwM1/89nWP5ar+1Lm0cmeTztYpHzK6GiKA9ULNIuPoIwoAWujcxvQjMpQWixYc5bSVo92K+uzNlFY2koZWzvmq7nOOjyLmp8s2WTQGpP69xQ20zX6g2LjYkG7Z5luHevYgI57FhtwqA7l9LX+9b8YBP1DBtkCKIaAj5+iJXsE7OnnDt3CIFDKYj3IFu4U8wfI7AwN4EAwIQbBeLHIyQD3JYPMJwYK693YCxA0BsZOv2EAMAKUq3lmLClpsg2QJPMYUtquXrS/ccEWcCe0rZZC53bgEkDVey7tIgvNAcGP2g58MJ6UNSf9rj5zBMCwK0UdWAX9EFiNeZ39HIOlLmvmKvIgMAB3BuHwSmg90kcYBGN+7wFCApVQsOAE04jIJZwocAuE/4ugMvktMv42kxXCt2AITYJRQA7B6nuLBjrn4xRAZYKa5ISshWhRK0PAAyCoRAE+AAGLAw0nCKxJDiAAEhakhQEV8yWi4licBAew4d4ChrSTkCZ0UXWejeIpAc8c4h0gbBX9V18ua9g4Awh8sRIXoXEJcfMuipg1SHGZR5QOBUYAtyVSeYFilLH5ACi2Vcz8MjcwVBSPusx5c8M8N5+B4c5XMP+AS0qA0uLzluFQ/RQKqpqwRINzLwIhxe+Yl6xTQFuZj33sY48ABKUhJkIbzFHKiLXumQhyFrQ1Z+4TMBi8QwyCfospm0phzRZUbuvIWcf+9DNFpA+OWf/H6szFQHljFVnGx0BGDELrnEIXPGrcsBC5kIxf/aYuY8II0P/GW796sbZRu6Ls9S0L3NiRMeQLucYYYflTvtwXpehmbAAmxtjLHLHlUbBn7ABLn+whz4yf8TXO5Jl5ijGh4Bky+sFYkolkITkKeIhhAHrITW0AkIADbgvX6wMAwy4VYMk1yoqnAJQ8A3mGiVV3Lq/k2Nol+573vGdhaHeAsHUVXKxcAAFYJE+4gO4lQOjxeyDvFhCfGIFogfEbQtMCZQguDy1qGjXnRZH7jsJmRRGIKLoyj1lcrDaLxgSFqiBs17mfBUwoWICEtkVMKAMQomUJSBZDGcn43KKNUXrcExaqhceadB9AwUJC0VkM2i3q2G+sQ9u7LOidQbjYAriOq7Jy1W3cKAdzqm1UBBtWSWwPIGC7mDL8y8BeliUh2bkDlAdFa8zNNwrBtd4JVMIYmAVERMVTRO4jYE1kufwIFIBAMbkJAAvBZMrGuAEnymC6ij8yt6wP1oM/37NSzV3rg4VrbQEhLEXKz73NZ9vvMAuAsFeH61iP1s10WTQOkwkMCGRRzlicU1wMMSpAiyA6yrHYiK3jH4MA4FCGuRgOXT9jlXJDYosocFayfqf85TzQBxJb6SdjIU6B5U3WUL5kFcWrzwBL4MoYAwk+mx8ENwaAUlaveUGhUvzuBSyaN9psB4R4BsDQuAZmyCT9AlyQWdH8MaWUOlDIBUDp+55xpZyYDooduAGCyLjiCsxLgMxnYFncAqCr/4Ed7cKiaa+5BFxgSvR3sSeBRt81buQvGUhWdoR57rctY6ouAZ3k8s4gnN1jxroD5riz7iVAmEK5ICuBMVCviUggWlTcAyx0i8qEJVT55YEHL4uA4GaJUcQmbf49C5qSJ3j5lgl010UNQ+06E9XWgoCU+fJQk1gCdKDF6KUsZE4ocGmIRWA9sNxcg43gN+xgEkKYwLHI1c/KIAwOLYydQdgiJq6+zGQPzEPR1hQTpofF6DvgwPfmICHPhUX5m0sseUpBWWidQiEIAVZgFtj0maIQ5GVOALHoe/MAAEbzshjNW98RuGjntkaai4AAACuGBij2ojAAVgrCvKJsWKjmIHYjpaGtgDJwSohbF0ACZsva8GysTOsoMKFuoEAcBmFjDXpW7UsRrOMOjlnop46aPtcu7kUgiIIvGHRrXeqwVvUdpkS/HAIpxr+AOutbH2IvPTs3DvlDIakPkPI7Zsk1/LxkAJmhT4wFGaCcda+vXGt8AMPcGZ5tsi/FifjOmLWjpUO67JCwA8E4lJWxoEHAJIajudyR2oAe1wT3kxe5WiyVtmEcABZzTZvIUuyBZyJPPQN2y7OZc3PXi/rMaSBaXwUGpuE35RyAwPgDgDLwlN0KHNWvHwAi4Iw8Bx7rx1PAxtY5dF/L5SpjnNr2fG8BwgyQ8lAWF99SdH1pZwkJk5mlbwKzighEboa2EBFeon5RX1Cx+gg+IAM7gDZGmREWFjYg0aEyFhQlzi0AHZcjH3AgELTDu+AgAY0ikaF39OdcnCYUloKlRjAR1BNFn0WT7gDh9pZjLJYxYBWyuApSNGbmA8ZA8Kh5R9kqy3IEHgEBlpX4EqyR+cVqNGfNASCSOwAwpShY6uaROcgqwpyxVsXIEM7qxEwEAAALSpLFR7kT3BSPdqkPoAEmgFD/o35Zdup1X0CXdQtcK482BgjUiVlgqVoD2m/9YRa4KKwPFohrzHXtnbtwAgpXOXIpUe/WESXpFEqvU+IYTgUIuRe6/wwoXrMkMSRZzSmpqfTnNXO31VnBlsmA2Z+eIxDTPK0O3xdDUvsns1P5mJ9ZL9kbEAGMWPU+z3wUM67m0BhP2db/sVsZfa7zG2VFvouj6IwKZQI8580hdZRqGYgiy62j7rMDhK/04IMACB4nRGqQTXTWFmRIGaO6TIIS0Sjrd5QhIcxiR79C6773O2uHMDORWFysoXLGo+nUZ4IKwCJ8C3ZUVpwCoapef4QtYGDhlBRFfXyQXAjtHybA1BOtJpmMeAf0bgu4hRaYOLbYfL/vYjhPVFzt7wnfhLvxo5jMF0rcvDImKFuskRcQCYiaA9gBwJEPGDVrPvKdA4rmESuU5cfSQh2LYQnMmkuuB0rUTeCx9tDJ5gy2gVJH8QIbymAzzFfUsbVBqAMuAADLFjDl0gCSfccdAoQINgNkAGH1YhOAbXMa8GCdeR7rEFsAULsvSpgVSSiL1SlzXnP7akfjy7Xpcxas9vrfOj/F2lR2K0Dofu1Kcl07VgL0Wfhth2xHSr+niOeOkeZV7Z5K/RhIOAQQ5nf+d69AQ8Gj2u674gBSliXDKgfFHKvqBUYDXq5bb6/tXme5eAJDbZVNFsYO+B2DgK3AXJHR/XYKQABmuRhci7VjOHrt4ODxVfhgAEKTr4nPwkJBEX4mEp8chqBEMqhXkcImvIjr8pA7hAbNFf2EImRloYTRuQSq9LfiBQhGNK3JrJ4iygEJAAEoYMkR9CxJFh0fcxG8fLWUA+HJjwdxN0FReO6jLtROSqdJPBH3WrC2YHeAcB0q5+w6m4fFo5iDlLxAVuOCSfIdRcuqNrb8uBQnAYc6NUfNTf5n84AwBDTsvOGCMl8BU3OMa4KiBUJZ7KjdrFH1mJfiDgS7Aa4C18xT4IXQz21lbmMJuOMAVfNbefVpC/oZg8F1B6RgBghnPnRWOcbN2uAOsVOAyy0Ag5FQVluBHXOd2wKtnII7xaI/ZVSNB9YPy2EtuW9rZ2s9pwCEFHyxCCX6mVtRJxhISc/AvPXvKdRkQ+v7IgzCfObpjgjctL026339/aF7JnOrO4C0Vrbz8xrAJN8OXZPbRv3KkcUALeBpXk7gtNXNwGUEIAA1AAIm9yxWdutceWjlHgRACGEXdd3ilGSEW4AbgbJkXRF2JhzryFYgworfz+Sg7E0awo4iZ+mYPKx8dKu6CGzxBwAIa4tF4v4sJgKS4GdZiX/o2FmUccfyUhZ8gGhnQTusvIRDi1FbgAvWGOVB0B6K5j62GHaAcDvLdC0oUf3GHTClpP2OCRC0xmVFKAGiXA7AoblFoaBPsV7FmPD/SiPMqmfpUOICDwU/UrrqdS+MmDowCZR4iXjEMygDENiSBgCYz64BUoATIJpgB2SxZ1gD8x+gATSwZNwN5qT56Zn8zpXmHAntMB9t1fXMdmNoKwbCs2A6tK/tkQXJRVlfF0Dw3AACxkTAJlfItG63zJRTAMK09qeyWzMCrfWUf8znVMxrK30q0WlZH7J6DzEIJbia8R7rcurqu8BLbTxm+ffM69wZBRBOQLPFSq8NPdchgGB3BoBgjfRc6t7qqiJfrQuGI3leoqTrmodb5tldLPNgAELoMnrMOzBgUhPO/KCEF4rfi5L2P+HFt+qljEnD7YA65e9FZ/HREpwmI0sNggUEAAmCkmUnqpcrQOS62ARWIgHq/gQz2pVFiC0AKgAWVg0hOumzFpBrCHgCldJokeWzPAvt7gDhdpZaACELlTXNYjU3MAiNrSAtc4zSFH9SHIwxNy98BxAYd9/x81O6XAsUqzIsINtgBb5S8r43L7kzKPL24xOu5rkAM6DEnPQdkALEmpdtqcV28e8KeuQ+AxQIX/WiZIGPsqpaD+YicABoi14XhCeWB/gmdLUN+LAO3QMI0db6ZwLcU6jdfMVT8fh/rpGp+KwjgEh7jAMlslWRGLMJEMgSY3eWskx5T4Ve+wIKh2ao66aym3IhpRmAmJb8VoBQv8/4gwlIDsmhgIxrjyVmS/bWVxMMVX99kbW/fv5ARs81y6/HG1PG5cXIaktw121lENp+Tp4L2BUs3OuUuXg7kubm7vogAMKx7uIr5X9E8aNvTSZ+XMKTr5elZvuV700sdKvJR5jy12IOuBhY8GhTVp4OyydMYBOwAARKlXBEEaNiuRMKwpqBSNrSManuQbCvJ2STfI3gWygxJd4PLYgdINzcAlrfqTEzpsaZ350ijkEwNuYd4IB2F/UNuKLzAQfzB3DgGvM7VsscQ+0LNjQHO45XRLvP4hVYxuYfy90cwzL4DbNlPnNlYSDMSewC14HDjigkyt8cJiT9dViQ3RTuAfia65Xl4rCFkuLl/uAqwIQJQgSCBVxiytwTkAGAUMHcd1i1rQrtrFGcinKWm37uApcxCAIyPZt+df9TAIIxA7owIJgSgZjH1t4pM6+ESim3QMB6TQc4Wv+XUWCB2Gmlb1WqpzzbqWUnwAscrNmUABQjTE4QIBSYnS6YrX0DuALhQK94so57PgsEnfpMD6H8gwYIRdayuIqaDhG3OFvoBIbvTJhiCpT1GbjoHIV8iiZv362t+1wG0YbzXmuUOqnCFkQ550PkM+Vo7S1b31nCdo9BuNklmpDLCqQ8AQHxA3YPJOCNi+BTSpmbochvYwnQKkfpAgzAAUDh1ba1tsHFIpXf3pZZYMO1wEXHCpd3oPnE5aUcNsD9AWl1Chzs+Gdl1OPaUu0KbgQOPCcmgOLlTmsvO6CtLKACmLjW+hFQSZCrHyN2FqjdMmKBsKLu1zuYWhve9a13O0EoAazf3D1x3v2ybBkPAQRA6BiDcF59azCTvz7Frd7pclTeOBfUOCnwrcpwfc/kSbLwlP445flOKTtBQWwFOdhrBj9y+wK3XAziSor9OhRAeawNXAy2q1pjgEaHNe0uhsd77EEDBAuBtUWgFADY/t12CyQ0sypQTiYmy76cBZ3bUNlJ85tgJlU+1eopDsJ9KIQslqKqE5T57VogPlMS7Ttf++MmPXgM7e4Mwimi6erKJuQTvFgqWfdE/wsubP6YV+1L97+5aby9+EQp2XbFlO54UuYpjICr+VXdRZvHduW/rW3Vm3JtPqWIqts8nPMr1516/BZQDhTlBmtLn2cIzLrW87puPutlet5zASjdZzIH6nUvIEm7rGmMBsAjbqO0gUT4SQAAIABJREFU0FvuX79RKMYR6yeb4nQFbKnnUBl9TW7oMyCwEzbrtwBAgEgdKU/9qS9PtXjXhtExJuaiz3QV1+kHLFeAWp3GTtuNJ5eXlOPYMqxac/AUVggAtja9l9TOfe4Cm3IVfXhVdTxogAAMiKCmxAVnWXDQIktHFHZCugVJkDh6FE1q8vDHokZRuIQNoaDDEtrqE03LGrPNrGQbBsfCRfPylfG/mojeJVtyD5Qzi0q5TiQj3MU9sOhQtqhmv6HDCCgR6BBzQv3Ytp4dIFzV8jitngkQzA0AQUwLoYaipwTMMQLQ2EZds+KzSO0kMN7mJgUofoASLANnSkL9rH0sQNk8m5cxVyn9FOYErwGKynrXTuB0ApD5e8okIdrWYoLZPHatdlN6BLz1Avi4zry3HrAK1t9lXrFuAj5Z9vVJVnY+cH1s/XJz6FfnF3TAz1ZFEINg/YmtENiJDZnW7UWfRZ9xX+oj27EzNrQtANfYNV6BLH0oaFrfT5B3XlvWzEfA6rzrbuL35po1ws1l/muv/gEEAGHzi+sOUJP8ynxqLHPVbGlrQYrmJBfDTJS05fonpcyDBQgWEn8uWpDvUdAgASaYShCY/dnTsjHxAAN+UlHgJg2QYD+5ICuC2EQkRPl4CWzK2m4GwVd8wAQIgYUW5qsk6O2K6Hx7sQkCGlkxghNdry38ooQ7ISEYTXvLtc+iFFDpngKt7KefLo2tLgZ+ZPvr99f19UCWTELXfCuz5ryrcgnqmKYZWZ5iz4qfvtgYp7Xln5Ls2qwv86MzIGKpastko6Ll1xZl+ULEIrCgKcfmX3MvhTyp63mvyYKt23CR0aitKc1ZR21a97F16xlKTb6VSo4x0S/kCbBxla+5fuunOQbNqe5Z/zV/JrN0VrsCo/JBMHaMJZBxF9wLtXv2xZzfEwQF2MhOoDsGJVZr69gw2BiNYkvs2BFDdpf6YutzXHe5BwEQ5iJqktkGZocBpMh6gUL5mfh+BViZXKx77IAkL5LGsHqkxWWxdTgFP67IZ8FilDNlLypdGb/lH6bggYx2K4h0Ft3tHSjhh+WrtTjdi+9W1LiUtPyigIVgLpMUKBFBrjx/rn3mwIV3VkP05iEGYVqxFBT/twAt+9ptqZvCPSF63ZPsSal/LawT+Cnt+fsUhoeE/Lx2CtAUxFn3Wvd347xWzlvqkLbZnLfTR+Ix+RLWr/Oec6sSO3WeTDBQHx+rYz3vT/HfH+qnU9t6Svk1ADs2PyYo3FI/uUP2scaNZYF5W9mULfe4aJlj43EIUB7rn1PGtPMpGHFYZXO8e51Sz0Wf975c92ABAurfdkIsgEkAJUKbEtNQyMCALVqCyGxLRAez1gEDSl8gDDoShdUpeJQzpQt9U/oYB3SYqGaCVDQ4iwvgACawDnLUe0dlQcWdkmdvuzK2WUaDslAADG4RbUc5cnNgDyxqIEFbCWkW0SHEG0AwyblYJNPhYwMQuEHWlupdEA73ZbE8Se1MWAKoWC9BlpTKodNDn6R+ua/PajzJJm5Kbg1jWWDekygDyGNBimQ2trgYoR0cPD7DHzRAkIkQ7Q8tUpQoRqCAoqWs0fms6pS9coKZSp5hi1pZ31BRrH6sATDgsCd5EwAMBzsBDoJmJPCQh94WGi/uB/vYUZsmn/bYskZpU/bYCEIXs8BPKjsjxgOQMXFtFePHBkYwCOIYtBFYARLOczFgJTAIBIJ2Tro3q2tfFPdV7F9fu3eAcH19exs17wDh8V4n68l+RhTjsTwIp8Qx3MY43vQ9HzRA4G+j0LkDUPg+S3DEUrdViSKXDdE+cS4JbAAFz8qmnCFM38nAhnGgYMUWUO5OzXMSJCXPkkf7i0dA6UuypH7XsNptD+M2ENtA4fsMbPBPc30AGfbD2y8vdz66C0iA9sUilD8fIBG4g7HAIsydGHPi5AMXJ+H5ZGzU5gBCrokZzHbTE2+/393ugR0g3O3xObV1O0B4vMe4nhlhtiJLuGRnCnDwJLIpZ82lBw0Q7JMVpMgyt28Wi0Apsqa5GTAEKH6TQ0Q0hYp1wBag5AEEitx7keWiZ5955pkl57xobcyBa9uG41osAVZCJC53A5CBUbBPXZCTPeSiZqvDHm3XoXPFSLgWoCkgMqYA84EB6fMxgAAVu6e2CYj0vGIdPAdAwm1iMcxI6VMFzl7+YffADhAe1vjuAOHx8SRfGWYCwBlQxWdtDV59WLPj+NMcBAi2k6CmBd1RLPbb3mVkNf3uCTZMgPzr4ggoSyfNUZbYACBBlkTxAb6zHco7poGyxzqYNA5T4hoAChyOI9ud+APv5TPg1+MWsFvBvbyy4AUF8d1SxlLTYhG4B/Sl2Ah57d3TvUWHaydAAWDI3MjVIde9KHQ0WBZ/iv3YNkfxFMoDI9whGAsuCVkjAR47OjAQO512N5d5QVgzaMr/M9gw99D6CWZA29bAvLWLqXv5HmgFTAXcissxf059zTapc51bX31b5csMWpvR/nNHRu1bBzHWZ+t+mX151m/Vuw4anPe5iLtu7lI5Nq6n9vmhebHHIHylV8QgYGKxvgLT7Wg4ZR5edjzuy/Xmplg4adoZuc9/7rnnngMQ+NNZoLb9lb9963Gat/HwJYhxbwtYkKJnsIXQZEAlYQvQ9dgEitOeZowBxWkvuefGOhCKuRjQ/ZCmQEPPry9Y6PnyBRCi8eVVYPlT6iYd14Bti/ZeU+iih7kjdDSXBABgFwXBKCDRgVFcEg5nMhBcDmgw8QPuC6hhMbAHAAvG4hCD4NmVAyzESUyh6F76w4IQGHkV2eBuY6wf8j1Tzp5xbnOc29rWW/kCpVMxpnRSZm17DGSst9cdUijKWicyNQIIWLVTAcJsa0C+9wJmfT62I8f1bQWdiZea19U/AULA9xCY6N5tzaxs63n218zeN69bA5D6/1TA3b1mMit1nZLwZ+ta2BmEx3uKTuAGxiBwvwIIrY2tffrQyzU/9RW9xQheAAKq3QlztuGh4SnFu0xHT8FTymTJhlD6FCKl6kQ6WweBHjkB+P9Frna6HQHjWofdCCJ885vfvFja4hMwCdgUCxkgAD6UVRcGQEwD1gH40JmO1rU1UhyB+2IcWGHYCGyBF0AhYRJ2hhtEQhy7J8QwKE+AocHELdju6BkAiK/92q9dci7Yw3xMqGqXMyTKNZ4w1T6LAUtBmO37fu/eEi/5UGM2Fb05kTKZ/08lGcBwXQByWqgJQd/FSB2y3v0GoADWmC/bHAEE83zLawKdFGfPNtmQAMChjIAz61/X9tzasL5Ge/MjTwDgfvO3qdCVK0/EzB45AdXsX+VjCCcdfVbq82P9VbuyXM8ajy19flaZHSDsAOHUOdQ8/z8MAqWH/uYXzwI+9QS0UxtzmfJTeKjHYgByyuzWwlOO0PTbTKfcsaR+Z/VjE2ztkrGLpe2UugSO+ily9ein+mVaA91PrIH7+AMEcm0AG7YaiY2g+KP71V3e+4S7Z9C+BFznP5Rt7VC/KStnvl0agi8DP7ZVAgjARcJ1K7V7mfHZr93eAynPEiIZ/8YqRVU6bt+bPxNElB48xas+86dzSTohMgV4jEWqHeJkgGSuMmzbKQyCOkq9PC1168cawNiVP/8YG5aQUpf16S+FntXv+QI8xedMRiFFHOAwGq2p+iGwre5ARpkZ699SNNe3xiaWovV/ynrqmVyjPd33Im6K82bYDhB2gHDeHFn/nuH9GIPwpS996TmLhOUguY+IfIvZ6zqor1Mbfah8QiRFmLBIQJVYKIGSsu9QpAROmeDW7wmEDlapDbO+BFJt6cAV9yK0+zxpyITT2lqcwltb8tsStt0n638tTBKi7slNwv3BJQKgvO51r1s+R+2WIvcqxmCv42p6oEXZHDDnxMWIIwkI26IFxGKkxM+kwMSwKNvZH60H5ToEyjzgBiulcvPpUOu1hZsLqASSMVdlIjzvac37AmI7b8B88702AqliZLBax84UmCyE+2HQuM88H4XqGVwLYHsOwEN9AYaMBd+7Dhvnha0DdNxfnf4XuKuv7RICBLTT74SjfneN7H22I2uXNeV3fTnXcfc8r39a8+pz7xe/+MVLH18XSNgBwg4QtszJWSa2EoPALf0oBsEPAlr4yPnfs5LvKkCYtOr0JVKEKdgUczSijgAMogmz+qclEB0bwFgfrJTinrRjFkXKvPfamAskkJJw157aW1tqs8+BlkmDHqJl3YfgVD/3hgBKWzsJTkmXWIJea6Bx6uTZy19PD8QUNUY+v//9719yYJSbPhA4XQgpps4LSQE1r6ayXSveQ0/S3DJPKMPA5CnWrTkYKJhAxP/aXtxQa6K1d1bP9nwTnM/TD+eaqZ7WT2tTmVym2pD1Xr/2jDEIsQKzv1urrbW5pk6ZGRgPAEpQuKC5+uuUft5yvx0g7ABhyzyZZTJ2O3pgiUHAIPhBJLw9+SLzO4fgFPrs1MZctvy0vCwuVgbrIBS0zmvfAjwklKbiT/ASCAGFLIa1bzLBO4OvKps113NOf2xCLUDSs+QfjUau/+d9YksCOn6D+Ag+7wIgBeIItpQHQlKm6cdmgSnLtVFf9KwCId2TlTSpaO2Niq0t/R6QKUaj72tnFlLXR3kHmGamx9qjrpTJ/C6BPhXEnEfKEuqekSB3L3EhPddl59x1XB+gnfPkj//4j5dgYTtRnKfB6sxtcNWKZD5TSjiwsUWBb+2TWffWa84qd9Z6PnZdcy7g0Fo/Vv5Ymy/6LNacWChyFrPHJbgzCFcxG86vYw9SPL+PAr0AAuNyYRAABMJUAJ2APC4GgvWuBymuWQTHgQpGpJggdK9pnR3qnoRMFgaQ4X9KZq3g8mf6nrA+ZtXN+IgSKiWIsqRCat0ngJDg6rCSSWUGViZoUC9FKnaE1efeKGKfUdEUDNrXgIutIKAoG/WWCrpnd62dFR1DmwUY0JlgaQZo1caUyVQqUyD7fip+94056R65fjqyu0DRBHLl6r/1mLofatjczfoWcGq3yV3d7xyj1NjrW+m/HS4msFWQqzFrDl0nQNgmQvZSF+0Ba0jKdYHgTz311COAcCxD6kXv01zZtzl+pQd3gLBtNmVwAggSSy27GAhmuxj47QjUuw4QPGqKOKZA3gMuErQIRZciPcaC6IhJMWbVpzCnEvJd90k5tghzN6QM+zyHY7ozckFkeUeHRsFORZZSnUAnBTzbmZKmWAEFIIH/FDiIHQms5Dbq+dfWUO1ag6eo1YDDBBaTzZiukeo+ZvEXE9I4TCZmbjmbrET9esi67Tvlpap2KIsdHNxmd1WxHgMIUnbbcYMFEvzaGN9Vt9828fNklzKG8rHYaSW/CqDgdR27i3YXw+NzbQcI29beQYAwXQxOI0TRet1VqyuAkDIm/OU6QK3bqgggTIV/rGsopoKU8rkGDGbsQMI5RRZ70W6IadWnFKeVrXyUfn07ac7aGq0OEKi7+0ygEJNRNDjWwytQp44i27NMchEoN+tNIbtffeqatWujfo7Z0B7XFOQFiLD2p4KvjPcJIBKIrsVWaJtrAx4xFdohCI97IICRH7j2rZV+TIx72DJKyX7Hd3zHI0tt2xK52VLHAAIXA4CAQcCIBeh2gHCz43PVd5NzxZHvb3vb2x4xW9fB1u4AYQcIF5m7BwECoWziOuIYqk2J3FVhlOLUAVHVAMLf/u3fLgCB9Tyt/kMsQkob86AsSxOVy1UhStq2xHz3uRtcA4nyEcuE6KwD1p0X/38R36LOBQo6LEpdrPr3ve99i7ITGU6hxkDkm6cs5aHQhhSC7wALR1UDFu5tOyqGwLkS2iWvuFPaJFxSrzba8ii3A6vfGEp8YzsnACVZSK6HrH330A9cEy9/+cuX56CgXaPtEkuJQu8VmyI6HR1uz/yLXvSiR9vz1KuMvBTa6hXIUo/ynpWF737a+IlPfGJxi2h7B1+huV7wghcsSaYKLJt1HQMI+sB9zQW5L7BidzWe5iwXg35461vf+giw56++yMLfr7n9HjDWkrWRG2KFzOvA/1UzXDtA2AHCRWb8QYBAQTz99NPLNh6+sfb/3lUGIYCQoiL8JTOS/UmKY8mFpivgUEdRzFwqfL0sbqmK+a+5KCB8ubqLEaBoKRz3kyvBiYwWtyhkC1v/SZYk+5w6JC369V//9SWnhDMgxACwCAEGWw8LQkSDU9oEhxgQoALwSGi4P1AhmdPXfd3XLSCOwvAd5Yc9AAyc12D3gvvYvUDZv+ENb1iAACUurkQaaNtYtRkAwRQpq5/++Z//eSlv2xWQIRZFG9yP0namBaWeWyFQoy88JwrfoVa5UoyH/tKX9tWbR8CO752DIQGPa1n4qFZMgfvLRaEff+EXfmEZsk6+dH+ZKl2fu+GQQJ3uGgBE/TJaetarFsAXWXyHrjkLIPABFoNQMONdXZNX1R8PuR5jCCA49M26uc7zAHaAsAOEU9dSLlrG7qMgRTEIJq7sgA4OokxmEo9Tb3IT5dcMgnsCCCxWKYq3pBUmmClCWQ0pXwoX1Q0cWMCOXM5atQddOmXWrfu41j5mfUbps/opLr5FWRElmKEEnf1AwTpa1NY1bAJrlmKm/B0LLfZDelvMgnt4AQlAi+dwiuR73vOeJcmSeoEAOxS4RrhSnn322eUEScBEkiQAz3M5A0KUNLaDUlYPQIQd0H6Wv6Ot7bd3eJQ+dW6FNqsLm8T/rW6skr3bgIG2OpQKo6HMJz/5yYUK1w9ofeWABaBJf5hs+qbfMA1+/4u/+IulHpkk7T6x7YvAtIPiVa961RJwqn3Ame2blLx01Np2LJ/DnBfYEADBCZnaf98AgnkJILA0Y4ZyRd3EGtvvcfU9QM4C3YwL69Pa8roOdmsHCDtAOHUG514ng7G7j4IU/UBYAwgOFQIQriNw5tQGHyt/DCBQsAACxdnrmGKwWFmZGAQUOsWqLItc1Dvrv2xrLHXKkftBSmanJLJ27VUHJihV/aU8Sh6L4d0JjpS7OilWSuuFL3zhIiAoOy+HTGERbC9V9mMf+9ijNM+UISDAPeHwKMqe0qOUKVhMAutdxkTPwuKmSDEUrG50PnCDprfdj3BirVPELPYsfVuvBHiy9oECrgyMit9ZrPz4hBl3CsX9qU99amEsMA8O9KGEbcdTB2BDqQEI7oNJ0B6KnqKj9AEgqbGVceS1Cak93A0AlX7yHSUJhDlTQ//qd/NTKupjftsmOTAE9Olnbb0OIXwV8/kYg7AGCO51V0HOVfTDk1CHscacYRWtEWsq19tVj+0OEHaAcOqaKoaL/KfDyNtlFwNliYJGc7M6WdJ32d95FkBAWVNA0dEzGHB2mIWJ4kf9s4YpVMCIm4BCdDIka7sgO2UpKp3H6qX0UOGYBkqf8sQkAFqEO2scLc8lALR88IMfXKxfFjWr3bWUHtcOxexewAAlKoaC8qQsgRLAQRnK+bd+67eWd6Ch46AxIJ6HQiR8ABMIEGugXfLpaydw8y//8i/L6ZEGH4DQT5gHYAeL4fkdYMV3zx3BLcHF4VmAKTEP7gWoADYEHTBlS55n+cIXvrA8v2ht4EUcg3vk8ikhD6ZF3wII+lT/m3ueVbuAH0revfSNmBA+eWmAAy7HYkuMM5Ch34EXrNhVC+BTF9+x8jtAuKqevPv1GGuGgjUKiLPQGv+rnp87QNgBwqkrYroY6L9HAMEkpYCcBuhUQDRx/uRTb3IT5Y8BBAqRwgcQUkRnAQTJoSg9aabR2pQcJeT5n3nmmSUlKyVOcfPJsNDR5qxgQEBQpABACsw7C5gVXXAexW0vMsWMxvfZPQAMLgqnNLoPRoByF6hnHLAVFCqlKO7BYIkrADI8Xzkr3vjGNy7fYTi4Llj9hA/wAkjw50uUpB7ghbLWL8COOA2ggaIGYrg7tK80sDIwAjTYBf0qEJJrAPBA+bPkMQnaItaA4tZGbhjt0CauB8rfSwyCsYhB0BYvoIuLQZ8AFuagQErtBDiAHQyJ/nCIkOdRT3Eyc76FgAnbh+Zi2BmEm5As13sPa9l6csqrIGNrPkPmqu+8A4QdIJw6p6aLgQv6MRcDq1aEPIXJervLAukYQOCPZwlT7JU5Ri1brCxnvm/uAsFDlJwAQx3F5YD2p4igftuS0P8YCopdf+lEVjcFhsJn+QIIFDIlSYGqB9VOmfPT+ywYVB9jatQpXoHAwOJQjDKtaT96HKthoCRYoZz5LoEVbRLoxLVASQMucugLWEw5YkY8E0tce7lOtBGoEKjoaGnXf+hDH1qofP1AkXMHiHWgzH3+pm/6pgU4AR7YBcAKEPn85z+/uEg8H+Vt5wRAAMTodwDENe6tPq4OOzKAE22g9GWUcw/AVFClNmM99IXvsSj61rUEq+cB2o7FIZQfI1YCywLM7C6GU8XFXv6qeyAGQUwQtgyLGFO7MwhX3ds7QDi1R9tqzmA7GINAubFE26t/1ZP21AYfK38MILA+UdaUSQ87FUMUinptReTTBwAcC01Js6JR7BQTqpzVLz6B8gQg0IIUPMqab71kJ+j4DpKhEAXksYyxA2h2FrZodACBlRy7wd3gHhQ0ZgFToY2YCUpRW8RTUOxYBgAAAALkKEAsgcBHA8qqBw7EBLDOtdO1lDVAQiFrL3eDPuLHR+frJ24Mih9IwRRgPdxHQCE3A8CFgaB8WUBAC0WvjxzqwWWhzwMXWAj3FBzI/SIQE6NAWXsu/aE9AJS2AA8AlD4DDgAvIASAwsqIa+B6AZS0f+Z3WDMIMUbGQ90YEkBlBwhXtfr2ei7aA+1iEIMkZgfY99rzIFy0R7dftydKOr+vyE5zlD6hDx5zMaDM7ztAYM1S4vOIWg+9TvyjE9DhXAuCDFHxlBjlRElSbvzXlK9tiaxWZe1wwB7YOkepucb2O8qSxYtSZx3bscBdwCJ3nTYITgI2AAFKmSL2HStcnXY2AAiCGwGGdlRgOrgvxA5QxtpLSStHqaLcjZsAU6CH0BHQiLKnTClYytXzCpbUVmDI+zvf+c7FghEwSJkqa4eEwEaMifZjSCwuWyD9NhMp6Sc7KwQB6vNyUnhezAgXATeFHBXcF/oXaAGKgACTEMhRPzYEoAJWuDQAC8+BnQBmuGm4OIwPsBLIWgOE+VmgDQYCg3BXX3sMwl0dmatvV9ukBTW33ddd2rp7lXfcXQw7g3CR+cS9LUCcsUZuLkGK7WK47wCB759fj7JNgayDgErig6KnOClVrgkKk6sA9a6TWLeo8ZIA+R8AABYoypIQWYgdN/vt3/7ti/WNaqdsWeAsYQrdH0WsbjQ/axiF7zOL2zVerGUBir7nhgAEUPyUNjcDi96zUc6sduXkfwA2DKiyAgQBE/Ur41rACdCgqFnvWBOWNQYFQMJOUPLq6whhjAd3hc+Su+ifske6DlOBisIUcKsUka2P3V9dXuIqgC1txiCIv9BmrAiQo6ygS+yK/gIOgATz0XhqNyDlufU/IFLmyEMMgu+MSwCBq+iuvnaAcFdH5urbBSCQO4AusA6gm9PXkdtiBwg7QDh1BpelF0Agdx8cg8BF4MHkD8i3N90Ks8NKPIMJYLm7JqqvYLeZ8lg5ipSCpbinBcsCcI3y6Bn/F+jZwU4odopaGcBEYKPfqgcwKIHStMT9H/WjDgBm0uX+ByI8Q0mW2i8f3Y76B4TcEzNRPgTtKFuk53N/7SsRkufkBlEP0BU4yH2jrJwLrPSyQ2pPwKBslj1D51CIH9AmbdZPAJHPmALt0Ubt0ZcARe6N4guKP1i7DXI9dT+sg+tt/byrrx0g3NWRufp2GWtbjcXScFNy412HeyGAvB/W9JUx3F0M58/nUu4DCHapCRZ/UAxCeRBY6FNZzK5JecyI97nTof8pudD9VIgppVB/VnPl3Wta0uvMfwEW31dvYKYo0pRG9KP3eXx136urQ5gSNK5tB0rKv76o3s58CJDUPwEd5ZUpF8Y8SyFgNds/+2ICmq7vuTrfIqSKhej/4l3q356jeIOeof475mKYCjcG4T5mUtzzIJwv0O5biZkoiUtPLE7pzq863mtnEHYG4dT1kZFbZtsHxyDwWQvKi0EISXufVnWWaMq8MydCUKUUTrFl+WbZ9zlFPA8d8ltKLGWa0vRePgAuCgoyhZigiEnQlnlg1Lwu5di9plJOWVffZDfqg9mOwEx9UV8FXjxL95mxHNU7BVz/u3YCifotUNE91RtAmOBEeQBFOQGza+FZm9YLIBDR9+IasBsPxcVwbMHXP4fYsuZG41qZ+X2/rdfL/HzevQ+VvSqlN9tcOw6B+nX7jz1rdcx+W/dTda37aW1szPYc+63vrWnuNjuOxPjYWj1l06kC/azyO0A4DBC4ju0w4y7WR3c1ePkq58LWumKqMbf66MHFIPBbz0RJx4SjDkOjoLZR5/buo9MnRU9BoaXsDkBxo6pR31Ie8+tTbmhwfniTjqXLIlAudiIFaFcDCt5n9xLvoK4YAO1JoSb4pnAL0EzgkpLvHnM/dcBmHfyUVS6uwPZGwZEJSfcQZ6F93BjyD3g2IMVOAO2dpyquhetZAnUCpGNC/NAknkpg1jG/n9fVZ/2ei+GhBCnG7HjmyeBMpmaC2ABTcyugFxvVPC3x1ASHje+hY847cbP5OwF3bNgUvpcFCuqP0ZogNUA6+6Nnqh0TAE8mzTX1WyC1588ACIiuDYWerbpbi0C/aw/l6FC38s5bEagsUNduhkD7ViG+tdwOEB7vKS5WlLk4LnllBD9fR3Do1vG5q+XMm85i+D+plu97kOIhgDAVUgKAgBOoh0oRTCgfgGh9WfdmTIBIfDkHKHhR/LIjCmgU3Md/bpufdMOABiUkb4H//REW/gT+2UFgKySmAZjoxMlYAeXFJxAs3CMxE7O9ky3oupSm8lCf+gGeaPkUen2QgrG9UxyCHAQJQwvIjgS7L7THLgjnTpgsdkbYnZHyKQX1XZzkKQGLn4sBYHsoAME4Y5hyJxkbQZ0CRI17ijLQ6LO4FeUu4ttjAAAgAElEQVQKhgVU7bgBiLErMVX6y7zq+HOAEJAsGLbsqlMZ+t/1YnPEj9g1swbHkyW76HyJkVK3+2knoO574NV8n642604Z7wCvOeC5fbZG7KRpjcw1xiBgOKhTMjHrwP+eIUXu/oEPfW/d2p0EVPfbWWeFCCaeAOG6LNgdIPxfgCCXCwZHQLZA0cmoXnRuPrTrnkiAEHrPwiQEZUUkPOxHRkVDlwKHsooIVBH6ghLtCrALwe+25dmiRChQqn/0R3+0CBCR/KLyKV+goGRD8krIN+A+hLtcDcpI56wd8imI0JfbwC4I/vKENiFmmyAgMwU3YUd4+S4a3jZIVokAKDsvtKHTKKfl734UvvYSfikT10ujbCsn8CTK2gvVpB9spwwYXJdQu4rF9pABgmczr4x5wK2dIBQ0xWfnSkqZkrNzRkpsyqykUZJS+V+cQ4GnxhQj9va3v32Zm7a4mre2ntqSamdJ68j9y/tBqQKavjNXzF3zVRuACvPrssfGqzMr3n3tVrIOfc+XDxxL1OX5CX2fJUFT1m4ZqcttTbZm9IO8HUBDQNw1gFTbk6UPd9YJBs3uH+tNWX2V68tYSEMuvwkXFuWjDgHDgfT1fHbNDhCuYpWfXgdZbQcY+SdVPRY4pvEuy7PTn/RyVzyxACHFofsoagrZ9jp7kuVPwA5QjgkBW/vkC7C9DzigqAkawhZTYL8+SwxlZYLZEoi2Z4HYskdIARRobkKBsLTVj4XukBbCS0QzAeue6jRp1S8nBWHDFWGLHyaDgNIm7ZVxUJsBBGWBGArdc7kXdkB7bccEOuQfcD2hrX55CVjX7TxwL/XZkUDQ2Q2CTSEgKQ1bIlM605Vxual4PVc/ZIBgDI0tAAcYUP5AnoRaAnQpZuxWGSzNNUyQ61hOmAZ5NJzC6ewLp4waT/MDGHW9tNvycFCM5gn3GjBN6cUy2KonxwXGgMI058wdAhjbZl4D0Py85nxxMRcZ8VgD6wWIxcbJdooBQYGal9YpYCT+iGvM2gNarA39ZO3VJ55BjhOgxTOr3/NQIOq2FlDQng874Dr9XJpvScyse4AMgyjrqX542ctetqwX7ZRlFMhaA6MdIFxkBlzNNYABIOddMjmM8F1mQq/mqU+v5YkECCHFustnVCOLggD0v8nif4uaQCVwCRcMAGFEiU/6lDCVXZFQ8uJPBA64HMp0iA2w11lSpOIHCCDbj6R4JlRtdSLgUZSUcZksWWyEUHkaCHPtwQ4Q9ASTCc+6o+gBEUKZBcPPaREQkBILycSo/e6tPIXAB+c5PS8hz80ib4M8AwVKomkrk5tiJko6ffpd/xUPGSB4NmBVEhNgkTKilLgKAEkZP80hTJL5gq1CpyrrWkpeAK+5a756ByQlAzP3CU8uMAwTRg0QAZqxX+aI+wHJ7g9cf//3f/+iXLnPfM8lARxYF+YcsEl5XsZCCyCYk0AsJW6tACW+o4gFsnZPmUs9B1CDadAf5jvgYH0CzEAVVjAAgwXEyHgWikNCMiwfoCRnB+CPmdNX3HAAc+4VwB7I1/dccvKQYOcwNGtgtAOE61//x+4A7DHYrJc//MM/XBgyr8vMzdt7muu78xMNEAIKKZF88jNQyIQBHAhZgoQinTsD0JrAhGspebQqC8VLkCMFSoiZkAQv64YAz4dLgRO2rDuWEMEkARGBTjgRbOhRjIR87ahOgZKErXtqE4GF+mUNSrAESEg4RACyDsViaCcWAOMg10BBlahZAr901NoLqIi1oBSwE/MFIJQPYh1seH3T9OI1P2SAQCGaD+JgWMlYAe/GktL0QqGbS23xlHLbfDTO5iHWCd1OibKMMQm2M5UZ1DvL2BzzTtFzV1HO5i3hypI3n7BR2iDGA1tlrotHAHgxEAXrXTZI0Ziao5S2mAjtsEYAe8wfxQ38epnDgAsWjKL2PFwPFDdAhGkDmoBsLANFrox16XvPDCxzr2Br9B+Qbm2Ke2A4eGEZPKeTTLGJdiV4TgyMeKZDbpUdIFx8XV/2SiCOwWaszGFjVCzJZet+KNdnAFsP3Mp0zoPKg3AsSPHQAK4jlylBk4jgpLT5Yi12FlCBWXMfP+tEJ/LzYggoY8KDgPQ9gEBIs+RZV9GZRT7nR6bgWYUEoHIEIDDR6YoEH9pWYCNLiZDDBmAPxAVQ6AaSlURxEJasJQKbn9Wr9rOy+FkJRuXcUz+IgSAM0anYkqJ77yO6fsgAgQVvftnOiwli9QMDgCEQyZLHJAACQAMAinWi9FhMLHyWt3kNAPCh89GbJ+YBRejV2RgYKC4KdQGuFCTqPaCCqaKQc2OZu+runBCAOebsokI0BiFmzLrQbgrbnAdyvFPWrHkAOgXuWbUFGMDs+U38hRgD4FrbzXuMnz7Ur8AEBkH/AtsYBC4FbkH/62dGAdYOMOLe00YACotnJxMXRkbDfO4dIFx0Flz+uj1R0vl9WJyP9U93PTG7GA51jc6YyY38T3lSlgQOCwkDUNZE5b28U6wsCNYLC0pZQoEVzsqhvIEM/kpWlR0AwMXcopU1TugDJ4AGoMDCJ9AIbOAE+ECBAhzqUbdrWC5AB/bAdkWfAQdCWZuzYNxTeZYjwYdmJtg8h7axwghf7gV+1LlF67q2YJ0/VS9e4iEDBM/GPUWp25IKILKIKHtngnAlGH9AgWXMFQAIAobcTwAFpgHrQGAacy4y3ze/zTsMgVNdzS9MFqVqXnIfcFsAHOJiXEfpmluydJrzzgQBdAEF62jO+4uMaiyfNgM8uRjMTc8u9gBI5jLgbsB4eGZrxnoCqJRpd5B17jvPATQBBkCC/nC2CjDuWfUxQAVIWCPugUkBHAAUoMpasl6sN32D1cD61Xfr590BwkVmwNVcswOE8/vR/LT+dwbh/1f0c4+0/wk+QoFgJPjaOtZ+6SiYfI4UNqaB8GJpETCsEce4UvqsHSCDMDmmbBPMyvsDKgwQQV5kNkuINUfwokoJL8LIVh0CD3MiIp3A90pJth2umAsW3xSWrCEAwn3VzT89gUXsw/lT6+6UeMgAAZtEQQoeBBj5vVntXkBfcSoAgkA5FjDa3Hxm8Xo3T81J1/Kno+Pb6ko4AL/ca5S7NfCOd7xjKedIcfOc4ueyYlVTwOYfd5e2YaB8pkyxCuX+uKyLQbswAKh/DJo1ClD7HzACmrlWtF3MhHaj/MUEANjKWx+AsPgKiYrsfrDGMHjYQG5FxgHA7XkBAeDfGsMMYlG4YrAnAJd7AWsAka3SjAVrGRCzRg8FZu4A4fbkxA4Qzu/7GATrnIvtiXYxTEag/f1Z+DELFrRXWwHba13WP5Y5FwILwt5mFhwrivXmWkIcOGirl3vORDLqLomN39aApSGtXa7lAhF4SEASwqVNxiBEd/pupihOQLvXOmNhQYh+K/Vx5csJcf7UujslHjJAMEYUEvpPkKCxo4RZwRS6XS8AK+Dqs7mirPwmrqUYWcQYAYATxS6bH9BovgCiuRxQ5ZQmYIDOF2xrR4/AvtxQ5pl6UfaUJd+u+UUYU6TN/cu6qjwnIGQbLoWubs/cNl7zFfvlVNGYAqCZK81WZoCFi0SAmv4AoMQWYd7McayB+jCAwDmmzVY4/eGZARG7Maw3roOSRwEU6pWcjYujs0mAjIyL3cVwN2TDDhDOH4cZg4BhIwOe2BiEaWmnpPtuov8CG1Pg5RQIPJQlsSCxNQio06dlPpVYQGUOX4q872pDgAITIOIaIOGGIOiAg/O27cwgzeru/oeShtw3gNCYeH+IiZKMGWuYAmPVstoBRYqJ8gJSWbyUk/kGoGIA7EbgAqDouCX42f0BG8ABwKBeQYdYCMCB+8B34mkwERQ0kGCuYZ6wB+YOZS3g1r2ysP3O3YVJo1gvyyB0H4yc5ybsuUEAGO4EQb52GWi7NaBN3BGenULngilIU4yGHUCAvLgeQME12AWxBdZW2xx9DxB1qJr+sMtD/bl7gC8MAlcMWYBdwN4AYu65A4TzFdNNlNgBwvm9PBkEDNq9ZhDWhxehXdHu/H9F4pf61IPP7IO6airmlHoAIYE2BdtaqWehd6ZCWdRSUoRLCV78n7XTIHgvSc1UbKyy6ur+3TslXuAWBUEAZvlT6J3EOJmK4h0m0FgLrrlDoXKXFeznT8nHS8z0wfOXY+0o5a+yBWLWduNNkfIbU1x39bWObeHPt72OH1zQnd0pLFKWMWWIOeDGYg2z5CkmriUuIkrf8wMHaEIWMUVIKSpPyb/0pS9dQIG5oi79hoZXTp/pL2DX9+YXEIGCF4RLEWIsuOIAgvpcOfctlsEzmJcCZbkjLjOP8oua1wAC5e47cTpofYDHs1tLzR/xCNotWNf9ue24CPxhQwAGz0tOiNlo3QjoxCBgVfxvXdnxEbh3DaakHRPaBCwIHlbG/17ahsU5tM0RsLHFVIIlIKK5e9XzMwBj3LRHTIZx9roso3PVbb2J+naAcH4vW//+GBLi0+Q1uZcMgkelHLyi/1kMv/d7v7cIPwvCAhF8RKARWAGE/K2uTzGf13VrWl4dZUtrV4EJGMtAUBLmvgMgCCHCmwDRFt+ps+QzrtMeVoxrvG99TSCgzgBG8QcTZGyt8zbKaWc5GUrGFBNwyJ+r/ARD7TDJ5UJhsGT5pPnGL6Okrrs/YrBYtKx485YCNndZ4Kx/PnTPUsBpigVQNd/WQl+daHNzy++Umj5Imfm/NTAPBauvA4yu86c/18d9r/tlMlQBlXbEXKYP23Fk/WANtI3y1p6AeiDfM5kD1hk3SymXKz8DhdegX/36F/ByvbLAkvra2uz/5E7yo75qTFx3aM5qo10XgAFXh+3G16Wwd4Dw+IzbAcL5K7AsoYJyxfsscvO55557zsTlk7xvZzFkURMCrAIWExrQ956JYLPAowR9H0A4RO0f68KUcJnk3I+g9VndJSFKUPieBUWYxRQobwDy2ypbJsOYBvfv9/OH88sl3GumgGUpomFRwaylyYZMQba1/psuF0gg4FDGAr4OuU78LlBMeUqUdSeqnVIsN75xYkGxFC+b7ve6+iEL2TjKScDPDnTOeBGWLwuQG6Hx9PtU5msAFMs0FVCAy3eTJZrMUop2DSxjvs6yPmcbjv1/kX5srfZMh3YEpZznuq58x5qn0PVb/8/n0qe9/O63MojO5wlY1G+BoK4JQKyfVX1cEBgKcQtiJnLjXTWA3QHCDhBOXWsx7Vg0AOHeMghZFC3MhALU3zkGhwTdehFuXZRTIEwBeciCmMJ3CpspkFPUa8uja0+xKmItolcxKYSP8yX4QnttfdZTJ9VVlZ99XF8Rnvl/1/eJDottAKwAQt+zmOtbdQFid/X5m6fabesidwjmI4aMMmRp8o+XS6Nn1ie52taKO2XluVN8E1Cs+3PO5als1wr0LIU2gcZF5vKhuZSS9z535cx7ZSi4XnsLMs5QaC7U9p5V+fpmMgtrIB2D2HvPNq+pz85ab+7FrSNmwq4TgHAeGnVVa6n2cYfsLoYv9+rOIJw/u5I5jCzBt2TRvWQQEloz8n5aGfMUwyk8psI+VWFMAboWIAmrQwJygoEpRKpvbcmtBfX5w/qVEgQjH610zQK0RGDPZz6lrtsq2zhO5uNQW6LlY3USilmHKd7697wAztt63hkg63/5NLAF3EyegWvKzgRgrzTg2jrB8TEaP2ZqBps2v1JuU4mulVsgIxDadt+1Mjy2rubcvkz/HlPore25ZmrrvF/lJmicyn2CBHX5LWE5+3ayKmtQMsdkLQdqC/cFECi7qQBOaaGvqo/W/bszCI/3yA4Qzl+BGd4YBADhEYPgBy4GyU9MWnT4MSFw/m2uv8RUrlN4tOjR/gmz/IdzcScEzqJL51PUcesdDAmFSQf7jpCadff7WulNQTIV3ingJYGY66QxRBHJ/lZda0bl+kfpcneIUTg2RimvNV2c4C7QMwF/Sp9eruVfvvosoLdWeLVNWwXiQe5cRQXJyX3AZdUYBoqmkl8/X/3n+5TdBEnrOVn51n3KdM0+bAGwc05uXWNn9fmcC437GiQ17tGkgaLWVc8zFb66CnQNKLV+Z+BvBknrNQbnLJB/6LmniwHoE1NyDNxddg5qG5luS2dBiuKzvA7FR1z2fnf9+h0gnD9CGWdlUnwUg2CRoKNsVyKcCKOU6PnV7iVuuwemcJfydTIIBn0q0YcsHPRDCm2tEG4aIByirqOop/Keisk10h1jEWT1FMQqmG3ZbvT85y9/a5B6nc91CAxMhifFuabuD7EUx6zq2147N3l/fWAXA2AgdwQAf12GmHsBmXZh2OUhX4tdDNcFSG6yHy9yrx0gnN9rrWcuBrsYbHdeXAwEk8lkq6ADTjAIKZbzq91L3HYPHAIItsfJMEehxKbEbFynUrnNvpjWZYrXd5Mav8n2TZCQxd79D7EI7SqQrMiOBlsYZUIUrBl70K6d+fmqxnO2aYKYrOp1fpBpUU/WZA1KJx1/k/1/1+510wBBjgzxK+YVgCDYdQcIf7esKfktdiP48RWSTAGmxLCJk3kEEKROdY4AwWSL3nUh27u2aB9Cew4BBDnppZNlPUz3xUN43mPPYIKXsjqFFdV7FVT31r5rh0EKV5vsrkHd2bIopXWne8pNQIH6rW1GWATgThphR9S6pgDM0iZ7Ht+5Zir2rW08VE6dQEDBgEX/syi8AC2sBvkgz4LEQO7tcCi5GiZgaE66ZgYXPsly5SYBgn42j0qrLcslgDDjMS4zV+7btTuDcP6IBRBkYJU87RFAIMAkP5GcBXIQGHWTAvX8pu8lzuqBQwDhJS95yZKPHkCIOQgxX5XFeddGxfPJHyD7X3v3Pes8lOum2uy+MzaFQgUC7Kig8EvsY0uj8fF7QYU+OyuBMpZDY26ZpWwxfJ617btRg5d5thmrkY/dfTxHAMH32i5PgL3SFJBn1E7fr2MjCOVXvOIVS3Km6Rp5UmXLTQMEW3/lzzCXrAlM1JNqNe8AYZt0sJ711S/+4i9+ZRcDwYRBkN3LYSYl8HmoimRbV92fUocAgtzwAALrzjjm/37IdK9+cCQxvz0GBThaMwlXNaqH/PPVPQP8psUWaOg7Y0JxypehPoFxMQJtabRg/V/gbUp4WuvFBVz02Zof9VXzqXv0PPO9/9fPPHcRyAjpfAjHxpZo6El2XU6A4NCrdhldl5wl6OVakCNGmmwAwetJBGg7QNgmHcxRffWGN7zhK4mS2p9r0gIJlMqTTAVu68q7U+oYQHAqXwDhSbAcPKPkSZiwp556ajmnonkcfZa1PYXyVIQpsLkTJZdBI678jCno+u412QPbFUuIdchnn3Jva12WvPf529x10DNUZs0MlRshJW57HcaictVVmvDK+b0YB88ygxDrl+Iqyr4YuJjgoetYre5ru9Q8WOm6FOLdWZGHW6JfHAvtvAyxAc58uE45S9C/5jWvWUCzPBpSTz8JcuBQ7+sLAfjSbusL/T+B8V2fOzfRPvPT+mawCKJlZD3/S1/60hKkKIGHrTe5GDToIUe830SH39Q9jgEE49lR00+CYPCMArMAhNe+9rWPUm6n0LOQUea+k2Uz5W9R+F5WxhRvSrs0xW2JQ6/73/kI0zImcDBxFprDsxym5fAfCqGET2sL2v3bikt5+L1DhwIa2ur7Uh27priSFDplX4ZB5Uo53O8zWDXlHxsBVEkB7L62xPk+hV4faIsDwjoK3fdOSsTSSGkcuJhgg99bPRMgPInWa3IggCBREuEr38V1giUuBgDBOFGKL3zhC8/cfntT8uo27sMdZh7KMitbqSDFCehvo0137Z4Be7LDLiry4FGiJDEIEO2b3vSmxe/5JCiUuzZAF23PDhC+3HNnAYT6ltB01rnTCMVpCLRjTTix0El9dn8ADhQhpYqetauA4qfclKecO0KYO87CAhq4AZ5++uklyZGtiR//+MeXI5C5eoAPQYcUplgECl09/MOsGxnvfvVXf3VppqO7ARZtsLMIyANc7GnXJscM/8d//Mejo40FQDq/QRCave52P2iTa61rgIFAxKjoo3ZLyDwqIMmWJgm27HtWv4BDoEZcgfJAjnt8+tOfft6//du/Lb8LnnzmmWeWcwWkw9bWecS463aA8PiK3gHCRSXc5a8DEBxfLNU1PWc9BM6uE6RdvuU3V0PuQbKJ7CLjHu1iwCCwvN785jcvguc6qa+be+Qn4047QDgfIOgjljq6VSpq6Ng8BwqcW0GpU7LOr2BpUZAUHvaAQqdUP/e5zz3vd37nd5YgXrsMnI0gYM+ComDtcXcKoIDDV77ylcvZEKxu8SAsbYrfDgBnhijvfix2OUiclGirsXYCLk4jFGAm4ZWEN+IqBPxR6lxHghuBEMeyUtTf+q3furQDG/D6179+OfrZ93zPnofrEEDIRUDhAwZyn7Aw3VM7P/zhDy/PASiJHSA8nR757LPPLiDJSYkAFB+lGAMHpOmDQNPOIByXOTtAuD15DCDY1+9kUgwCYNvumttr1d26c25YstB6J5seMQgWPoBAEO0xCHdr4M5rzQ4QzgYIUfV2OBAOFCBLnmJkbVOqXBOOBmZBszT8AQcsf4qbFU7hAxgsaDSxMxNe/OIXP/LtKg9AYCgobOwARU7pAgh2I3ix2il5oINfVOwPa50CJrQwDQC7XP2UuPM17GPnQwZygAJg4Kd/+qeXlNrWrARZ0viKPpYN1bUACEWvjejVsm3qj//8z/983nvf+97lCGjPgWngFvFc+sWcUv83f/M3L6wIsMENQYg4Zhlz0nZMbIZ+A0J2gLADhPPk1W38DrRbG9Ym0PzqV7/6id3yeaz/i10iY7CPjwEEAgkVujMItzF9L3fPHSCcDRByP7B4CQkImbJGobVlT7wAAME6ZknLle/oZZT6P/zDPyxggRKnAAEKdD7liZbHRuRbR6vLhKichfb/2rvvMOmr6g7gwz/RWGLERMWCBRE1MQkGGxIgigUUG1gjNuwFjGBvaCyx5SGxRZNH1Bis2MAOiL2gqNiDNbEkGFNMMyZKns8l3/c9/Jzd2d3Z2ZnZ987z7DOzM/d3y7n3nvM95Z5rk9HStaMMqwSLAOvAnnvu2awX6ieoCWb+/LgICH5AQmAVf3USJhmHvopQf/GLX9xcE04fEfRuZJVHHcBRxnlmbRD26RNXiJTc3CxcJtI7c71wY+iTvrJqAALyonixSrztbW9r/ZeRDz1YPa561au2PrDKsKrEXMuiANz0GISde7tbEKbjc9M8zfLGGif4DqhmfUuw7q4cF1NpmqBoQAEfYXHcYUGgfeSYIxNqD1CcZjlu7bMdIEy2IFj0BDvmwLzP3M9icMopp7SjeCeddFLTmvfff//RoYce2tLhAgSEtuyirAhiBeQGoI3wYQLUBDogQKDSwrkGaNxcFYAIQUqbZ0mwr25729uOTj755KbZs0SIPcColOXrZ6mgyesbsM5ywDogiVmCzPgH9YtAxvSe8pSnNCDCYqDf+gXoxILAFWIM0e4xAi4Gf4KRPvOZzzTrBOHPjeIyISl6uWD8icFgmgVkgCK0YFmRhIe10Xi0CSzkZUxADctCD1K8kCodIGwtX6ytJWCT4GNFBBD666IUCECwd/Gci1gQOkBY3uXSAcJkC4LFz0R+wgknNEbNSiAAkcAnlEV5X+Ma12hHEg855JB2nwWAwIoATBDmBCOBx0Vw/etfv2nOBKaXurgCmC8JeC4L2rgYBAL6oIMOalYHbbAwCIok8FkyBDg6E3/66ac3sMEywFUBzBDKtB7a+E1ucpMGJMQECGIEEDA7Y2IpAHxo7OICABSACBDhsuDK8GKp0B5w8KY3vam5CYAA0d1AFLoADAQ/1wRAw/WoPcGRrC4AEgBhjECFIErtJIFThCGAQNHg+62nIpZ3p03X8w4QpqPfNE9b59wKAHA/xTCekh0gTLPCFvjZDhBWBwg5JshdwGJASIsJYF4n0AlpGvdee+3VzPtM7o77SonMdM5UDziI4meOJHyZ6QEIWjTBzYLgBBCBfqc73alFS3ve0UXWA5H+Ah9p8iwATgEADJe85CWbeV/QFMGsLLAAHNDc9Zkbw7FNwIIVgzVh3333bfECwIPjrIKKuEmOO+64diojJyH038kGzJE1g3WDJUN/CXgWENYBgZiEuH4ANOIKgCBAgJUBYOHiAGCM69GPfnRz1yjnt+HNhJgN60cHCN3FsAis0/q2Zt2MCiDYY7lkrJ9i2Gnh8qlbEBZhxW5iHzpAmAwQcgRSIKAYAD5JwpugJOQFHwrcYw5nvt9vv/2aVs2yRrjS3CX+oVkzTzLfP+1pT2saNaFPQKuP307dLA+ACPcFMEFzFxdAkBLIXBR+J7xZJgh74EI/ae78/SwF4gFYBGjv3AA2rzaOPPLIpr2zHog9oKXT9gEglghWDKBHQGaOLrIQ6IvxAiKAhsBLFgFARduCH/Xl4Q9/eKOBF5CiHWAAyNAOq4TgStYUtxICJWkz+RW4bXzuFoTuYthEdrehquxJgNXpG0oBIJyU4h0gdICwoUW1LA91gDDZxUCwMsHThmnfzPsEnpgBAo4QJMS5BQhS39GwuRCAAtHPTg/Q4glIGjLBTvtnjQAYuBMACW194hOfaIIcgKC9EPRHH310E9ra5bcnZGnwAhsJboxK2wR/Lk8L4ABe1OM3gpgWH9BDqKvXdzR8rgX98J1+AghJ8uR5JxBYRQQ3nnPOOY14jl8qe4Mb3KD1SyyGcauPNYTmBaRwI6AL6wJaiZUASAAhzNczSc4EgPjcYxA6QJg3LwVs7WFBt1yDPVHSL85IdzHMe5XOqP0OEFYHCIlWpikDAYJvmNMJPAKSoKNBJ4EQoU1bJzQ9i77M94S07/ncCb7Q3TvhDizkAqVcFpWUxASr+nKSIPcweBbQ0B9lk82MRQOQ8b2/ZE/Mc8mkaOS5Z0NdYgW0pX/GE9ChjpoVES24MXwPvKABunB75DimZ8Ur8NsaWxItAULKcXDg9pEAACAASURBVJuoE+BRljUkFzzpH+ADkHSA0AHCjFjfmqu1LxzrBfABBFbA7Ns1V7LNC3aAsE0nuAOEyRaETH2N5Kd5e8UXiY5JVxzhqnye8Z3fvcJc6p0J+b6+R5uOGdMmzH0LAR+EtFe93yGCPW3Xo1ixCqQPyiTJSW6ETD/VWzPGeSZtsTQALYQ4UJB+pXxiN4CepF/WR3RL+dqHug595pLpAGEn0+lBivNjwAA7q53jxVwM3H0dIFx0PjpAmN/6nGnLHSCsDSCgU/zjEajRtKvQJyBjIVAuR34JyoAJ5QMYAiIiqLVDkBLSTPQx8QcIpK0kJqnWiGoNiDUhIKZaC7KgYhUIIAjoiX81dehbBQ2xQOTCpjqugIqAiQAFdQyBSkBFLZvxdYDwiwxYnEq/i2Gm7HBs5R0gTKZ5BwiTabSUJTpAWB0gRAvPO7eCP3EG/PTJYSDdMM04QCJ0JUQJQscknXyQ8jhCn2D1Wd0BEMoKFpQXgJsgboYIbZq7ExFOP0hOJNBPUKOjkLlcK4LeyORXEOMgeDG5FQJK1G0Mua1R8KG4CkmOmPwFXMqv4Piio5oR6OoNeEi/IuSHm6DeJFnBQvpQAUUFCh0gdICwKAy1A4TJM9EBwmQaLWWJDhAmA4QIOZvAXQjyCjglQDhKNESICtqTHTBWBoJZLABNnxDmU8do+C8BA7kEHIsU2CdGQfk8K68Cn76kS8rKkyD9MsHtFIVgKc/yiTqxIABS5kS/66t2xEVISKR/+u3UhFwLYifESQALggMdmUy8hOyIjjb6EyPgZITATHW029l2260RSz/5ZXND5EqWgBrhHeE/dFnkRsxYDroFYTwb6S6G+bHXDhAm074DhMk0WsoSHSCsDhDia8QkaNSyhLkfwfFFEf3yCMhpIL+BhD8i8VkDROc7+SAIjwYPLAjCc4qA8CegHZcCAgh5KZWdDhDM6B0wYCEQ2Mi9ID+CExC0fELe79IgO1Io1TktXz8EELrHwfdcFPoEuAAP2mAZYO0wDiAl6dGBiWc+85kNjEj05Biim1kFZkqkZFyAhfcat1BdB3UtVXCQ8gEXcVHk+7geugVhZRbSAcL82GtygBx77LE9BmGFaegAYX7rc6Ytd4CwOkBIvAGhK1CJCZ4QJbi5DKLJSzrEWiBDIfM/MEC4Sqzi7gK/0bgJcYmLHJWUhVASJYBCnZIGAQuEPOEsSE8CJUCAlk+IS5TEF+2IIKAh42COXrIa6KckSRIRya8gF4O6JEkCGCRO0j+WAUcfAQFAx82UgIEcCdqTn0Hf9DsZH4844oh2qsA4cvQxAKECgkkLtgZ45XMPUlydah0gTFpVs/sdQJA5FOhOkOLsWlvOmjtAWM55m9jrDhAmWxCUIBAJcRcXiTsgSJ3xJ3AJezcWSqYiDwBzP4GJqQAUNH8JiVxURGAT8I76+RPLAChIaMTq4C4Dt6EBHlK8OsYobwALhfgFzIqLg8CnzYuHINAJcwDhdre7XXMRsBwAHNwGjhi6wll/WCVcJ+3YFouAC508514Gn0VoAzHWhbYkfOKGkK/BcUYWkMQPBCQkjmLiYlulQAcIHSBMs35m+axESfaSS82GeRBm2e4y1d0BwjLN1jr62gHC6gChxh+4GfH+979/cwHQyvnpafKCAlkB+Okf8YhHNM1fumUBhbR0AECCIELcs+qUshhgkHSFhYHmD3jIK8BSQPiKTfAMcCAI0TEr2jsmxXohnoHZk4keeJHsCDDQNoamv25ndD+D5EWsGQAOl4M6ABXxBWIkXETjFkqWEfVIuywY0u2PYh30C6NkffA5Jxdq4OI6lt0vFO0AoQOEadbPLJ+Vx8M+45arAKGeypll+8tQdwcIyzBLG+hjBwiTAQIaEY6E75e+9KUmWF1gxCTPlSA2AVCglbMsELASBEk3zK9P27/xjW/cLAKE9lFHHdXMlTRxAEJ9NHQavIBHGj4AQDiLPXBTKmCgPHDBzGlDaksfxBI4zUB4sx6IGXCfwstf/vIGMpxgYCVgobjFLW7RXBIAASDjJkX9xQTFVXBv+B0ocTpCVkaxEqwJXgASy0dOawzzH2xgCbZHOkDoAGGja2fWz9lbUn5Lc87Sl0yKHSDspHwHCLNehXOqvwOE1QFChBcmwURPoBPcGAUNG0CgWQgS9LvbC4EBgpwVQCwAAEF4szLw9XMrMNt7JakSQECbV5a1ACARDOmSJqZN7XipV2Ck0wzKARWsGSwIjkYCH/ogtoA7gxUjsQkYHBeGwEhuCi9lAQSnEoAZ9bNUiFcQ1GhMLAuCG+PGSNxB4jO6i2H2m7fHIMyexiu1ANgDxgAzcA5Ie3WA0AHC/FblFrXcAcJOgECYErhubuMWYEZPtsOc4RcUKMDPZUI0dC4D2j2BLrXwU5/61KZhe5Y27kiiMm42JHxp8eIECH4nEpwuIIxp8LR/QIELQJ1yAdD4BQyqm0UCyNBHACAXMIlxAA5YErQpOBEAcKwxd7OzULBqACzKAzh+E3SoP8YJtIh34F5wckL8BIYIOAhUrO6EJGqKJWE9QYrDpT3Mj0AY6r/xmAsukLTj2Wna2qJttenNdICw6SRdc4UAgrtQ7F17ngWhrsc1V7SNC3YLwjad3A4QLgoQaNR89m5LJARzD0Gm3wkBTOLwww9vWryXeAJ5DAh51x0L9HO8UVwBKwMNX4CfTSRokPAXIOhkAo2ei8GJB7cjKqttFgMC3UtgoXnilvCbXAzKEu7cBIIQAYcTTzyxHYEUNAkIsEAQ6vrnKKTfWALUx1XitkbJleRwADDENBxyyCHtxkb1siC8+c1vbsBFvMSsBLOxDY8+Cvg844wzmrUEuPGqGSy36XZccVgdIMxvxrkIuRhYEDpAGD8PHSDMb33OtOUOEHaSlwXBCQRmeomJkmI4Gq6SfPpyGhBaySLonRVAOYDCsUEme1p/EgHlOJ/vWAkI6dxjQEPxnN8EAOaCJcGPOa2gDfUy57NWAC/ARIS2vAriG+RcOOCAA0Z77bVXAw2eY1UQQ6CsOv35Xz20c+DFu/gH705QaIcGL3BSMiduilmZVTGXpJ7OfRBuc2QJAXrQOhklh2mfZ7o5FqjyDhDmNxkdIEymfQcIk2m0lCU6QLhw2izwuBho6oL0orHWtMAEfgRlzIz1XD8hn3gBwpkwVk9uOSS0AYO4LnLvQkz2NYWxz/VeB0Iy8xWBGrM/YZ96ldNuLnuq6ZDTZ4DG9zXts3H5vt77kI3vuc2INZi0SXLzJPcKjc2tkawcGWesOrOyZkzq37x+7wBhXpQfNZDeLQir078DhPmtz5m23AHCheRFBxrz4x73uGayFxuQuxIitAMUfM9C4D2fCecqzNVJ2BG2vs8VztGWq9CuSYcisANaIqzrBlQmwl+/vdJ2AIm+5qKopHDWn/Qzt0EG7AQYpKznfVfjMJSdpWBO28COhFH6yILAwhEgtRkxDzPdUDOqvAOEGRF2DdV2gDCZSB0gTKbRUpboAGEnQCCYpEcW/c8KEIEVQTv0k0eIJ5o5wlP53HSYRYHOEcKxQkSwxw0BKCinbYCCMK93FeT5vEebznPKSpzkpARgcbOb3azlP2C18H/14QcgBDSoQ3vqNo4I4mz8fDerRR4rDFqin3gOIE2QptMTsWB4z3zMqi+LWG8HCPOblXEAYdZgeX6j3VjLHSBsjG4L/1QHCDunKMFyhHt1K4ybxGjuYRQRcHm3YYbAIQI675XJ1Prifsh7gMewjdpW7jUQjCjwUbyCZEmOVwbYZBzqrfNeAUHtRwU3s7QcaCfthu5oxFJSr5lOP2fdl0XctB0gzG9WnEKSMdXlZUmUNIk/zK+382m5A4T50H3mrXaAMHMSz7SBBFDSqm1SJytcxiSA0UkAxxNrjMRMO9MrnxkFOkCYGWknVpw8CB/60IdaSnKJwxKPsyuC1XEE6wBh4jJazgIdICznvFXtPsGMHSAs91yu1vsOEOY3twKPZTOVO8SxW8eB4+rqAOHCeekAYX7rc6Ytd4AwU/LOvPJuQZg5iReigQ4Q5jcNsqfKJioHCoDgGHSChztA6ABhfitzC1ruAGELiDzDJjpAmCFxF6jqDhDmNxmCl92zAiRwMdz97nffcey2A4QOEOa3Mreg5Q4QZk/kGoA3DG6cpvXUVU8cJAbB/QrSFbtxMichVmJmNd/DuHiFcYGLK/V7XCDh8Pl6IiLtzZrRZp3X4LLar2E/xs3TanSogaRos9kBleZI5kspumXxNLezDJQTue/CL9eNyx4oO2ddJ9Os22V71pFm2UulTedmcJdKbjOd9bpdFlp1F8OyzNQ6+9kBwjoJtoHiaDxMsBQhsoHqdjxSgUHqw9AdDdx9991Hf/EXf7EDINTTALXNCjJ8n5MXSdw0SdANLRj15EbGHOaR3A05pjip7mlok2frqYgK1PJ7+lbL17nJ/kifa/kIh7QxpGUVqNNe7KNu6bHdo+FiMHeCxA++GXQa1gEguLpc5tA///M/b/d+1DUxizYXtU5Hjk8++eR2iZm7SaRS74G/F52tDhAWdfVO2a8OEKYk4Boez+ZJboQIks0QGsP8BCwI7lNwigFAuN71rtf8pSsxtCrwAjgi9HPM0hCTMGmcFl2PUeYIpWeytlJvjmJWgepzfWYN5FxXkQjxHDvNeOtY9T99CBCoYCJBoBlT6lhp/gKMcrIk2ua6Oj4orE33ewAIru+WijpjmKbelZ6VhwJAcLtoAMIs25vFGDarzg4QJlOyA4TJNFrKEh0gzHba0DdpkZP+OJrltAl/IvSr+dw9ETTMuBgAhAjhcSP1W82qGCtCBOpazNjJBOnZJFoKKFF3BGyEdbIipo2qsc9iNrQTbTu0qm6X+llZf+l/HVvSPdeEWbW/AVZJie234dg3Oj71uGzLzZvyXAB/s7QgAAjHHHNMu4uDi8H9HKuto42Oaxme6wBh8ix1gDCZRktZogOE2U9btFHCxqVK0SxXMvuvtUfqq0zb/26VvPOd7zy67GUv245m0TbzGgdIIgBzAZTLoqIpJx00YOOol4yMQ59r3CcR+rmAylXWfvO/zJD+wkSYr/PZrZYugprWmjKOZulbaKRNzN7LmNyPgSb/+I//2C6p0kf/G6fx8j0HMPlNXyP8/W4uQ6u0H/BnPMr/6q/+ahvbtGAQfc3toYceOjrwwAN3WBCmrXeltYYmbvU877zzWrwDF0O3IHQXw0rrpQOEtXLtJSvXAcLsJyxWBObak046acfNj9MGOMU0XuMGXBt96qmntkG5kdIfIUKzHwKS9IsQ/973vtdud3SddIRcrrom7F1k5VbIcS4G5dUBbBCIrpfm6vC/WAhZHQlL4/UdrZSAVZd7L1g7pqXFagAhl1IBBZLeeGkPKAASXMHtQih9RyvjZYmhRce1AnC5ElvaZ3RHDzdnBiBUa47f1XujG91o9JCHPGR05StfeWoAhMZSgB922GHNQiQJ1iwtCOjE585qYc3ut99+u2xyoG5BmMwjO0CYTKOlLLGoAMGCW8kUncUYn3YYfph0notpP5pPzN25f6AGsMUHXQOxYgKPII0vOSZrz8cakD5E0EUgp15MRia2e9zjHk3zrL7/aRZOYhCqdhcBv556q+CvcQ01XmAcOIiGHdrXtvNdhGjV5DN3k+IPavu5o2JcP2o9wAowkHJ5r0GFoVfu28jz1f1TLTQ17iAxBuP6YT3ECuEuCal5pbue1kKiLddx3+Y2t2lxCLR6301rhVppjSQG4Ywzzhi9+tWvbnEtcbGsZ11th7KA8dOe9rRGc/EY97znPXdYlrbD+DZjDB0gbAYVF7CORQUI8ecOBUj66/vKwFM+TDPCIH7/CPAqrCLcIqzif8Z045eOEAiDz/cBCd5TPslT8kwVlp573/veNzr66KNH97///Uf3vve9pzY7L+By2tQumRfACl0TK+G9CsUq/LM26u2YKwnmGmMxdNXUNVItAwE4w7stMui0//3vf7+dmQcEnTZgxdkMgOAUA0HNzZBjjtPWOwkgnH766Q0gOF5Z99CmTvSCV8ba5VZRV49LlFRPMczC8rXg5BjbvQ4QlnHW1tDnRQUIup5FV4VAZf5h3hHwVdtM4F20ngo4Ui7gI6Zvz9RbD8cF6EWwxNIQYVG1uWqxCANR3k2RD37wg0ePf/zjRw984AObz7u/VqYA2iXoUakck6wAISAsZet8j5u/CLk8N7S2VKtS1kU9hVAFwjgLgvXAfw8Ann/++Q0g7LvvvlMDBHT4+te/PrrVrW7VQMIrXvGKHSb/WayhWBA6QBi1WBTHHB/zmMc0kMCCYN3E/TQL+i9bnR0gLNuMrbG/iwwQqok47oEIih//+MftjPYee+zRfMcVHLAa8CMrc4UrXKH5g/nmCWn+4ICACHtCBQNWnl/axudDv9jFLjbac889d5iqc+wv4EAKVr7qK13pSs2Prg59ju++mtH16QMf+EDL4/6Upzxl9LCHPaxbECas0aq9R6uPgB9adqoLIO6pWHRWaybrKpfvmMO4CSqIyOe0O+7oYgCF+IQHPOABLd6Bpg8gTBtMaM2xTLgoyIkCpxhi0VjjVl9XsQ4QdpILQHjDG97QTnW85CUvaZkUe6Kkiy6nDhDWtb2Wp/CiAoT0K5YA/zP1hYEz1z/vec8bPfzhD2+BWwLsCHWBYQT5mWee2dKi0tZvdrObjZ7+9Kc3kPD85z+/Bc5huKLVE7WP+fIXSzKEAT/pSU9qAXTPeMYzWn1xKQAeGAY/9znnnNPKOXbGMqBv6gRYBOVVk6zf9EkedwBBv2flP16e1bd6T+MeihAXSCkAEoirL2vDyQgmfb9j3vzGaJ7/hy2ZT+DOC2j8wQ9+0OZYIGIsQMM4EcGMBKfYAutm3Px5RvCiedYnRwTdqLkWsLIaNfQJ8AAQ9tlnnxakGPfWLOa7A4SdVE2Q4qMf/ejGI8xBtx50gDCLfbdwdS4qQIgWGDeAEwDvec97Ru5mZ8IVXf2Vr3xldJ3rXKcFgRHauVRFWljM9AUveMHorne9a4s8p9HR9KF/QoC5lobHFCyCnfXgOc95TmPqUqmecMIJo/vc5z6jBz3oQTtM2wTOKaecMvrgBz/YLBNMyGeffXazMtASCTD13u9+99uhZaBv3BAAgvgD/mkWhGF8xa7sz6zm+koHQp8gZi0SKGY+AD5gESh0QkJ58/K2t72tgS9zAxwCcY7qmf9hgKI5kTZXPQ996ENHr3nNa5oQN3faS1yJcubdSzS/BEU0yTvd6U47YiO0U90ZgKi1A3R4RgzCtHOrH2IQxB+4zltcAJpNa5lYiSEl1XJ3MYxaHIy7GOJiYAVcyX21cAx+izrULQhbROitbmZRAYJ+xVoQK4KNSrOhtb///e9vWiLtDzMm+B1Fc6YegPjCF77Qjq8BEKK/CRCaF6GsDGZrUTMdckEAHm95y1tGH//4x5sAev3rX99AgucJKUJHe/Kxu98A06eBSlwDKAAoYgykOhZfwE88TJgTFwNBByBUF0T1pU8rTLZ6DU3bnrEnUFBdhB7hCnCx7AB+jviZqyOOOKIduXMvAdAIEFz72tceEWQCyBzNYyFyWsTfkUce2WI9zC+tf6+99mrg0ZpiLjb3j3vc45qmrx4+fscwL3OZy7Q5P+uss1rbV7nKVUbvfOc72xybewCBhcProIMOahkrk+8AQBDIpk2AYjNiEOwHY2YtEzAIeFQL1bRzMHw+AMEpBmPYlYMU8R2ADEAAPCkVsTLtant1pXXWAcJm78AFqW9RAYIFx1xfM/Jh7C5NocETArR3zFkKWolcuBcweRYC2uSzn/3sZg70HFAggdA3vvGN0Y1vfOMGEAjsF73oRaOPfOQj7TNgAYAQELRCgkD7BAStgfDgVqB1uvqVAHnmM5/ZhNhpp53WXAjS07JaJOlOGEliEICZJz/5yTsAQmU0NehyQZbHlnUDGExMiHfgQJIe8wUYmANAAQhk4QHcgEOJoFgSzj333AYKuXtYmgBCIA1wY+Eh3LmM/M49BeyZS+vniU98YmP8rD/cB1/84hdHN73pTRsQOf7449vzUldr3xrjZrI2gUhrjUWBZp8TFrMCCOgBCAOoYhtmeewwdzEAXsBIxrcrCsRYEI499timNHAPskr1104KdICwTVfDIgOEnFggPAgKF6XQojApAYQyyxHihAOtEzhgfmUy9puEMoSxeADxCoTK5z//+aZVCiok0AGOBClqh+tCPAFTtiOJBD2tFbjwvfYx52te85pNQ73Wta7VtFECjDChoWqTxplNk+A12th973vfEV+mvxzf83vmYVc1XcaKkG3mf0Dsda97XbPs3PCGNxy98Y1vHO29997NDXT7299+tP/++7c5J9Df/va3N+uPHAGf/vSnGwj0DGF+9atfffSOd7yjxQaw3gR0yjQpnuG4445rAEHsCPABzLEgWHPaFscAYFgzT33qU1siKlYpa0lU+8EHH9wsEcm7oZ1ZWBC4WaxLwMga3AoLAgsKgHDLW95ypu0tMnsNQAAE7XHrJYm/FrnfW9m3DhC2ktpb2NaiAgQkyKLzLt6AViluQKwAhkxAMOnTHAUT0u5oiV7KCzh81rOe1YCBGAQnHlgH+JltcJYDpmUCAHMneFgUWAN8x2oAGPjD8Fkj3vrWtzbrw/Wvf/3mQqBVqkvf3v3udzcTMCsBARO/uroJHZqtK3RpgQQNk3d8yDUeYVZn27dwWa2rqazBJDdKZkdCHUCgvbMUiNw/4IADmgUAKDPXMhWaH1Yc1hsBgdYE4S0WhYAzj9aQtYPJ08R9BiqUFxNC0KsDwGRx4ma6wQ1uMProRz/a1gQLFBMzd0GyVQp4JbDNaeIWzN2sLAhcWsCvdZxESbNaK/YCWrHWcTGgyywByboWzBYXZi0Sg8B9BWCa78SdbHFXFra5DhAWdmqm69iiAoQa3Ff7KPaAcKWpE9KYOUHPR8jNkOhiVgVaj1MM0fwwfJYFZmYmws985jMtUI0AEmdAwDvvzL/seS4HLgSWA0KG6wAg0CbtlmtDZjXCCxghtIAR6Yoj8H3HUkFoffjDH27gg5BRFysDUIPh5zUrhj/dKpnt05nrelQR6BNjgH5OoDDlswYAEQQlMy8XABBgfgE/wtMZdeVEm7MccENl3rgnWHe4FwAEgEOAqrgS8QjmFtjwbh6BPMGLwCbAwFqUuBLrIzEPQEJOKVh/swIIQKggVy4PeRBmuVbQB+CydlkQEoMwq6DI2a6w6WrnpuJSZD34kz/5k2YF3FUtfStRckWAQDuCyJlw+XxtuF0VaU63DOfz9CIDhGjgCeDjAqDRCFLkhwUQCGmaubUnRiAX/xAwtB5AAiMFAAgPgtqzXAXcB55TL1/rm9/85ua3dkSNeZlGqW0aJOYACFjvEQbMzAQVdwHTtLKYSRIgYSK0D7/RRJP0J8GX+oHhOIWRPbMrMmDznNwSaJiESD6bB4GgAkxZXJw2MefcTVxISXWtHIDAOgMgAG4CB7mMWIwACOvFHH7iE59oa4LbgAUBiAQorBEWClYHoJHPWaAhIam8oFdrjWtJDIx4FWss9xQkxfesAIL1aG2ynMw6BqEec0wMwq7K160Lx0rFHzz3uc9tAMGrH1PeKbNWBQg2LMJhtvxjCbyaj8jrra6HAssAEPSRYP/Yxz42+uQnP9kiyaOp0+b5ngkRwWq0/8MPP7xZCu54xzs2AYChY/j8157nQ+anZjImEJgP1SM2AbPnMqDtC0LTJkHOX82tQbgkoE5QGzM17SrXKgMetFr9iF+dFYKlAqNJTgXMRWyDfWPP7MoWBGNHqwRp1vVrHs2t2AKWFsoIi5GYAVab8BpzQZMnuFl3CFPrADADHM2LmASxC8zngBvaW0cAp/qACRYEp1JYd7iValItLg/m5Te96U0txgEgAAiti9xWmRMYmx2DgCYsCAEIBNYstdieB2HnKsRXWJLwC6ARoBQDxc3QXxdSYKIF4YUvfGEzx4rs7gBheZbNogKELDqapT4SAAQDsz8zM4YcBE+rxKSVE5VOEBACzPkAgsj0vFgWRMXnKBwmz1wMBMiTYNNb7AAJlwPgwAIgeZJ2xB+kLYIoAW0EA2GiDCua4Llot/zhYiA8i6lrU4yD+AiCBLPJa1eMEjf2XIDks3lEWxq74E9+X0Ke68Z8OHFCiwPkgL5YBTBvAt//fiPECXNzxDXlGUfUrBtADaP3zgLEXQDAOfLICqVMrBXWA1BoncjJD1BwXzDDW0/WHLBi7XjOEc0OEJaHB07qqbXIhWlt2Md/9Ed/1FyUszxFMqlPi/b7qjEImClmxwQDee+qTG7RJm0t/VlUgKBf9RSAseTcOSY8vKkxpv8I4Lgl1BNBnVscaQQikwkRv6WuxA14T4IcmmaONIVW0SoDhOsdDvV2x1zspC1BlFwVyQ7IyiDegQtk6FbY1fZPnesklaLFs/KgnVMBEiIBhQQ1Qe4Z2ru4E1YfGi8A6TPhbQ7RmnVIwixCHINPfIj1wWqgTjEpTPaeE4iaNcMKwY0US1D6AgACidrXTyCUJSoptjtAWAvnWZ4y1puYD8CQG4ucM/+7ojtwpVlbFSBA0mIQmGCYcmdp+lqeZbUcPV1kgBCTc7TLJBayMROfEEBQ11wtVzVTM0LAVLNxgs7qxU2ZuZzLj9AKQ4jgDwhJuQoY0h9l1e2InjgGPm3AhFYsoZK+JGtfntnVAEK1IOTIZ1Jhx6+Pxrkvoc5pPT0A+GHcWRPqFY/ANE+oCzqsN24KVlSWxYCgNy+OPWa+Y73KWsu8Z04zT+YX0Mj/HSAsB+9bay8BBEGsXOhyZjjdUY8or7We7VxuRYBgszD78eeJELYRO0BYnqUwBAiElsArJtfM5bxcRvFLx+wcBlz7EzBQKR4BkQyMMSmH4WPosRJE4/fMMCq8AgBtxnJR8+pXEBGwkaj8tK9vzOUYi5MTouFpttwQNVJQgAAAIABJREFUXrFijLsAaBFXEjpVGmwGoAmDGcYhhL6Zi9Cjlst6SErkzEPyaGSND4PKjKOWUXfWQIIm810FhVmPAYwBNb73GUBw6mUzMymqu8cgzGc3AJ4sCKyAZJzTHeEpm7H25zOqzW11LED4+c9/fkGSxIjGFoPQAcLmEn7WtVXGLOCOCU10uJgSPvkqnLdyM4SpBwBA8Uy+/IFh9MP+BFB4ViS543C0QwKZhkdj5DKowCf0reCjMvwh8IigquWHdURzFTfhyByho88CnfixBTQ6eif2IIJuXIDerOd+o/U7TXCb29xmxz0I015EVNfYUPAP57jSKwI5zw/nKpr/SuOcNM/j7soYV2etx+8SGjk5sdkAwfoXR2H95i6GWR117EGKO1cNV5J8KY5Xu9tD7Eq1GG10H22n51YECPx8TjFwMYj0jlCZ1cLdTkRdhLHE/+vdsS+R4CwIAIKA08xjNKitBAkVvAj04/sjVLmxhq8w6ZifaYA5TuiZnB7wHGGdujdzDqqg0D5QkyN7fgNuROXzdTu7P3R/bGZfZlGXNcIP78igOxCcLjCumP5n0eYy1Zm9lNscvRPksn1uxisWBHFekhd5zYrPdoBwUYDg2KwYBMea8aF6AdhmzO2y1zEWIPzsZz+7gEYmBkGyEUFAzhp3F8PyTHf8rZib+wtcIiQpjAAux8rmBRBq4BoQ6igjK5UNKihs+BqngVdts/6+FSAnlo8KXGwiV1LTAPm6ly3ISf/59GUQdFJAQJ/I/WUbx6x2Z9Ysy4FTDKxYrEabARDUzYIgS6c8CJI8+W5WtO8A4aIAgYuB5YCF1SkGlsn+2kmBFWMQaEmYhhgEvhna0SwXbp+UzaNANZfStp39d4zHPQNMaiLs89rqOIS4GCw8TNDRNnERNqmLdOor40gcQWIA8n3iDAISZgVgq1skgZT5LhYYlgWvZbxP3hrhjxVgCUTK9WAcyxI7sXk7Z+Wa4t4iyGn8AIIMntOCUvUmtsGdEXJ0hPazGFcHCDupSsY55SIlt9TeAEKCYWdB+2Wsc0UXA6bBz4p4AtwcM+oMYzmmuGrpBJhLb+LjZFIL2ItAnZbJrZcqiSnQN+BFXn5pd+PGGgcSKqCpRw5TVwIU19uX9ZQPKMgzsSYk4M73ywqiCQ5HmgVYCsTDKPt58J2rw7zKwSG3gngTCY2k1t6MvcOCwGrDzfOhD31opn7wDhB2zilQbB6dYOCCrQBhM+Z1PbxlUcuueszRhqDZES6Sk3Sf5KJO40X7FQ07QEGGQhYElyC5vIaLIcfMYkHYyg0Roe5dBkP50EUSSzI0fFUrgvI5Flej3yO4Z2WWrQGM1Tqjr/Uo5DIDBImqWBBosVyKXCWzssgsxy76xT3FoopGhDhXAAvCtC/rh8tCKmkuXTkixNbMivYdIFzUggAgkHEAgmD8HoNw0RUdgMBC6kI7yuVuF1xwwQV+wDQEKSIe/1gShky7Kfrzs6VA1XTNoyBFViBJX8QgSAHM/5/rcbdaU6xuBilz42LI3QWzpU6vfRwFCA7R3BikoC25A/prJwXsIxonGrk3BEDYjBgE9XIxsCBQyACEJPCaBf07QNhJVacYxCDExUBJEYOwlcrSLOZ4M+uMUoZnu9NmB0DwhcUkcIlwIVRYEGalpW3moHpdF5q68+eOAiDP6QU+TsfxalKYrd4Q0cItPlnyBCmOi0Ho87h1FOgAYXVad4CwdWtxq1rqAGEypRP3Zf07Li+OrVkQ/CAGwbE41+I6vhXT1+Rqe4l5U6AChHe9610NILAUuIdAOuBE4c/KlLna+IcAwRqD4odBivOm4a7UfgcIHSDsSuvdWDtAmDzjcQdzMcgaK/fMDoDAxeBc9NFHH90uvUlimMnV9hLzpkCNQ+DnN4d8qK61lee+nu2flwVBHwUpyqkPIIiR6K/5UKADhA4Q5rPy5tdqBwiTaZ/j8g4tCHB358luMinGxSAFpahmN+l1gDCZoItQogbSQYDSAcsAJxiKNYEFIRaGrYj+H0eT9FHAFzdWAEIFKzVAMXUk8DJxE/5fCeDUMXq+lo3pbHgPg3LDPozL+pfgxNXA1bBv+X/Yj0ntVfrFJzg8UZQ6k2I4dSbIaFKcSQcIHSAsAu/ayj50gDCZ2uEfAIL4tT333HOnBUHQzHHHHdcAgjS9OY8+udpeYt4UqBaEAATBUHExVOE7LwuCxceCwMUgBuFGN7rRRdaYDIXnnXfeaJ999mnCXVBlQM6hhx7a4mKS8Q+9HRMTfJlFLTMgN5ngTAJV8i/H9/wusdErX/nK0T3ucY+WWlgcxJFHHtnAU4LE1G1j5NIlffDZsywx0iqL+s+dC/qg7lz44tmY6JTBkLSvH9x1qTfPB9AkQ2RNxpS2BchJfAVUJWWwNiB9aWIF0bkGW8pk9HAZjfFIRJU0smknqa3jTuxBiivv2h6DMG+Otvntd4AwmaaRE3gZPi2HTnMxeNSxGwDhqKOO2gEQtlqYTB5CL7Gahm4qhwBBVszhzXVbScUag1ABghiEaObAgYDKN7zhDSOnG84+++zmJvG98/rOoxOCTtckH8E73vGO0Ze+9KUmGN2XIFW43wnHW9ziFk2Qi0T3vaOVsjje+973bgLUjW53vvOd2xFQgASocD5dfQS6i8v0WzpcWQYdiQIwpN0l9NEYINGetpjiPvWpTzUA5DPgoowoaWMkrG9729s2n542CH1zIlERMJ54H+PwLDCAoQkUMk7R1wS8FM/qu/Wtbz267GUv2y6dyTXtMv/Zv+qUaz5HF3MpU6wK6AdIdYDQAcJW8oF5t9UBwuQZyBFvPIgreO+99+4AYTLZFr/EahaERQQIzt4nSJHA+s53vtOuGSe4CHaC8OCDDx594QtfaFYFWvKBBx7YkpwQ2EzrBGziLJzZhXYPP/zwlgJZjgXaPqsYtwaBfMYZZ7R4DEKbIGeVsAEOOuiglvfDpVCAhOAcVjQMRQ5+bb7oRS8avfSlL22WB5kHCXRn5B/1qEe1soQxUOMIpzTXriSWhU8q41ve8pbNXAccsASw7AA/QINkLdrOjZHGqx+EvTFJ0gPkSFwGFKCVcQEbLlv62Mc+NvrKV77Sjs2ddtpp7ZgyqwhrC0AAYHlWymDlE6TaAUJ3MSw+V9vcHnaAMJmeHSBMptFSllg2gAAM0HQJRovyZS97WRPihJ9cCYQZgEBgK8OMT/gzoRsr0OBWR4JUedcvE/gAAEFJ8BPswEbugHjkIx/ZhD4Lge9o5YccckgTmkADYUpgu8VPpkfCmbA//vjjG1BwiZnfWTP0DzighXM9aEefoG5jcxGVuoEEwtvJIBYKVpLdd9+9AYWU5+fTL8BHX3784x+PzjnnnGYJ0Sd/LBnquctd7tLADyuG46zoQ9izGKANMAiUqAd9mAl9l2u/0Q5w6DEIHSAsJaObotMdIEwmXgcIk2m0lCWWDSCwIHAlWJA2rpiEM888swk+R2z5/QlYQZbnn39+S+RDEz722GNHV73qVVtGRsLW7ZBe6uA6IOgBhTvc4Q7N4kD7loOduZ8Q9SwBCVAQnkAKK4TzvjR7QpnVQZAuK8App5zSMuixQrgd87Of/WyzHBDyjpJyf4hlQH9WEHeZMPMDOjR+LgguDNYL7g2Ag8B3KZp2cx03gQ4IAS/iRoxNHUCDZ+94xzs294ucFk4YsSCwQHBB+NM3SXeAByBJGywTEvywrOgnumadACHdxdBdDEvJ7DbY6Q4QJhOuA4TJNFrKEssGEGqiJAKc1v+c5zxnh2B2qRNtnWkecJDRi0AmZAluLgbCnFnfZ7EB6mFad0EVv77Fzn9PwPL7E+6ELhDiSC9BCxiwTgAen/zkJxtQ4dsXyMhU73flpayWcfBzn/tc0+S1RdgDC8z36J/r0oEfz3NdqJsmT7BzU7AWACJS7bqL4sQTT2x9NgZWCNnLuAyAIjETxspCwGIBNN3+9rdvMQ6HHXZYs5JoE120CSxxj+izsQIq4iZYHVg99CWXS+lTBwgdICwls9tgpztAmEy4yJEegzCZVktVYtkAAg2ahutFyyfsTz/99CZYg2JjNidQCWvaNNP8da5znSbwme/jQhDcxzJAkPqeQKTlAwJnnXVW06Bp6QIaBfsRyoTkMccc0wQ568Nf/dVfNRcBc37iG6TXvd3tbteCFJ0LJuTFHLBoEMw+Aw5eghT9LpeItlkQxCsQ8nLA6xMwoU/a1R8xDawaQIBgQ6Z/12BzH3BpACPKsZgIImZFYJXwQifjFs8AXAEI4iTU941vfKMFMHIt6Kfb63IyAp16DEJ3MSwVg9uEznaAMJmIFSDgtT1IcTLNlqLEMgIELgbCz8YlEAlOglcAoQun/E6QO2IIQLh2l9vBDYQEH+BAM5e+mUCkXUO+LAG3utWtWspwx3Vc8Qp80N4JYYLVwvc8QMF14XIrz2rHbZhM/cAEIX/EEUc0gAEgcCE45QPcnHDCCS2OAEAAAt7ylrc0LZ1lQfAg64I+iUkg7LkAgBcWAP0XP0HzZ9UwZrRgyeAmcb2wOAjuEqDJ+JyacBOmYMcENWpfzgv9F4vBlcK1YrziHvTZbz7rm1c/xTB5S/djjpNptGwlOkCYPGMdIEym0VKWWEaA4BQDQUeI85UzodvEhPhXv/rVpokT5AQ0bfi6171u86e///3vbxfoELyEnSOLrAHM6fzygh2BBMciuQeUZSXg8+eyIPwJXr9xGQAB8iNom7ZNUwcmnKRgteCuYF14xCMe0TR4lgBHJGnsYhQEHwIanmFtEKDIJWEMrBGCHNXN/E/Iq1Mbxg0c0OiBAtYGAYaAyWtf+9o2LvEL+glMoBWLg+eBBG3qP8DiVIW2AKZ73vOeDaCghVMNgjVZOpLXhNWlWxC6BWEpGd0Une4AYTLxOkCYTKOlLLFsAKEecxRQR5DR2uQjYDanQe+7775N6xWoKPDOGJ0YEIjHzA48EP5iFcQoMO+zQLAEAAOeJYRp03z1hDAtHkAANrSrLsKeVYKrQ+wDqwUtn2uCANYW0z+B6zsmfUGBBK62CFu/VfeImAjjIbjFNHjpvwBI8QbJ5RBXAWHvT9wBiwlLgD9tc38AQOp03BOje+hDH9qOT4rd4L4QxIhexq89sRdAjTaBCvTLbZ7a7EGKHSAsJaObotMdIEwmXgcIk2m0lCWWDSCIQZBJkTar7zRkmjEhTogy8/ufdh2zOKFKS85FYp4j5AEKApq2HTN6EkMR4IQrAS/2IIKZVu6z/AWe1U4yMmrP/wIRgQn9SD+5QbgTaP6JlUgysWRCTEbGYXrk1Asg6Hstn/ZljpQHgRWh9ilgx3fqZUmR7wGt/Ik7SBCiMTsm6aQGQOFERr26XR09SLEDhKVkdFN0ugOEycTrAGEyjZayxLIBhKRaTvrfaNJJJ2w8EaJVkOY4YO5UiFCPkM7zmcQAgpz/r5MbmqX+gBHfB2CkDwEpw3oreKl9GQKA2tZqdeeylNSb59JurTegJWOvbbCc+D9lMrZkU+x5ECYDBOBTHAmrEhcYoDXtyxoR+yL4FLBj0Uqq72nrHve8eeYaY0WTy4M7bbiWZ9HuItbZAcLkWekAYTKNlrLEMgIEOQj6az4U6ABhZbpnL3HDAAjiOQR7Ol0SoLXRWesAYaOUm/65DhAm07ADhMk0WsoSHSAs5bTNrdMdIKwOEHKKIQBBbg3umg4Q5rZkp264A4TJJOwAYTKNlrJEBwhLOW1z63QHCJNdDIJWJZMSCMrF4PhoBwhzW7JTN9wBwmQSdoAwmUZLWaIDhKWctrl1ugOE1UlvPzkJAyDIb8GCILdGYl82OnHdxbBRyk3/XAcIk2nYAcJkGi1liUUHCAk6zHXPT3jCE3bc5rgego8LyKvPD4P6/JYgxHxeT3vj6q5Bk+upa6W+raeOzSirH45myjPh1Ig8CY5Hhrab0cay1xGAwMXwvve9r13stf/++09Now4Q5rcyOkCYTPsOECbTaClLLCpAyImAXDMsb4EsgpIc5brntRB8eOIAo2XuHZp8fZ/fAkrq6YR6JDF9Wkv7yqTuPLfe5yst0mY9xrnWfkxbzjhE0DtJsscee7RETgBCTjhMW/92eN5pkpxiAA7k5ZDIqlsQlnd2O0CYPHcdIEym0VKWWGSAkHwB3iUCYrZ1bl8yorW8CGIJh5KYKGmGI6D9liRAOdaYo4TeMQbHKeU+wOAdAUw+gXFa/Up9CuDgm86RRjkR1vrK82kzwqZaONZa1zTlkmrZ8T1XaEvDLElTBwg7qWrdmGcWBImoHBGUNrsDhGlW3nyf7QBhMv07QJhMo6UsscgAQd8IVMxVWmL3CZx77rkt18BaXoS/1MJeEhfRfiUs8rysgdIL04RrhkIJhyRBkrZZBkLJlQAS5UMr5ZNYaS390LY2Xa/shkiZHN3doJ21vNCA7z/9TJrlcQmV1lLfRssERHl3D4UslLnlcaN1bsfnJJN6xjOe0W7YfNWrXjU6+OCDu4thiSe6A4TJk9cBwmQaLWWJRQYINeNgzVa4Vp93Nc3T/mMtYBWIpYD263N1AyRJUACKjIheASs+r9WCkDoId24S9x24I8Itim5uXOtLH5NJkUUj/V/r85tRLvMRi4Y6k2VyM+rfDnXUY45SVrMguNujn2JY3tntAGHy3HWAMJlGS1liUQFCiBlgoJ81DmAtxPZsxleFezRhdaTOtDPOFBxTfmIU1hNsGJBCoAcguJhJPEXuWljLWKqbIVkf1xvLsJZ2VisTy03NPllpOG392+H5uBjc2Pmyl72sxSC4s6O7GJZ3djtAmDx3HSBMptFSllh0gBABWxnseiwIEeoBC9VfPgxgDAhZSduLNWC9PnfPsWAACFLluiDJRUhcBWt9BSAMT1aslRZrbWetAKH2Y1rteDP6tgh1ZK0mD4IcCKwI5rsDhEWYoY31oQOEyXTrAGEyjZayxKIDhKUk6phOcw/Ia8/FQKN84Qtf2C5v6q/tRQFA1GVdrhmXZvmv//qvO0BY8inuAGHyBHaAMJlGS1miA4StmbYOELaGzvNuxX4SpOgq8Ze85CU7LAjrCWodN4aeB2F+M9sBwmTad4AwmUZLWaIDhK2Ztg4QtobO827FfnJZE4Dwohe9qAEEFqN6++hG+tgBwkaotjnPdIAwmY4dIEym0VKW6ABha6atA4StofO8W7GfpFp+3OMeNzrppJOai0GipGnjNDpAmN/MdoAwmfYdIEym0VKWGAKE+973viO5AN797nePrn/96+84TreVwXBLScgJne4AYTvO6i+OyX760Y9+NHrIQx4yesc73tFyd/QgxeWe+w4QJs9fBwiTabSUJeqZ9i996Uuj+9znPqPzzz+/A4RNns0OEDaZoAtaXVwM7gyRSTEWhH6KYUEnbA3d6gBhMpE6QJhMo6UrkWN7yQvwla98ZcSCIINgtyBs7nR2gLC59Fzk2tzFIC24IMUOEBZ5ptbWtw4QJtOpA4TJNFq6EtV6wMf5ta99rVkQuoth86eyA4TNp+mi1tgBwqLOzMb61QHCZLp1gDCZRktZIlYEAOFv/uZvOkCY0Sx2gDAjwi5gtR0gLOCkTNGlDhAmE68DhMk0WsoSNUjxc5/73Ojoo49uFxq9613v6kGKmzijHSBsIjEXvKoOEBZ8gtbZvQ4QJhOsA4TJNFq6EnEx5N01vg984APbyYVTTz119Du/8zvtgqAc0drq3P9LR9AVOoy+6HjmmWeO7nGPe+xItSyTYk1ZrNy0x+G2C82WYRxhisP01/IgPPGJTxz95V/+5UUyKSqf00D183Csqbd+7zuuv7ve9a7tVtKzzz67XUOePVmfWe+Jo/Qll3Fp1+2hbhy1Zl04datb3ap1Z7uvz+Gc+t9trObysY997OhhD3vY6OlPf/roEpe4xLanxXr2YAcI66HWkpQ1qbnJ0MYXmAgguL3wrW996+i3fuu32g2GuXtgq68XXhIyrtrNSmNXPd/rXvca3f72t2+XNf3Kr/xKY/C5KMr7tBn3tgPNlmEM1fKW/ua7f/mXfxkdc8wxo7e85S0NIBx++OEXAdnKRygPBW5cfhHG9meAoyvP/+AP/qAJ749//ONtn3q+7tH0Za2nJmocUi7j8iwQ8shHPnJEaZDP4fd///dbW7nZdBnmaL19zF4Nn3N/Ctr+9Kc/bQmvjj/++AaanvKUp+wACNsdMK2Vhh0grJVSS1TOpNoEP/zhD1t6WNoCdCzrmzzy17rWtUZXuMIV2qVCyvarfdc/uRjMV7/61WZB+OhHP9qi2w888MCWSOdSl7rU6IpXvGK7k6EKjPVqgOvvVX9iWgpUYZKrtwGDr3/966NvfOMbo5e//OWjj33sY6PHPOYxbb6vdKUrja55zWs2ABggOO7Sr6HAJqx+8IMfjL797W+PvvnNb46e//znt0yN3u3LPffcs9U71O7XChA8FyXBZ3V/5zvfGblw6mlPe9ros5/9bAM7N77xjRsv+M3f/M3RxS52sWnJt7DP50p19ONa+MxnPtN44/ve976Ry7dYUgRy//qv/3pzwQL5wwvgdsX92wHCwi7pjXcMo5L1DTo+5ZRTWv4DDM4Cv971rje69KUv3TaDTHAXv/jF29+uuPg3TuFRM08ee+yxIzkmaGXo65rnq1/96qPLX/7yo+OOO270e7/3e60JzIkA6TSehuJb82xMzzTqCHVmf/MJIIhDAL4veclLNleAPfSkJz2pCZbqshungUaTNxLa65ve9KZ2+ycXAxCivV/7tV9ra8XlX8985jN3WBmst1gW1kKJ3HJqzVl/TjIxo7twyueMwTgOOOCAdskYsLMdX7HexKpnv7L2fe9732v0QHtzCZiZRyDwBje4QbupM26mXdVN2AHCNtwRYXJve9vbRg960INGP/nJT5p2w1KASdFwJXs55JBDmkmtuxjWvwgw+D/8wz8cvepVr2pgIRuJYNhvv/1avn6unLy2swl3/dRb3CfMI4FqT8TEL4+IGAEWoxobYE4lTnrUox61A2RHwx+CwawPa8U+9D/L3kMf+tDRt771rR3g0XNXucpVRi94wQtGRxxxRCuXeKH1WPrqNeg+Ryiec845rX3r10t/AQcWsPVcU764M/iLPQvQM2b7k/IE1L3mNa9pdMjcAGa3uc1tGu2vcY1r7LAg5PddEeB3gLBMK30dfcVUIGRC7O1vf3t7Mmj41re+dUv2cuUrX7l9tx7Gs44ubOuimO4nP/nJ0VFHHdXMxNFOMBknRlzqg+GGUWPE3a+5+EuiugLSWwLlxBNPbHOal/m82tWuNnrFK14xuslNbrLj0qaYpccBhGiyWQff/e53WzzAaaed1tYG8K5eQgrA3GOPPdr/2bsR6GulYmJg1Ovvz/7sz9oYIijVw+qFF9zhDnfYtuszIMt4Mwfihh784Ac3602EICsCq43vu1X1wlXWAcJad9sWl8vmriauMIv4FlcT7CYWI3j961/fQALTaBiTQDqZFfO8euNvVSaLojK0+NKzaKovVF+jbaWNRE7nuYxjPSg8zLr2aT3Pz3rK0FQEtGhwVhp9o3kQGsy20ULD2Cf1vY531n3v9a9MgaoxZk6++MUvju53v/uNPv/5z+8IILz73e8+evGLX9wscus5EZT6mflZ8qwhe9X/BNMJJ5zQ4gPEBNR9V4HCpPmrQMfetvY+9KEPNVdJYmf0WaCluCSujbzCe9bT3qT+rOX39FlfpwHTtZ56uqTyqb/7u79rJ1K4ecLTuBXsXae8xu3FzFsdy3BPV9qFfpP2/VpoM68yHSDMi/IrtGtCoklYbJgGrTQaRt20fl9JM42/E2PjZmBa9KLtYGq/8Ru/0f5XP1NpBHiNvNeXmEMTgFUFfkBFBTGVodVNrkwtvxayV4BSN3cE7lrqmGUZVhqnQgAwcR7GiOFi+uI8MlfjotHDlDLXlfnEjD3Lvve6104BcyPgl/YtoM2eudzlLtdOrDjeulFhpl5WBGvmy1/+cuuQfcn0LWhwGsFSXQwRdnztz3nOc0YvfelL215k4fI/ZaGuueFaXDulpis5rt1xQjmtrEaf8KEKFqrQ5+p55Stf2U4uCOAExgDA5z3veTusB8O2x7UXHlX5XsrFqhj3rjIbXSvTUXbjT3eAsHHazezJaN9ZYBoaWhSyoVfaJMoTYLTcJz/5yaPXvva1rb8PeMAD2qaIAIu/NVYEZXLEqqLvmE6HloEa6TsU4nWjRCCul+lFuNbNuigbjaDgXuBHdjyNJvmsZz2rBYBmztB1qAXWhRPQFLrGWrJeOs1sMfaKd5ilxfTQ9t1psu+++45e9rKXNYE+zVzZn9wJggStp3vf+97NBx7QPg35c5Qye9saY1p35BlYoDG7mdJpm/qq1oetFGgraf7jaLASiB7utbhXasBh6qM8AUfnnXdeO3XkBEmOrmbcUdi8j4vVCkCIkuS5WFfHWT63kp7TrJ082wHCZlBxk+uwkS1s2jumwXztaA7U63+LMceqVmo6GrsJlj2R2dKzj370o9uZffUzZ0bTiIWgLowwPuZPi15/AIpYFSL0q1CLoKsui4qkPbMehhozfepNFDnf6bxf5gVz4cM9/fTT23ExQWvcDOieAKjVtKBKD4waLWk06Nxfi0MBa1ZMD+ub0ww3velNm6AFCifN72p71HyzHvB921dORbhGOvt3GgpE4NpD/ux/AZGsBvjJwQcf3K6vDpCIsItQzfs0fVjPs+lnrKJoUwV1rWslHlKtBOGjxmEvhoeEb4ktAc6A/L322qudSsJXcuIofMte9Id+w5ey2gxfxgOcZNp9993bUUlz6s9piQSEr4cm8y7bAcK8Z2BM+4CAtMg287nnntvM14JpnJvGkOJTXEnYZlK9O+trk0HLFvm1r33tdgwvwMMmscgtbH45Qi/MxPcsDerRrkho/6svJnW/MbcyVzpjzRSbjUjgZZNUBD700602BUHmyuiX/vmLBWRK802IAAAgAElEQVSe06c/aEKgExr65KiYPgfYZC5WA0WhF8DmlXiGeY6tt31RCpg/e4bmbe3TOAmBaV85lw98WAcCh5m71wOiV+pDrHsRbLFmWbMAAmGYfRSQMKxro+BnI3TZyJjrM7WvlW/oS+K2cpooLlh792//9m9HV73qVRs9ctJr3LjHfVdjr3xWP5pqn3VJLJKYBuDAvNbYrY3QaKuf6QBhqyle2hsuOP9bsB/84Aeb1k/YSpYicYeIZmeWLb4s7kkbCmOAXC1MAswLQLAJYo3AKPxPwGMcylfXhja9LHBgw7vfZX0LuvcsIEC7930ADICQAK7qElkPQKgmw4y3agJrmb5JQno1F8Ck32KCdCEWgQFojRtrNTfWPg+ZWhjOWsY1qzKrjXlWbU6qd959MqcANuAu8+Hee+/dzs6H4W+kf1nP6qUMmHv1qmuSKXqt7WWvVU0cXwDm7e1o60N3oPmoa3Ot7U2ax0nKwLjfNwpSap+HlgXtGDM6fOELXxhd5zrXaTxsvQI8bcQtGzerREzvec97Wv3ivsSqsFIko2oFMJP4+DQ0nfbZDhCmpeAUz2cxZZHxbQpwE/h20EEHtSNQzkR7xcS/0eYmCcnV6t0K5rCecdUALM9FqCaeInVV90loGG0C0s/58uoOCUP1juZxqaSdeuIjG3so5MN8ArTC8IdxJGFacd2kb/6vDD31DIVG1o/ylQ6Zr4w/9VfLxlDDqvRnjgUqq7uoBqsGANX4kEqX0C5ANswzdNG/aLNpNzRMm6FZgnPVFXNuymQMNWYmdVeg5buMKYIvvydINKA2dWZu6xhqO0Mgl2Biz2U9pa1xcSX1+czvSkKjzkPWsfYy78N1kfnPe8aYNVIVAHVHaAXsVhdi+p45XQt4Wc9ennfZafjiSn1XZ9I5OyXheCnr4HOf+9yWI8ULjav1Yd50WG0sfrN/xGgAsLtd8P9U+9GPftSOxTjrLWd3GMOiDmbZ+mWBJEMa94EMXtL2Slxyy1veslkLqvDryXZ2znA2dt3gYXBKRbCME65h4lXohQEOBUSEWg0mTP1huNrNkdFqHUkfUr5aPiKAKgNO25UJD4VhhE6Yf/ZkBGMEXaVLMjnW72pbVWCkbd/lhEuEZPoyFHhVmHp+KHRqX4eCtQKCzAuBFQHoO8ypgqBx2m4FLdECAwCr4AsIi1AdCuXMX+hYy1Xah6bpfwU8FSxUsFTXlu8zpvTT7wG51eJUQUoFE1lf8dWjU0Bg2hrO2RAk5Nk6DxXYZMfV9ZJ+Lxu/3ar+omXWLwutfClOv7AmiAETv1JPpo0Lftyqvk5qJzyjA4RJlJrB7xaSzY8p/Omf/unowx/+cANkFlDAQBhUGM0MurF0VUbzHjJ3YIv/3uaD2MVXoG/8rKFhFXBV2/asuYgbpQoqG76aH7WVoKoKSNQH7DHfcjlgCv7nW1avPkQIac/G4/scansZYwSP9rkxmEHjxlCv+A/aftUiY/kwFgwqPtEKRowtQWjxUWP8+T5CIAI/2nMFEPlNG2jtLH0EVLJLRjv1fPrlO32rApHp3u/Gp1988vz8SViT8aGZ30PLxHpkDiogjOBFb9Y5dDIvyS9QrRTZiwEpcgUoy33GVRYmrpw547fWv+HaCi1DB2437gNrQRpftPK/JEvJ918tLEn7y33hWWPVj6GVYByoMx5KHVehQDk0CuAIrQN4swarVWQI/PwfcBYrRIBYQNrSMY8t6HD2bu5/0KR7MJ797Gc3/uR4bE3NPZzbLejimpvoAGHNpNr8gllIH/nIR1rqT1HR0qvGxBymFA2o3wh44RxU60HVuMRPuL7VKQJ+P/dQCO4EukLLIHcJbwhcwhmzc+RLNLlb7hx1yjn0WAdYduSwj2DDiAkv8yU+JJscI2BKvNnNbjY68sgjR5/61Kea9kBzcDQOo00MiCNn4k3k3ScM/AkgzQkGfcDkPSMw7v73v3+730FqX0IGo5FQJ7dzYubKooPIbBfy6DP/pzIJwEpfEyAnmRa6yE9PsBtX1hxB7eKgBFASgBGssZrI1PmJT3yiXVRFEKrXhUbGdtvb3rYJRX3K5VUEtAvD1Km/hCLrmXlAJ/PgNIhENuhYLS/oKeGP44CEtP4S4mJfjEFAGHAdYKWvaOX4KR+wnCAR+AF8AW0BMXIToLVxAwAu8rn5zW/egIXxiw16xjOe0QLQ/BYwZf70zbtsmuoVHGwsaOtInbs7XJxmv9/oRjfasS7VK7aBoqBeF0G5NdI6Y8G1ToGGrD91Z50Yo77ldkJ9cCpC/BJaoj+aAA1ork/VIpZ51Aegxbh9B4AaKxpzdfqLxWHzueH2qbGCzYAsa5MC+PjHP76tBblTcpS1A4TtM/ebOhIbG9p3ttpmx8SiHcZkPM6cuqmdWMLKAhBiLg0dMb1HPOIRTagQrjZjLqZKIBLGTVgRPsCD4CTBRIQ5YUhou3qXML/FLW6xw+9N8BMcGK6z457df//9G6hzAVYCzeTX56uTC0H62je84Q3tCKR4EoyXUAJGCEXzjvnqs1S+rA1+I9wJGQBgn332aXUTFvJZcD/d8IY3bEzeES3gg8UpwEn/nNfXD1o5wSb3hfZiMcCQCA9WDZq1mwlpNICHOgWjateYBbdql2Ax5phMCRD5H1gw+FgBBFno/K/vBChwIrmQxD/WObDwuc99rtUj9z96WN8Y5x//8R83QQg4OLnjd2OTdjhuiTyn/9LhnnzyyW0uCVq38nk5wkc79yIw0c6YHEUFEKwJNElMT7Q89CSAMXKCEQO/7nWv29aE9tAA3VkWzjrrrJahFIMHiGj4iZJHJ4HA5hsAtbYcjbzzne/c7nNgbnZVNCAkct7aNefaRj90ALTU4dZFQhtNfvd3f7eBG+tZzg1rhDYqGA448AygJNGPtQ5ooK/LoKxXQsnzxucSN1fAA5vmWh/RjAUI6Lrd7W7XQCUQLSeDPphrKdpzwqJbEFZmnAHXlXcnYBw9KRtyaJjXKC6LSs9uQZijgER8m9Dmo13IT1C1n4osF3UBzYt81TdPIBEWmB1mSAMj2Ah7YIEWTuhgojT+MG0nLAgRWimrA4GIgbIIuAYXk401R3vqVweLjzS75ouAxVxpeAAe4awuwkz9nvEbwEFDpEHqK0HpoieCgHAh0DFmgoNAo5UTJJ4jXAEax1AxboJTP2nGhDqtj3Bw+Vau9cWItOecu5f/CTyMigAkwAkoVgbaO2EDaBB+Ts3Qeo1F0CyrDGGjH0AMQeazftIq0QkIYs3wLCFK0PnNegYUchW2hF3GClQAKAASbVcZQMX4gRB91HdljI1Q1zcCkGDj0tB31p6HP/zhjfaeUS+QkvUBuKCd583D+9///iYo1ZHrzoEMffc864I5A7R81n9rSc4AKYmV0Zb1BBiYA4DSmrjLXe7S5oegxfiBPuNFO7d9xsVgfVijhLu6zSf6G7+1rF1AA22AT+sVLYAiL6CFZh+LQUCrvppnfdEnAl0bxx9/fAMpwBY+AkCgI75jPQI/2hb3JBcAEGKsaGg8AS8sENWFE3dFja2YFz9YpHaHbjl83L7zbu0DwvYcwKzsIt/02gHCHFeWDUigYU6EBg3FIorJb45dW+imswFjyvM/IUOQYbQYMMZKiNEMMVvavmx1vkNv33sReGiO9hir5wGKww47rDFb5Wi4tHFaG4aKIRJ+nvnmN7/ZBDvtUB8waxYEAtLc0sQJFBogYeH4qnqZmAk4zAED1i8Cm9WBhkigvPGNb2zj8D8rgwhigIf2oY+Ei98JBqdegBeaLc2VwCZInMUGICK0CR0CHa0IWSDqpJNOav24293u1k7Q6A8gZSx+p3ECQQCD9pQneJjzPaccMEIjImSYuPUfXYESZnJCH40IVNYMwlPOCOCM4DMuYwBMaPrGzNoDQBkfKwFQQ+Abu+/RzBrQJ0CbVQRoERtgTXDLMOd7NyeAGEELvLHEGCNhnr6hB3eUZ9UDUKCJ2xyBJ/3Tf/2wFtSnLpYm/SVMWQPQHiBRlsvKvLBgWA/qYBng8kFPfmlA8c1vfnOztHhZa8ZljRHW3CfGe+ihhzZa+Z1lChBiCbAOuDoIIfREe+XjTmE1kV4ZKDEn1gfrFDDgKmsAQSI1dDR+6xDQQgdzph1zjh765fuAgigx3rsSszrbRDv8g2JhbqR2jkK4qLTrAGGOopB5k6ZIYMgLjjEOzyXPsXsL3XT8rxgTRk1gMcMTwLR/fz4TYEAAzUxsgA2J2WGwGCYBgVHTKD/96U83DRGTx4wJa8wRCGCqDYBIBDrNEPOlXaqHporh0oJpCLQ8DF2bBCDhhqETMO985zsb0+ZS4gLwmUDAOPQNKCHsCXipsR2XIlRocdYJ6wQQon3jME7aNmFsDEzcsjxi8AQYQUToESKEAQ1RewQTDVN9hKf1SLMGSMQREFoEGDAUiwLhyCKgLeMCoghKzwAJtCTjRxOaKjBA29UnrgAClwDK7+ql7QYcs5qIAUATgANoQ0M0INgAAePWN+CPFQH4onkDAgCOPvru1FNPbXNoTrVnvIAAUzl6qofFiFbHgsTVZA8S5uJBCF7PEKJAnjVmfO42IbgjxI1JfVk/ARave93rmnn/ve99bwNRaI1uvlMWIAIE9Zc7hgXIUTggC7AzdmuZxcIaBUIxbf2wJoEtdCdgCHZzpi/WTIATNxgrheftlaxnAME4Aj6ta/TUJwDHnrF+uFGsgZyqSnBuAh21vch+9EViZEAjy409yfKVAOMOEBZplhakLza6QDqMzGanUW1WFrUFGeJMulFPAgThYqzM1BgjxpvgN8dz+VXDwAW30aCABAIREyQUaZrmgKaN0XMh0DKjcRH00H98iTa0+cJ4CUlWH5oixk64mVNap/YIZFovLZiGByAQbjRzmh7LAEEmWFGfCH5CiOAQS0E7pYFi/oSfelkClMH0CQZaMI2EECNImYwJIlofkIEGmDyBQ8gAC/pPQLJeGRcTOHM7gUlgAxhAk7EYI8FCyLN8ALX6bL0COawV+uh/lhr0ZT1geQB2CBxWE8AAoCD8teMz0KDP5pWGzcRv7OYO4KAxS0HMLcPtApAR3oQ4twp6A38EGABhTrWjHvRDG4LPu3kjVMWeAFv6CGyiPZCFrsZtXqyFgDuxDYAT0MnknxiPnE7harL2mPL1Rd+BMLRlqQD60ILw1Td9NVb1AiCAIzDF4mTdAVgsH4CVsQIvNE+xGQS0Na7PgEXWE8uZMZhDViuWFP00Z+itT/YLC4M1xloAIBBYLGyAk3VgDEAJQGMfAFjWqz6jlb2VoFUb3P+LbCafCRPaYKUAAkBm3XIrW1OLCg4MsVsQNjjRm/FYXAw0ToyE5mCzbcZFLZvRv0WtIwAhZk6MlMBjRcDcMWTCD00JSoKdcMW4abr86oQnEzkGS7PnnxV1T5MmDAkHpnxMlyYffzuBxjJAKAIPGCntEhOPi8FzviMACQ1CTR/1CYBgaQAa1AMcmG8CMcFoyhBU2vWdNUGQM13zcwMbmDcBTRMhzDBvQhhtCGJj0iearPLiBjB+v9NUCQzCXxsEBn86vzUwAIRgYGgA0BAOgAf6sERom5BmZSGEBW8CXQACAUIzIqR++7d/u9FTPwEo2jnLCQEHWNG+lU8yGYJR28zy+mGsxkRoGh/Qoa+sGRgXoWo8tHzzS1gDCEBKUn5bA2IXcp2x7/UNwLHfCERjIAhZGQg6wEOQqXlUP8DD5QRcoav9CnDpgzoIYjRhvRATQjg7RUPIszpx6aANYGJuBKlZfywevmc9VJabxJox52hgfRk/mljbhDi3C1pa01xl1hU6AwEAHHcPMBEXjqBIFiruD/OiTuMDioET4I0lAcgCYPVdOwCzdWdN6CdQY5z6bl2oU79y/DFB1YvKMxahX2gk/oPSYL7MCaC1yNaXDhDmuHIwRxsfghfRzpeNudUYhOrvW2SkuZVkTJRwtBfaGyZL06Hh0X6ZwDFsn2mOgtNe/epXNyZPyDPf0noxS1YcF+TYqJhfrm8mBL0wb9om0zatkJChCWKOfPk0dFHqNEHCnSBkAsbcCeOcZ9cfwpGw54rgOwZQBB8yQWPSAA0hp0+ADGFonQAcykX7JJD5smkhBHXMw4Sa/qmbawUoYArXvxzJw+T1P2fg9dVn9RE66EUwoBNBgrasC3FLaItAVJ5AJQBZb4AoQoNQIuwIQUAHsCAwCR1WDMKPtsxVgobA0WmnndbGBlAQwgQ0UJOTJNHs1U04o4lxcEGwuqAtMMMKxGqQ42W+9xloRHvrAyAxFuW81MMMD7AYO8CApvrFAgMU2ZM0bEDKXBi/sften82TdUNwGie3DxDGcmAdsLoQsOoC2MyJ8Zorwpxw50awx2mZAI/+WQ/Jp0GYmwfPJ3DUXgAKrBV1mQN1qZPFIt95luBHC+W5DvTRWgMAAWTAlUsEoPW/sQJ0xggwGqdxAEX4VRKN1WOzW8kHtrqtCMu18uF62kpfrWH0BczMk7W96MdGO0DY6lVW2sPkmMYxlmSqopl6ZeHknH9H6BedqLr5CCxaIeFPS2K6JWAwR6ZYzBFyJzxZGAhtwotWDFwQLDRKQo6Qp8kS6jYwASnWAHjjpsAYgQvaLM2KoCfkmaq5DLgDCHpmaEKDdkZA0mKBEXUzFbNmEIRM3QQBjRqooZ0CB/4HUDxPM6Z5CsozBozaOFgnuBUIMy+My3hj5tdfgpAwYo7OcUYCkoBg/QAi+MU9Q0CgX46E0q4BDVqudwI0TA19CCtCjUBEE0KJwAcyWBXUz0pDi0dD9RO6BBKhiQ5+1x8ADtAglNCF5QOYyJFEzFX9gAQLj7oJYNozTQz4I8yY0dEQmNN/Vh2ggNuIORfAAGIwaG3nJABBDkxG0LImaMP85vSGqHMgAy1o7trwUifTPxAEHDLfm0ttsJ6IkVAPgY02+kPAc53QJIE3YwXU1CkGgztFW35HE+0BVdah71kaAD5r3xyyFqEhQISHAErWjX0C8AC+ACahrg1WmZzgAXZYytASzSgtvosg1Ja9xAoTq0ksMjFDr1VozpHdrrnpcWMx7iFASLkhEKg0SbIu36EhcGk/WuvmLKek1ty5ORS0xqwVPJJ1q6da3qJJQHgbkukYU8EMmDKTcz4gISlvaya/LeriUjVDw8NEMViM1P+ENo2V+ZTPFaMlqGmvBDjwQNhjjoRQBKyNS4siWGh+XrR8Uf6EFo002fwwCBsIgyZMCCwMlusAI2UO5gsmhAU+YtyEsPYIWWCCoFVfAg3zPIFDIOaEBsCgHlo0DZSQTX73TJb+EMLaZa2Itk1jZKpPMiQMDqhiQicEgAb0ojUTPhiZAEJjRQPrL0mUwjSMmXDVR+MmzJi41Wv9EnrcAmhBMKETAascYMMCQCARlv5PIh/gR9/NUV4EnOfNK60fDY1NXQAi7R9tuCaARG3qv7oJ/GjPAB3LC8BjvgAYYIyQBFYCDsV26DuNGi3NhTkCfpzuAOzQWjAgQKMPACSLIPAZdxTa+E1fCW9A1BoEMIEOtAUsuSAAsKwlQMI60EeMGbBhnraWk2m13k8BjFijLAVAR25iNc+Am3n3OXFO1RJXNdlcUx4Lk3mv93OMc4FGgG4XoLDWcYwDB7Fsxvrrf2sKuAW2xSrhLZlDba21vXkw5MgpAAHf7ABhi2YhWdEsHsif2Zj2k+NjyeetnMW0yL6qLSLZqs1gYrkSOwFVHsDQad1cEF6hK+aKKeca61ygkk2fVLg5WUIAJSudZyuQGzLbJPfJGWht5rrXlE0Mhfn3nWeSAdBvntHv+NT1PRYmWiPhQYjlxs1KHGMiSAkf40qq6LSdEwP+R5+cvY9QsN78RqikrPpr/omMTT88T0NPhr4wSX1QR8zRCQQEBIwrqZ0j6D3nGRYSzChphjMnOWZn/F71NEvKmPtkjcx4czmX5/UnNxn6jP7Rjv3vFf+6z9oCMqyfgEIgI3WisfrU7XugL8I5c1Lnta6VfE6QX4Q5OqIDIAhsmXfrUb3pm2ezZs0vWvjL0dnKL6oA933+z3vKRlAl8VNSWaf/xpNTC1WrzveLwAe2qg8VANQ2s5d9lz3EyiS+A+BlRTCH2SPJ7rpV/V5vO9aCdUVGdYCwXupNUT5amM2HoTM7iyqG1CScsXAIPS+fuwVhdWKH+WNgBHkEfMx80YwIp7hu1Ig5pkwEqToi5G3yMNB8DjOO5mV+whCy8cOIlSUMaZG+S/a0KnDDgMOQAx7Sh/wfBm4s2kzdQ8rY1PqavA7+z7P6kJTP3iNoAwrUXVMVB2B4voIon0O3gNjQJ8Fr6VeARdrOeLSjbHL+pw95rvY7QiiMWR0B2RGsoVe9UCi/5fkAsfQ91o6aJbAe4Utfwvgz1ozBvGL4fq90iLCOIA0wNeaApgCZBN76P/vccz6rpwr0GqOU+asCPEApgnw4B/m/aq4VgOX7caC1CsWMv9JnCna4MI9WYJV1UGmWdZT9HtrVAQTIWhusXdx4rEpAgmDlylsWPe9NrE/kUr/NcQuXaZCZjWaD0xb4DmnBgoKYG2knmE/KbGH3lq4pm5HQjEumChmb2G/ZuKFnZXL5rTKDMOaq6UZQRjjFwlAZRf0cwRyhEKYfgBCQUc2MEbRDBhVwUTW8cZal4VjSnwjuKhwiZAKWAo4igNPfCPOAoWrxCNOMQM9vEXzeMcIIxDrWtF+12MxL6kt/Y+GoQq+OP79XIRkAlD7GmpF7JQJ6PFuFYwUzAXsRCgE8oVnMsKHNcE7qGCNkax8zXn2qRwbTTtZh+poxxboTEJG1GfpmLodthhb5vYKnAItxICmCbbuBgsrsKgCt+2QIFFdikGgk3kCwKDcRgECwsg5zFWUOM0eLrvhlbZNN3HDdxbBFojEbMJqFd6ZMvkR+WVoVS4JANj7ift3z6hMThl8FbhhrNmMEZARJtMuhCTjfR1BXoRmmUbW+KjgiHKoAjTm+CvgAhOF3NFrtMidHYIQxEwSsTeIDqtVhHGXUEZN/BUKxHkRA1UDYlMsYq8ugAojQtYKppHy2TrO2jcWajrskrow8H/N9riquGmpoGoFVrRJV4GVuq/Aa9i+09n00tlhZAoTiW089dex1/qvQrub6KkxiPahaZgUf9ftqrdFmQEYFbvk+fY31Jmsn9KhCvbaX32t/9SGAOuPLmk3/ApKqBS30zvoagrgKnsZp11vEXjfcTKXVELxXwFsBXh0n66UYFa43MUWSYsldgodnD4W+FahtuMMzfLAqFuKgBFZ2gDBDgq+lasyFb9xRJ9HvSdjC/9lf248CEWbR+gGABDhW/30YMT83DYVJPIJv3lRJQh8MMbEZ3jFLmhTrDj86i1hcI96d4nGsD4Dor41RwPoBFAA084DWQ02/1qwMN5v4FrEXyoplAToEkPrzm5M5jlgSdJnDocDEqwgNuTjEYQCuSadd40M2NrLFfyoC1LsYFYG4YlDQTfCq4NekqF7GZFIVBDnR1dxwF/z/t46CifyWhtTxoXHmlsWfwuXqIdJXvy4Ny1E8gVTVLLtco+q9XQ8FooFFq4vWVzXogIlF8F9aswS8/lZfeLSjqiVVoVEtA523rGeFXLRsrAaYd2JjQs8hz1A2FiS/RekQYJqgXULeuiLYAAW8h8ISEFetN+pThkDUPosRgJubNAMoNj66xX6ygnuuYCDBewJwh4Bq2Xh4BwgLuP7i89G1aGOdgS7gRG1Cl+oGrAJ16P+tpj7lYvKN33wTurLhKvQtgCUMMf+HIcZ1ERNt7XfcPYvui90wgWb8YEz9FVCuti6qUNO1uF3yOQC1uhuGFomszwTVBrwmTqXGimzneQ2t4q4KQA4IG+7pZaNFBwgz3rzrrT6bPQurCopxwWjrrb+XXywKVP9t1bR9jpCNCTk9D1OqcRTzHlX1S6+2ZgMmqn+8+rfnPY5lbD80jTJhDMPYkYyrarARap6vgDNrz3sNivRsgmNroGqsRzWGo8bpLCNN19rnGuMz3J+JG6lCtlsQ1krZXm4sBYLuE7hYF9SyLa4+xdNRoArarIt6BK5qJ9O1NP3T6V+1GEQDjQAbalNVaHXwO90cDAMnV4pBiHsg1oL6/1DAVSVlGGAZi1De82ydx3F1TzfKxX06ICB0HdLF94tg7VsvBbsFYb0U24LyYbb1aNUWNNubmAMFVgN9dXPWuIQwoUUCCLVP4/pVAcRwzEM3yxymYambHEe/lYRzFWQrDTrCrVoWhvNb53il9hdtfc56ksfRNvOwrMpdBwizXjW9/k6BToFOgU6BToElpEAHCEs4ab3LnQKdAp0CnQKdArOmQAcIs6Zwr79ToFOgU6BToFNgCSnQAcISTlrvcqdAp0CnQKdAp8CsKdABwqwp3OvvFOgU6BToFOgUWEIKdICwhJPWu9wp0CnQKdAp0Ckwawp0gDBrCvf6OwU6BToFOgU6BZaQAh0gLOGk9S53CnQKdAp0CnQKzJoCHSDMmsK9/k6BToFOgU6BToElpEAHCEs4ab3LnQKdAp0CnQKdArOmwIoAwUUT//qv/9que77Xve7Vrnv26jnTZz0lvf5OgU6BToFOgU6B+VOg3tL69re/vd0uvNsFF77aHeCPetSjRkcdddTo5je/ebvvfVlzSs+f1L0HnQKdAp0CnQKdAstDgdze6VbPd77znaOLXexio91+/vOfX+CHH//4x6NjjjlmdN/73rdZEJbxNqrlmYre006BToFOgU6BToHFoUAuWdOj0047bXTxi1/8QoDAtAAgPPKRjxwdffTRowMPPLD1OtfNLs4Qek86BToFOgU6BToFOgU2mwIBCN7f9a53jX7pl37pQhfD//7v/zYXw2Mf+9jR3e52t9EhhxzSAcJmU7/X1ynQKdAp0CnQKbCgFAAMGAu8uBi+973vXQgQuBj+/d//fXTiiSeO9t9//x0uhh6kuKAz2bvVKdAp0CnQKdApsIkUSJCiKk899dTRBz7wgW0j+poAAAb8SURBVJ0A4Sc/+cnopS996Wi//fZrIKGZF3bbbROb71V1CnQKdAp0CnQKdAosIgUABDL/pz/9aYtBOPPMMy8ECH7453/+59ETnvCE0d3vfvfRAQcccOERhw4QFnEee586BToFOgU6BToFNpUCPAm8BkIOAIQvfvGLOwHCD3/4w9FTn/rUFoNw0EEH9VMMm0r6XlmnQKdAp0CnQKfA4lIg8QfeAYSPf/zjOwHCf/3Xf41OPvnk0d57790Agle3ICzuZPaedQp0CnQKdAp0CmwmBVgPvJxieOtb37oTIPjhjDPOGF3ykpdsLoaeKGkzyd7r6hToFOgU6BToFFhcCjjFEDcDC8JXv/rVnccc/+d//md01llnbQlAyHnL1SwUfktuaCaPeqJi+FzNIT0P8mu/W1vmQfldq82aCtXIbeYA+ewX78C+HCZZk3UvrXWdZk+FwmEcvlf3cM/V8mttb7V9Ex5h3w/7kj6lnXH8If1VJsFXnkubq9GhJoyZRlGKyXa1MVRLbfq20niXebXXNbHM49hOfc/eMKbhGpVqWUbF3X72s59d4ASDTZ/8y4cddlijw6yOOQIj559//ug///M/22mJK1zhCu3dxnDc0veXutSlRpe4xCXaZzkabLYwSGX1FyNMeshstLUywM2Y6PQJnRAz50h97q9Ogc2mgLVt7/zoRz8a/eAHPxj9x3/8x+jyl7982zOXu9zl2rlld6rYE1yG9olsaJe+9KVbZPK//du/tT109atffXTta197dPbZZ4/22GOPVl599prntMOSuOeee7Z9+LWvfa095xn12K/qtAfV+a1vfWv0ne98p+3Hq13taqN99tmnPRcAsxId/vu//7v1UT3G9f3vf7+NYa+99hpd8YpXbN8b46c+9ak2ZmX1Q9m8fPa9tu0/7aKHPShVrDbCKyL4U74K59pH488eNoa0p55kmK1nxofjC59KefxVm/oT0JBnMp6ArvBcQeLDspu9nraiviGdjLPSZyv60Nu4KAWsb/si6zyBifZ21ux55503Ovjggy/MpGgD2GDvfe97R5/97GcbA5jlS3t///d/3za/TXOlK12pMTKL6Z/+6Z9aVsfLXOYyo91337397y9agDI2r7/0e6WNPssxqFufEFQ/0eyXf/mXdyz+Wbfd69/1KBABFwBA8ADRNrv9Yp/Y5F7KEDLWp3Vpfyvne8IdAIjwjJDyrD2FYXhGGd8RuJ4HQvzuN/svzB5I8OflN31Rx0oAAWPyO6EJTNg76gdOgBTP67vxav/cc89tSsKVr3zl9lv2OyXjy1/+cuMf+qoPwE/GA7TgMde73vXab9/97ncbgNDmt7/97QaKKtjIisKTlPPyPDp76XP+tGF847T9fBdhbwz6Lr5L3UMwoi59Ux9QFkCzHTLZVoUtgukf/uEf2vox71up0O16HGP8iK1HoN+eueY1r9nWXRRcv2XfAurtmGM2CYZBONuck8xi0xK7bswwA21WRJ0+xFwYxhcGU10V8zBhaV8f9T/HQidpTdPSrT+/61IgGiXBYSP7P+suAjnUqXukfud7Ai/lo6k2c+L/H2uuZvUELUVARiNUJm6MfBcTefZx9sI4S2T2a4BGhGH2VLTM1K0fhGvVQGNBVIfy/qdoRJkIL4l1Es/xvDKh30oCvvKeOlZ0GLoCJrkEMgb9H1oXqzsjYx8CjO2w4uu6yTrultb5zGysYtl72Yt1XUcR33EXQxXClVHMaghpz2LJBo9WHmZVfazZmEP0Pav+raXebGj9xJwqI+nIeC0U7GXWQ4G4tCIks8Ziycrv2U/WZ0yGPscd57mhj54QrXssZaJdBFAMhVf8/wEBEQSrxQx5BkhhbQhTStv+z14CXvKKGZSQj0JBoSF09dE4AzICLmr8QWgVgYxGK7lQM8a8V35Y617t+Tyb/ga0DJ+p4MK448KYJvZhPWtq1mUD3OIe0l7mZTtYSGZNv1nUH17AYmcP2kdesTRmDba5yl0MFf2HKcyic5URBLlE48j/VbgO0Xl9Jv2bhOBnNY5hP4cMZVbt9np3XQpUTSxCM+bBKgSrgKlCuALzAIiVNNZoenk+QCRuiBoIGXA/VC5W2ptDIVwBRtqrAj5gPIBEe6wA0ULDQ8JfYgEYakd+T9lh/ytAivug8psanBlBN24lVhCROtFsHCgJYEnddczbYZXXtRVrVAcG853ZykNqT4aWw7YPk0kxBavQm6UWXBlHNmE23fC3OogqhFcrt1VTMGSAYWRb1X5vZ9eiwBCERjMdt39Xo0yEcARUFdDj9mEAQNUuxtW/1j250v6v4xtq/Svxo+y5OqYKFHyurr+qkKxU51DIb0SjH/KqSfy0ArntsqpXUpq241iXZc4CEGKJrGC3rlF75v8AB4ibq23RoigAAAAASUVORK5CYII=&quot;&gt;" style="text;html=1;strokeColor=none;fillColor=none;spacing=5;spacingTop=-20;whiteSpace=wrap;overflow=hidden;rounded=0;fontSize=12;" vertex="1" parent="1">
          <mxGeometry x="1120" y="2300" width="550" height="540" as="geometry" />
        </mxCell>
        <mxCell id="yuBNwfh4JPZWKL3ttyxz-77" value="&lt;h1&gt;自动扩展URL&lt;/h1&gt;&lt;div&gt;有些浏览器会在用户提交URL之后，或者在用户输入的时候尝试着自动扩展URL。这就为用户提供了一条捷径：用户不需要输入完整的URL，因为浏览器会自动扩展。&lt;/div&gt;" style="text;html=1;strokeColor=none;fillColor=none;spacing=5;spacingTop=-20;whiteSpace=wrap;overflow=hidden;rounded=0;fontSize=12;" vertex="1" parent="1">
          <mxGeometry x="550" y="2930" width="520" height="100" as="geometry" />
        </mxCell>
      </root>
    </mxGraphModel>
  </diagram>
</mxfile>
